<?xml version="1.0" encoding="UTF-8" standalone="no"?>
<svg
   xmlns:dc="http://purl.org/dc/elements/1.1/"
   xmlns:cc="http://creativecommons.org/ns#"
   xmlns:rdf="http://www.w3.org/1999/02/22-rdf-syntax-ns#"
   xmlns:svg="http://www.w3.org/2000/svg"
   xmlns="http://www.w3.org/2000/svg"
   xmlns:sodipodi="http://sodipodi.sourceforge.net/DTD/sodipodi-0.dtd"
   xmlns:inkscape="http://www.inkscape.org/namespaces/inkscape"
   sodipodi:docname="ag1815.svg"
   inkscape:version="1.0 (4035a4fb49, 2020-05-01)"
   id="svg8"
   version="1.1"
   viewBox="0 0 62.457687 43.66988"
   height="43.66988mm"
   width="62.457687mm">
  <defs
     id="defs2" />
  <sodipodi:namedview
     inkscape:snap-smooth-nodes="true"
     inkscape:window-maximized="1"
     inkscape:window-y="-8"
     inkscape:window-x="1272"
     inkscape:window-height="1017"
     inkscape:window-width="1920"
     inkscape:snap-global="false"
     showgrid="true"
     inkscape:document-rotation="0"
     inkscape:current-layer="layer4"
     inkscape:document-units="mm"
     inkscape:cy="91.961934"
     inkscape:cx="97.923352"
     inkscape:zoom="2.8"
     inkscape:pageshadow="2"
     inkscape:pageopacity="0.0"
     borderopacity="1.0"
     bordercolor="#666666"
     pagecolor="#ffffff"
     id="base">
    <inkscape:grid
       originy="-17.184287"
       originx="-39.6875"
       id="grid833"
       type="xygrid" />
  </sodipodi:namedview>
  <metadata
     id="metadata5">
    <rdf:RDF>
      <cc:Work
         rdf:about="">
        <dc:format>image/svg+xml</dc:format>
        <dc:type
           rdf:resource="http://purl.org/dc/dcmitype/StillImage" />
        <dc:title></dc:title>
      </cc:Work>
    </rdf:RDF>
  </metadata>
  <g
     transform="translate(-39.6875,-17.184287)"
     style="display:none"
     id="layer1"
     inkscape:groupmode="layer"
     inkscape:label="pie chart">
    <path
       d="m 126.37448,13.803661 a 19.335905,19.335905 0 0 0 -0.13126,5.17e-4 19.335905,19.335905 0 0 0 -0.19017,0.0021 19.335905,19.335905 0 0 0 -0.19016,0.0041 19.335905,19.335905 0 0 0 -0.19017,0.0057 19.335905,19.335905 0 0 0 -0.19017,0.0083 19.335905,19.335905 0 0 0 -0.18966,0.0093 19.335905,19.335905 0 0 0 -0.19017,0.01189 19.335905,19.335905 0 0 0 -0.18965,0.01344 19.335905,19.335905 0 0 0 -0.18965,0.01499 19.335905,19.335905 0 0 0 -0.18914,0.01757 19.335905,19.335905 0 0 0 -0.18913,0.0186 19.335905,19.335905 0 0 0 -0.18914,0.02119 19.335905,19.335905 0 0 0 -0.18913,0.02274 19.335905,19.335905 0 0 0 -0.18862,0.02429 19.335905,19.335905 0 0 0 -0.18811,0.02687 19.335905,19.335905 0 0 0 -0.1881,0.02791 19.335905,19.335905 0 0 0 -0.18758,0.03049 19.335905,19.335905 0 0 0 -0.18759,0.03204 19.335905,19.335905 0 0 0 -0.18707,0.03359 19.335905,19.335905 0 0 0 -0.18707,0.03566 19.335905,19.335905 0 0 0 -0.18655,0.03772 19.335905,19.335905 0 0 0 -0.18603,0.03927 19.335905,19.335905 0 0 0 -0.18552,0.04134 19.335905,19.335905 0 0 0 -0.18552,0.04289 19.335905,19.335905 0 0 0 -0.18448,0.04496 19.335905,19.335905 0 0 0 -0.18449,0.04651 19.335905,19.335905 0 0 0 -0.18397,0.04858 19.335905,19.335905 0 0 0 -0.18345,0.05013 19.335905,19.335905 0 0 0 -0.18293,0.05219 19.335905,19.335905 0 0 0 -0.18242,0.05374 19.335905,19.335905 0 0 0 -0.1819,0.05581 19.335905,19.335905 0 0 0 -0.18139,0.05736 19.335905,19.335905 0 0 0 -0.18086,0.05943 19.335905,19.335905 0 0 0 -0.17984,0.06098 19.335905,19.335905 0 0 0 -0.17983,0.06253 19.335905,19.335905 0 0 0 -0.1788,0.0646 19.335905,19.335905 0 0 0 -0.17829,0.06615 19.335905,19.335905 0 0 0 -0.17725,0.06821 19.335905,19.335905 0 0 0 -0.17724,0.06976 19.335905,19.335905 0 0 0 -0.17622,0.07131 19.335905,19.335905 0 0 0 -0.1757,0.07338 19.335905,19.335905 0 0 0 -0.17467,0.07493 19.335905,19.335905 0 0 0 -0.17415,0.077 19.335905,19.335905 0 0 0 -0.17311,0.07803 19.335905,19.335905 0 0 0 -0.1726,0.0801 19.335905,19.335905 0 0 0 -0.17157,0.08216 19.335905,19.335905 0 0 0 -0.17105,0.0832 19.335905,19.335905 0 0 0 -0.17001,0.08527 19.335905,19.335905 0 0 0 -0.16898,0.08682 19.335905,19.335905 0 0 0 -0.16847,0.08837 19.335905,19.335905 0 0 0 -0.16743,0.08992 19.335905,19.335905 0 0 0 -0.16692,0.09198 19.335905,19.335905 0 0 0 -0.16536,0.09354 19.335905,19.335905 0 0 0 -0.16485,0.09508 19.335905,19.335905 0 0 0 -0.16381,0.09664 19.335905,19.335905 0 0 0 -0.16279,0.09818 19.335905,19.335905 0 0 0 -0.16174,0.09974 19.335905,19.335905 0 0 0 -0.16123,0.101286 19.335905,19.335905 0 0 0 -0.15968,0.103353 19.335905,19.335905 0 0 0 -0.15917,0.104386 19.335905,19.335905 0 0 0 -0.15761,0.106454 19.335905,19.335905 0 0 0 -0.15658,0.107487 19.335905,19.335905 0 0 0 -0.15606,0.109037 19.335905,19.335905 0 0 0 -0.15452,0.111104 19.335905,19.335905 0 0 0 -0.15347,0.112138 19.335905,19.335905 0 0 0 -0.15245,0.113688 19.335905,19.335905 0 0 0 -0.15141,0.115239 19.335905,19.335905 0 0 0 -0.14986,0.116788 19.335905,19.335905 0 0 0 -0.14935,0.118339 19.335905,19.335905 0 0 0 -0.14779,0.119373 19.335905,19.335905 0 0 0 -0.14625,0.12144 19.335905,19.335905 0 0 0 -0.14572,0.122473 19.335905,19.335905 0 0 0 -0.14418,0.124023 19.335905,19.335905 0 0 0 -0.14315,0.125574 19.335905,19.335905 0 0 0 -0.14159,0.126607 19.335905,19.335905 0 0 0 -0.14056,0.128158 19.335905,19.335905 0 0 0 -0.13901,0.129708 19.335905,19.335905 0 0 0 -0.13797,0.130741 19.335905,19.335905 0 0 0 -0.13695,0.132291 19.335905,19.335905 0 0 0 -0.13539,0.133843 19.335905,19.335905 0 0 0 -0.13384,0.134875 19.335905,19.335905 0 0 0 -0.13281,0.136426 19.335905,19.335905 0 0 0 -0.13126,0.137459 19.335905,19.335905 0 0 0 -0.13022,0.138493 19.335905,19.335905 0 0 0 -0.12816,0.14056 19.335905,19.335905 0 0 0 -0.12764,0.141076 19.335905,19.335905 0 0 0 -0.12557,0.142628 19.335905,19.335905 0 0 0 -0.12454,0.14366 19.335905,19.335905 0 0 0 -0.12299,0.145211 19.335905,19.335905 0 0 0 -0.12144,0.146244 19.335905,19.335905 0 0 0 -0.12041,0.147795 19.335905,19.335905 0 0 0 -0.11834,0.148311 19.335905,19.335905 0 0 0 -0.1173,0.149862 19.335905,19.335905 0 0 0 -0.11576,0.150895 19.335905,19.335905 0 0 0 -0.1142,0.151928 19.335905,19.335905 0 0 0 -0.11266,0.153479 19.335905,19.335905 0 0 0 -0.11162,0.153996 19.335905,19.335905 0 0 0 -0.10955,0.155546 19.335905,19.335905 0 0 0 -0.10801,0.15658 19.335905,19.335905 0 0 0 -0.10697,0.157613 19.335905,19.335905 0 0 0 -0.1049,0.15813 19.335905,19.335905 0 0 0 -0.10335,0.15968 19.335905,19.335905 0 0 0 -0.10181,0.160714 19.335905,19.335905 0 0 0 -0.10076,0.161747 19.335905,19.335905 0 0 0 -0.0987,0.162264 19.335905,19.335905 0 0 0 -0.0971,0.163298 19.335905,19.335905 0 0 0 -0.0956,0.164847 19.335905,19.335905 0 0 0 -0.0935,0.165365 19.335905,19.335905 0 0 0 -0.0925,0.166398 19.335905,19.335905 0 0 0 -0.0904,0.166915 19.335905,19.335905 0 0 0 -0.0889,0.167948 19.335905,19.335905 0 0 0 -0.0873,0.168982 19.335905,19.335905 0 0 0 -0.0858,0.170016 19.335905,19.335905 0 0 0 -0.0842,0.170532 19.335905,19.335905 0 0 0 -0.0822,0.171566 19.335905,19.335905 0 0 0 -0.0806,0.172082 19.335905,19.335905 0 0 0 -0.0791,0.173116 19.335905,19.335905 0 0 0 -0.077,0.17415 19.335905,19.335905 0 0 0 -0.0755,0.174149 19.335905,19.335905 0 0 0 -0.0739,0.1757 19.335905,19.335905 0 0 0 -0.0724,0.1757 19.335905,19.335905 0 0 0 -0.0703,0.176734 19.335905,19.335905 0 0 0 -0.0682,0.177766 19.335905,19.335905 0 0 0 -0.0672,0.177767 19.335905,19.335905 0 0 0 -0.0651,0.178801 19.335905,19.335905 0 0 0 -0.063,0.179317 19.335905,19.335905 0 0 0 -0.0615,0.179834 19.335905,19.335905 0 0 0 -0.0599,0.180868 19.335905,19.335905 0 0 0 -0.0579,0.180867 19.335905,19.335905 0 0 0 -0.0563,0.181901 19.335905,19.335905 0 0 0 -0.0543,0.182418 19.335905,19.335905 0 0 0 -0.0527,0.182418 19.335905,19.335905 0 0 0 -0.0506,0.183451 19.335905,19.335905 0 0 0 -0.0491,0.183968 19.335905,19.335905 0 0 0 -0.0475,0.183968 19.335905,19.335905 0 0 0 -0.045,0.184485 19.335905,19.335905 0 0 0 -0.0439,0.185518 19.335905,19.335905 0 0 0 -0.0419,0.185518 19.335905,19.335905 0 0 0 -0.0398,0.186036 19.335905,19.335905 0 0 0 -0.0382,0.186034 19.335905,19.335905 0 0 0 -0.0362,0.187071 19.335905,19.335905 0 0 0 -0.0341,0.187069 19.335905,19.335905 0 0 0 -0.0326,0.187068 19.335905,19.335905 0 0 0 -0.031,0.187584 19.335905,19.335905 0 0 0 -0.0289,0.188103 19.335905,19.335905 0 0 0 -0.0269,0.188103 19.335905,19.335905 0 0 0 -0.0253,0.188619 19.335905,19.335905 0 0 0 -0.0232,0.189134 19.335905,19.335905 0 0 0 -0.0212,0.188619 19.335905,19.335905 0 0 0 -0.0196,0.189138 19.335905,19.335905 0 0 0 -0.0181,0.18965 19.335905,19.335905 0 0 0 -0.0155,0.189654 19.335905,19.335905 0 0 0 -0.0145,0.189653 19.335905,19.335905 0 0 0 -0.0119,0.189651 19.335905,19.335905 0 0 0 -0.0103,0.189653 19.335905,19.335905 0 0 0 -0.008,0.190169 19.335905,19.335905 0 0 0 -0.007,0.19017 19.335905,19.335905 0 0 0 -0.005,0.190169 19.335905,19.335905 0 0 0 -0.003,0.190169 19.335905,19.335905 0 0 0 -0.001,0.190169 19.335905,19.335905 0 0 0 5.1e-4,0.131258 19.335905,19.335905 0 0 0 0.002,0.190169 19.335905,19.335905 0 0 0 0.004,0.190169 19.335905,19.335905 0 0 0 0.006,0.190169 19.335905,19.335905 0 0 0 0.008,0.19017 19.335905,19.335905 0 0 0 0.009,0.189653 19.335905,19.335905 0 0 0 0.0119,0.190169 19.335905,19.335905 0 0 0 0.0134,0.189654 19.335905,19.335905 0 0 0 0.015,0.18965 19.335905,19.335905 0 0 0 0.0176,0.189138 19.335905,19.335905 0 0 0 0.0186,0.189134 19.335905,19.335905 0 0 0 0.0212,0.189138 19.335905,19.335905 0 0 0 0.0227,0.189135 19.335905,19.335905 0 0 0 0.0248,0.188618 19.335905,19.335905 0 0 0 0.0264,0.188103 19.335905,19.335905 0 0 0 0.0279,0.188103 19.335905,19.335905 0 0 0 0.0305,0.187584 19.335905,19.335905 0 0 0 0.032,0.187585 19.335905,19.335905 0 0 0 0.0336,0.187071 19.335905,19.335905 0 0 0 0.0357,0.187068 19.335905,19.335905 0 0 0 0.0377,0.18655 19.335905,19.335905 0 0 0 0.0393,0.186036 19.335905,19.335905 0 0 0 0.0413,0.185518 19.335905,19.335905 0 0 0 0.0429,0.185518 19.335905,19.335905 0 0 0 0.045,0.184486 19.335905,19.335905 0 0 0 0.0465,0.184483 19.335905,19.335905 0 0 0 0.0486,0.18397 19.335905,19.335905 0 0 0 0.0501,0.183452 19.335905,19.335905 0 0 0 0.0522,0.182933 19.335905,19.335905 0 0 0 0.0537,0.18242 19.335905,19.335905 0 0 0 0.0558,0.181901 19.335905,19.335905 0 0 0 0.0574,0.181382 19.335905,19.335905 0 0 0 0.0594,0.180869 19.335905,19.335905 0 0 0 0.061,0.179832 19.335905,19.335905 0 0 0 0.0625,0.179835 19.335905,19.335905 0 0 0 0.0646,0.1788 19.335905,19.335905 0 0 0 0.0662,0.178284 19.335905,19.335905 0 0 0 0.0682,0.17725 19.335905,19.335905 0 0 0 0.0698,0.177249 19.335905,19.335905 0 0 0 0.0713,0.176218 19.335905,19.335905 0 0 0 0.0734,0.175699 19.335905,19.335905 0 0 0 0.0749,0.174668 19.335905,19.335905 0 0 0 0.077,0.174149 19.335905,19.335905 0 0 0 0.078,0.173116 19.335905,19.335905 0 0 0 0.0801,0.172599 19.335905,19.335905 0 0 0 0.0822,0.171566 19.335905,19.335905 0 0 0 0.0832,0.171048 19.335905,19.335905 0 0 0 0.0853,0.170016 19.335905,19.335905 0 0 0 0.0868,0.168981 19.335905,19.335905 0 0 0 0.0884,0.168466 19.335905,19.335905 0 0 0 0.0899,0.167433 19.335905,19.335905 0 0 0 0.092,0.166913 19.335905,19.335905 0 0 0 0.0935,0.165364 19.335905,19.335905 0 0 0 0.0951,0.164849 19.335905,19.335905 0 0 0 0.0966,0.163814 19.335905,19.335905 0 0 0 0.0982,0.162782 19.335905,19.335905 0 0 0 0.0997,0.161748 19.335905,19.335905 0 0 0 0.10129,0.161229 19.335905,19.335905 0 0 0 0.10335,0.159682 19.335905,19.335905 0 0 0 0.10439,0.159162 19.335905,19.335905 0 0 0 0.10645,0.157613 19.335905,19.335905 0 0 0 0.10749,0.15658 19.335905,19.335905 0 0 0 0.10904,0.156062 19.335905,19.335905 0 0 0 0.1111,0.154514 19.335905,19.335905 0 0 0 0.11214,0.153477 19.335905,19.335905 0 0 0 0.11369,0.152447 19.335905,19.335905 0 0 0 0.11524,0.151411 19.335905,19.335905 0 0 0 0.11678,0.149863 19.335905,19.335905 0 0 0 0.11834,0.149344 19.335905,19.335905 0 0 0 0.11937,0.147793 19.335905,19.335905 0 0 0 0.12145,0.146246 19.335905,19.335905 0 0 0 0.12247,0.145727 19.335905,19.335905 0 0 0 0.12402,0.144177 19.335905,19.335905 0 0 0 0.12558,0.143145 19.335905,19.335905 0 0 0 0.1266,0.141592 19.335905,19.335905 0 0 0 0.12816,0.140559 19.335905,19.335905 0 0 0 0.12971,0.139013 19.335905,19.335905 0 0 0 0.13074,0.137974 19.335905,19.335905 0 0 0 0.13229,0.136944 19.335905,19.335905 0 0 0 0.13384,0.135392 19.335905,19.335905 0 0 0 0.13488,0.133842 19.335905,19.335905 0 0 0 0.13642,0.132808 19.335905,19.335905 0 0 0 0.13747,0.131257 19.335905,19.335905 0 0 0 0.13849,0.130225 19.335905,19.335905 0 0 0 0.14056,0.128156 19.335905,19.335905 0 0 0 0.14107,0.127643 19.335905,19.335905 0 0 0 0.14263,0.125574 19.335905,19.335905 0 0 0 0.14366,0.12454 19.335905,19.335905 0 0 0 0.14521,0.122989 19.335905,19.335905 0 0 0 0.14625,0.121441 19.335905,19.335905 0 0 0 0.14779,0.120406 19.335905,19.335905 0 0 0 0.14831,0.118338 19.335905,19.335905 0 0 0 0.14986,0.117305 19.335905,19.335905 0 0 0 0.1509,0.115756 19.335905,19.335905 0 0 0 0.15193,0.114204 19.335905,19.335905 0 0 0 0.15348,0.112655 19.335905,19.335905 0 0 0 0.15399,0.111622 19.335905,19.335905 0 0 0 0.15555,0.109554 19.335905,19.335905 0 0 0 0.15658,0.108002 19.335905,19.335905 0 0 0 0.15761,0.106971 19.335905,19.335905 0 0 0 0.15813,0.104902 19.335905,19.335905 0 0 0 0.15968,0.103355 19.335905,19.335905 0 0 0 0.16071,0.101801 19.335905,19.335905 0 0 0 0.16175,0.100769 19.335905,19.335905 0 0 0 0.16227,0.0987 19.335905,19.335905 0 0 0 0.16381,0.09715 19.335905,19.335905 0 0 0 0.16433,0.0956 19.335905,19.335905 0 0 0 0.16537,0.09353 19.335905,19.335905 0 0 0 0.16639,0.0925 19.335905,19.335905 0 0 0 0.16692,0.09043 19.335905,19.335905 0 0 0 0.16795,0.08888 19.335905,19.335905 0 0 0 0.16898,0.08733 19.335905,19.335905 0 0 0 0.17002,0.08578 19.335905,19.335905 0 0 0 0.17053,0.08423 19.335905,19.335905 0 0 0 0.17156,0.08217 19.335905,19.335905 0 0 0 0.17209,0.08062 19.335905,19.335905 0 0 0 0.17311,0.07906 19.335905,19.335905 0 0 0 0.17415,0.077 19.335905,19.335905 0 0 0 0.17415,0.07545 19.335905,19.335905 0 0 0 0.1757,0.0739 19.335905,19.335905 0 0 0 0.1757,0.07235 19.335905,19.335905 0 0 0 0.17673,0.07028 19.335905,19.335905 0 0 0 0.17777,0.06821 19.335905,19.335905 0 0 0 0.17777,0.06718 19.335905,19.335905 0 0 0 0.1788,0.06511 19.335905,19.335905 0 0 0 0.17932,0.06305 19.335905,19.335905 0 0 0 0.17983,0.0615 19.335905,19.335905 0 0 0 0.18087,0.05994 19.335905,19.335905 0 0 0 0.18086,0.05788 19.335905,19.335905 0 0 0 0.1819,0.05633 19.335905,19.335905 0 0 0 0.18242,0.05426 19.335905,19.335905 0 0 0 0.18242,0.05271 19.335905,19.335905 0 0 0 0.18345,0.05064 19.335905,19.335905 0 0 0 0.18397,0.04909 19.335905,19.335905 0 0 0 0.18397,0.04754 19.335905,19.335905 0 0 0 0.18448,0.04496 19.335905,19.335905 0 0 0 0.18552,0.04393 19.335905,19.335905 0 0 0 0.18552,0.04186 19.335905,19.335905 0 0 0 0.18604,0.03979 19.335905,19.335905 0 0 0 0.18603,0.03824 19.335905,19.335905 0 0 0 0.18707,0.03617 19.335905,19.335905 0 0 0 0.18707,0.03411 19.335905,19.335905 0 0 0 0.18707,0.03256 19.335905,19.335905 0 0 0 0.18758,0.031 19.335905,19.335905 0 0 0 0.1881,0.02894 19.335905,19.335905 0 0 0 0.18811,0.02687 19.335905,19.335905 0 0 0 0.18862,0.02532 19.335905,19.335905 0 0 0 0.18913,0.02325 19.335905,19.335905 0 0 0 0.18862,0.02119 19.335905,19.335905 0 0 0 0.18914,0.01964 19.335905,19.335905 0 0 0 0.18965,0.01809 19.335905,19.335905 0 0 0 0.18965,0.0155 19.335905,19.335905 0 0 0 0.18965,0.01447 19.335905,19.335905 0 0 0 0.18965,0.01188 19.335905,19.335905 0 0 0 0.18966,0.01034 19.335905,19.335905 0 0 0 0.19017,0.0083 19.335905,19.335905 0 0 0 0.19017,0.0067 19.335905,19.335905 0 0 0 0.19017,0.0047 19.335905,19.335905 0 0 0 0.19016,0.0026 19.335905,19.335905 0 0 0 0.19017,10e-4 19.335905,19.335905 0 0 0 0.13126,-5.18e-4 19.335905,19.335905 0 0 0 0.19017,-0.0021 19.335905,19.335905 0 0 0 0.19017,-0.0041 19.335905,19.335905 0 0 0 0.19017,-0.0057 19.335905,19.335905 0 0 0 0.19017,-0.0083 19.335905,19.335905 0 0 0 0.18965,-0.0093 19.335905,19.335905 0 0 0 0.19017,-0.01188 19.335905,19.335905 0 0 0 0.18965,-0.01344 19.335905,19.335905 0 0 0 0.18966,-0.01499 19.335905,19.335905 0 0 0 0.18913,-0.01757 19.335905,19.335905 0 0 0 0.18914,-0.01861 19.335905,19.335905 0 0 0 0.18913,-0.02119 19.335905,19.335905 0 0 0 0.18914,-0.02274 19.335905,19.335905 0 0 0 0.18862,-0.02481 19.335905,19.335905 0 0 0 0.1881,-0.02636 19.335905,19.335905 0 0 0 0.1881,-0.02791 19.335905,19.335905 0 0 0 0.18759,-0.03049 19.335905,19.335905 0 0 0 0.18758,-0.03204 19.335905,19.335905 0 0 0 0.18707,-0.03359 19.335905,19.335905 0 0 0 0.18707,-0.03566 19.335905,19.335905 0 0 0 0.18655,-0.03772 19.335905,19.335905 0 0 0 0.18604,-0.03927 19.335905,19.335905 0 0 0 0.18552,-0.04134 19.335905,19.335905 0 0 0 0.18551,-0.04289 19.335905,19.335905 0 0 0 0.18449,-0.04496 19.335905,19.335905 0 0 0 0.18448,-0.04651 19.335905,19.335905 0 0 0 0.18397,-0.04858 19.335905,19.335905 0 0 0 0.18345,-0.05013 19.335905,19.335905 0 0 0 0.18294,-0.05219 19.335905,19.335905 0 0 0 0.18242,-0.05374 19.335905,19.335905 0 0 0 0.1819,-0.05581 19.335905,19.335905 0 0 0 0.18138,-0.05736 19.335905,19.335905 0 0 0 0.18087,-0.05943 19.335905,19.335905 0 0 0 0.17983,-0.06098 19.335905,19.335905 0 0 0 0.17984,-0.06253 19.335905,19.335905 0 0 0 0.1788,-0.0646 19.335905,19.335905 0 0 0 0.17828,-0.06615 19.335905,19.335905 0 0 0 0.17777,-0.06821 19.335905,19.335905 0 0 0 0.17673,-0.06976 19.335905,19.335905 0 0 0 0.17622,-0.07131 19.335905,19.335905 0 0 0 0.1757,-0.07338 19.335905,19.335905 0 0 0 0.17466,-0.07493 19.335905,19.335905 0 0 0 0.17415,-0.077 19.335905,19.335905 0 0 0 0.17312,-0.07803 19.335905,19.335905 0 0 0 0.1726,-0.0801 19.335905,19.335905 0 0 0 0.17156,-0.08216 19.335905,19.335905 0 0 0 0.17105,-0.0832 19.335905,19.335905 0 0 0 0.17002,-0.08526 19.335905,19.335905 0 0 0 0.16898,-0.08682 19.335905,19.335905 0 0 0 0.16847,-0.08837 19.335905,19.335905 0 0 0 0.16743,-0.08992 19.335905,19.335905 0 0 0 0.16691,-0.09198 19.335905,19.335905 0 0 0 0.16537,-0.09354 19.335905,19.335905 0 0 0 0.16484,-0.09508 19.335905,19.335905 0 0 0 0.16382,-0.09664 19.335905,19.335905 0 0 0 0.16278,-0.09818 19.335905,19.335905 0 0 0 0.16175,-0.09973 19.335905,19.335905 0 0 0 0.16123,-0.101288 19.335905,19.335905 0 0 0 0.15968,-0.103351 19.335905,19.335905 0 0 0 0.15916,-0.104387 19.335905,19.335905 0 0 0 0.15761,-0.106455 19.335905,19.335905 0 0 0 0.15658,-0.107487 19.335905,19.335905 0 0 0 0.15607,-0.109037 19.335905,19.335905 0 0 0 0.15451,-0.111104 19.335905,19.335905 0 0 0 0.15348,-0.112138 19.335905,19.335905 0 0 0 0.15245,-0.113686 19.335905,19.335905 0 0 0 0.15141,-0.11524 19.335905,19.335905 0 0 0 0.14986,-0.116789 19.335905,19.335905 0 0 0 0.14934,-0.118338 19.335905,19.335905 0 0 0 0.1478,-0.119372 19.335905,19.335905 0 0 0 0.14624,-0.121441 19.335905,19.335905 0 0 0 0.14573,-0.122473 19.335905,19.335905 0 0 0 0.14418,-0.124024 19.335905,19.335905 0 0 0 0.14314,-0.125573 19.335905,19.335905 0 0 0 0.14159,-0.126606 19.335905,19.335905 0 0 0 0.14056,-0.128159 19.335905,19.335905 0 0 0 0.13901,-0.129707 19.335905,19.335905 0 0 0 0.13798,-0.130741 19.335905,19.335905 0 0 0 0.13694,-0.132292 19.335905,19.335905 0 0 0 0.13539,-0.133842 19.335905,19.335905 0 0 0 0.13385,-0.134876 19.335905,19.335905 0 0 0 0.1328,-0.136425 19.335905,19.335905 0 0 0 0.13126,-0.137461 19.335905,19.335905 0 0 0 0.13023,-0.138491 19.335905,19.335905 0 0 0 0.12815,-0.14056 19.335905,19.335905 0 0 0 0.12765,-0.141079 19.335905,19.335905 0 0 0 0.12557,-0.142626 19.335905,19.335905 0 0 0 0.12454,-0.143661 19.335905,19.335905 0 0 0 0.12299,-0.145211 19.335905,19.335905 0 0 0 0.12144,-0.146243 19.335905,19.335905 0 0 0 0.12041,-0.147794 19.335905,19.335905 0 0 0 0.11833,-0.148312 19.335905,19.335905 0 0 0 0.11731,-0.149863 19.335905,19.335905 0 0 0 0.11575,-0.150894 19.335905,19.335905 0 0 0 0.11421,-0.151929 19.335905,19.335905 0 0 0 0.11265,-0.15348 19.335905,19.335905 0 0 0 0.11163,-0.153995 19.335905,19.335905 0 0 0 0.10955,-0.155546 19.335905,19.335905 0 0 0 0.108,-0.15658 19.335905,19.335905 0 0 0 0.10697,-0.157613 19.335905,19.335905 0 0 0 0.10491,-0.158128 19.335905,19.335905 0 0 0 0.10335,-0.159681 19.335905,19.335905 0 0 0 0.1018,-0.160714 19.335905,19.335905 0 0 0 0.10077,-0.161747 19.335905,19.335905 0 0 0 0.0987,-0.162264 19.335905,19.335905 0 0 0 0.0971,-0.163814 19.335905,19.335905 0 0 0 0.0956,-0.164333 19.335905,19.335905 0 0 0 0.0935,-0.165364 19.335905,19.335905 0 0 0 0.0925,-0.166397 19.335905,19.335905 0 0 0 0.0904,-0.166915 19.335905,19.335905 0 0 0 0.0889,-0.167949 19.335905,19.335905 0 0 0 0.0873,-0.168982 19.335905,19.335905 0 0 0 0.0858,-0.170016 19.335905,19.335905 0 0 0 0.0842,-0.170532 19.335905,19.335905 0 0 0 0.0822,-0.171566 19.335905,19.335905 0 0 0 0.0806,-0.172082 19.335905,19.335905 0 0 0 0.0791,-0.173115 19.335905,19.335905 0 0 0 0.077,-0.174151 19.335905,19.335905 0 0 0 0.0754,-0.174149 19.335905,19.335905 0 0 0 0.0739,-0.175699 19.335905,19.335905 0 0 0 0.0724,-0.175699 19.335905,19.335905 0 0 0 0.0703,-0.176734 19.335905,19.335905 0 0 0 0.0682,-0.177768 19.335905,19.335905 0 0 0 0.0672,-0.177766 19.335905,19.335905 0 0 0 0.0651,-0.1788 19.335905,19.335905 0 0 0 0.0631,-0.179319 19.335905,19.335905 0 0 0 0.0615,-0.179834 19.335905,19.335905 0 0 0 0.0599,-0.180867 19.335905,19.335905 0 0 0 0.0579,-0.180866 19.335905,19.335905 0 0 0 0.0563,-0.181901 19.335905,19.335905 0 0 0 0.0543,-0.18242 19.335905,19.335905 0 0 0 0.0527,-0.182417 19.335905,19.335905 0 0 0 0.0506,-0.183451 19.335905,19.335905 0 0 0 0.0491,-0.183968 19.335905,19.335905 0 0 0 0.0475,-0.183967 19.335905,19.335905 0 0 0 0.045,-0.184486 19.335905,19.335905 0 0 0 0.0439,-0.185518 19.335905,19.335905 0 0 0 0.0419,-0.185518 19.335905,19.335905 0 0 0 0.0398,-0.186037 19.335905,19.335905 0 0 0 0.0382,-0.186033 19.335905,19.335905 0 0 0 0.0362,-0.187071 19.335905,19.335905 0 0 0 0.0341,-0.187069 19.335905,19.335905 0 0 0 0.0326,-0.187068 19.335905,19.335905 0 0 0 0.031,-0.187584 19.335905,19.335905 0 0 0 0.0289,-0.188103 19.335905,19.335905 0 0 0 0.0269,-0.188103 19.335905,19.335905 0 0 0 0.0253,-0.188619 19.335905,19.335905 0 0 0 0.0233,-0.189135 19.335905,19.335905 0 0 0 0.0212,-0.188619 19.335905,19.335905 0 0 0 0.0196,-0.189137 19.335905,19.335905 0 0 0 0.0181,-0.189651 19.335905,19.335905 0 0 0 0.0155,-0.189653 19.335905,19.335905 0 0 0 0.0145,-0.189653 19.335905,19.335905 0 0 0 0.0119,-0.189651 19.335905,19.335905 0 0 0 0.0103,-0.189653 19.335905,19.335905 0 0 0 0.008,-0.19017 19.335905,19.335905 0 0 0 0.007,-0.190169 19.335905,19.335905 0 0 0 0.005,-0.190169 19.335905,19.335905 0 0 0 0.003,-0.190169 19.335905,19.335905 0 0 0 0.001,-0.19017 19.335905,19.335905 0 0 0 -5.2e-4,-0.131257 19.335905,19.335905 0 0 0 -0.002,-0.190169 19.335905,19.335905 0 0 0 -0.004,-0.190169 19.335905,19.335905 0 0 0 -0.006,-0.19017 19.335905,19.335905 0 0 0 -0.008,-0.190169 19.335905,19.335905 0 0 0 -0.009,-0.189653 19.335905,19.335905 0 0 0 -0.0119,-0.190169 19.335905,19.335905 0 0 0 -0.0134,-0.189654 19.335905,19.335905 0 0 0 -0.015,-0.18965 19.335905,19.335905 0 0 0 -0.0176,-0.189138 19.335905,19.335905 0 0 0 -0.0186,-0.189135 19.335905,19.335905 0 0 0 -0.0212,-0.189137 19.335905,19.335905 0 0 0 -0.0227,-0.189135 19.335905,19.335905 0 0 0 -0.0243,-0.188619 19.335905,19.335905 0 0 0 -0.0269,-0.188102 19.335905,19.335905 0 0 0 -0.0279,-0.188103 19.335905,19.335905 0 0 0 -0.0305,-0.187585 19.335905,19.335905 0 0 0 -0.032,-0.187584 19.335905,19.335905 0 0 0 -0.0336,-0.187071 19.335905,19.335905 0 0 0 -0.0357,-0.187068 19.335905,19.335905 0 0 0 -0.0377,-0.18655 19.335905,19.335905 0 0 0 -0.0393,-0.186036 19.335905,19.335905 0 0 0 -0.0413,-0.185518 19.335905,19.335905 0 0 0 -0.0429,-0.185518 19.335905,19.335905 0 0 0 -0.045,-0.184486 19.335905,19.335905 0 0 0 -0.0465,-0.184485 19.335905,19.335905 0 0 0 -0.0486,-0.183968 19.335905,19.335905 0 0 0 -0.0501,-0.183451 19.335905,19.335905 0 0 0 -0.0522,-0.182935 19.335905,19.335905 0 0 0 -0.0537,-0.182418 19.335905,19.335905 0 0 0 -0.0558,-0.181901 19.335905,19.335905 0 0 0 -0.0574,-0.181384 19.335905,19.335905 0 0 0 -0.0594,-0.180867 19.335905,19.335905 0 0 0 -0.061,-0.179834 19.335905,19.335905 0 0 0 -0.0625,-0.179834 19.335905,19.335905 0 0 0 -0.0646,-0.178801 19.335905,19.335905 0 0 0 -0.0661,-0.178284 19.335905,19.335905 0 0 0 -0.0682,-0.177767 19.335905,19.335905 0 0 0 -0.0698,-0.176733 19.335905,19.335905 0 0 0 -0.0713,-0.176216 19.335905,19.335905 0 0 0 -0.0734,-0.1757 19.335905,19.335905 0 0 0 -0.0749,-0.174667 19.335905,19.335905 0 0 0 -0.077,-0.174149 19.335905,19.335905 0 0 0 -0.078,-0.173116 19.335905,19.335905 0 0 0 -0.0801,-0.172599 19.335905,19.335905 0 0 0 -0.0822,-0.171566 19.335905,19.335905 0 0 0 -0.0832,-0.171049 19.335905,19.335905 0 0 0 -0.0853,-0.170016 19.335905,19.335905 0 0 0 -0.0868,-0.168982 19.335905,19.335905 0 0 0 -0.0884,-0.168465 19.335905,19.335905 0 0 0 -0.0899,-0.167432 19.335905,19.335905 0 0 0 -0.092,-0.166914 19.335905,19.335905 0 0 0 -0.0935,-0.165365 19.335905,19.335905 0 0 0 -0.0951,-0.164848 19.335905,19.335905 0 0 0 -0.0966,-0.163814 19.335905,19.335905 0 0 0 -0.0982,-0.162781 19.335905,19.335905 0 0 0 -0.0997,-0.161747 19.335905,19.335905 0 0 0 -0.10129,-0.161274 19.335905,19.335905 0 0 0 -0.10335,-0.15968 19.335905,19.335905 0 0 0 -0.10438,-0.159163 19.335905,19.335905 0 0 0 -0.10646,-0.157613 19.335905,19.335905 0 0 0 -0.10748,-0.15658 19.335905,19.335905 0 0 0 -0.10904,-0.156063 19.335905,19.335905 0 0 0 -0.11111,-0.154512 19.335905,19.335905 0 0 0 -0.11213,-0.153479 19.335905,19.335905 0 0 0 -0.11369,-0.152446 19.335905,19.335905 0 0 0 -0.11524,-0.151412 19.335905,19.335905 0 0 0 -0.11679,-0.149861 19.335905,19.335905 0 0 0 -0.11834,-0.149345 19.335905,19.335905 0 0 0 -0.11937,-0.147795 19.335905,19.335905 0 0 0 -0.12144,-0.146244 19.335905,19.335905 0 0 0 -0.12247,-0.145728 19.335905,19.335905 0 0 0 -0.12403,-0.144177 19.335905,19.335905 0 0 0 -0.12557,-0.143143 19.335905,19.335905 0 0 0 -0.12661,-0.141594 19.335905,19.335905 0 0 0 -0.12816,-0.14056 19.335905,19.335905 0 0 0 -0.1297,-0.139009 19.335905,19.335905 0 0 0 -0.13074,-0.137976 19.335905,19.335905 0 0 0 -0.13229,-0.136943 19.335905,19.335905 0 0 0 -0.13385,-0.135392 19.335905,19.335905 0 0 0 -0.13487,-0.133842 19.335905,19.335905 0 0 0 -0.13643,-0.132809 19.335905,19.335905 0 0 0 -0.13746,-0.131258 19.335905,19.335905 0 0 0 -0.13849,-0.130224 19.335905,19.335905 0 0 0 -0.14056,-0.128158 19.335905,19.335905 0 0 0 -0.14108,-0.127641 19.335905,19.335905 0 0 0 -0.14263,-0.125573 19.335905,19.335905 0 0 0 -0.14366,-0.124541 19.335905,19.335905 0 0 0 -0.14521,-0.12299 19.335905,19.335905 0 0 0 -0.14624,-0.121439 19.335905,19.335905 0 0 0 -0.14779,-0.120406 19.335905,19.335905 0 0 0 -0.14832,-0.118339 19.335905,19.335905 0 0 0 -0.14986,-0.117306 19.335905,19.335905 0 0 0 -0.15089,-0.115755 19.335905,19.335905 0 0 0 -0.15193,-0.114205 19.335905,19.335905 0 0 0 -0.15348,-0.112654 19.335905,19.335905 0 0 0 -0.154,-0.111622 19.335905,19.335905 0 0 0 -0.15554,-0.109554 19.335905,19.335905 0 0 0 -0.15658,-0.108003 19.335905,19.335905 0 0 0 -0.15762,-0.106971 19.335905,19.335905 0 0 0 -0.15812,-0.104903 19.335905,19.335905 0 0 0 -0.15969,-0.103353 19.335905,19.335905 0 0 0 -0.16071,-0.101802 19.335905,19.335905 0 0 0 -0.16175,-0.100769 19.335905,19.335905 0 0 0 -0.16226,-0.0987 19.335905,19.335905 0 0 0 -0.1633,-0.09715 19.335905,19.335905 0 0 0 -0.16485,-0.0956 19.335905,19.335905 0 0 0 -0.16536,-0.09353 19.335905,19.335905 0 0 0 -0.1664,-0.0925 19.335905,19.335905 0 0 0 -0.16691,-0.09043 19.335905,19.335905 0 0 0 -0.16795,-0.08888 19.335905,19.335905 0 0 0 -0.16898,-0.08733 19.335905,19.335905 0 0 0 -0.17002,-0.08578 19.335905,19.335905 0 0 0 -0.17053,-0.08423 19.335905,19.335905 0 0 0 -0.17157,-0.08217 19.335905,19.335905 0 0 0 -0.17208,-0.08061 19.335905,19.335905 0 0 0 -0.17311,-0.07906 19.335905,19.335905 0 0 0 -0.17416,-0.077 19.335905,19.335905 0 0 0 -0.17415,-0.07545 19.335905,19.335905 0 0 0 -0.17569,-0.0739 19.335905,19.335905 0 0 0 -0.1757,-0.07235 19.335905,19.335905 0 0 0 -0.17674,-0.07028 19.335905,19.335905 0 0 0 -0.17777,-0.06821 19.335905,19.335905 0 0 0 -0.17776,-0.06718 19.335905,19.335905 0 0 0 -0.1788,-0.06511 19.335905,19.335905 0 0 0 -0.17932,-0.06305 19.335905,19.335905 0 0 0 -0.17983,-0.0615 19.335905,19.335905 0 0 0 -0.18087,-0.05994 19.335905,19.335905 0 0 0 -0.18087,-0.05788 19.335905,19.335905 0 0 0 -0.1819,-0.05633 19.335905,19.335905 0 0 0 -0.18242,-0.05426 19.335905,19.335905 0 0 0 -0.18242,-0.05271 19.335905,19.335905 0 0 0 -0.18345,-0.05064 19.335905,19.335905 0 0 0 -0.18396,-0.04909 19.335905,19.335905 0 0 0 -0.18397,-0.04754 19.335905,19.335905 0 0 0 -0.18449,-0.04496 19.335905,19.335905 0 0 0 -0.18552,-0.04393 19.335905,19.335905 0 0 0 -0.18551,-0.04186 19.335905,19.335905 0 0 0 -0.18604,-0.03979 19.335905,19.335905 0 0 0 -0.18603,-0.03824 19.335905,19.335905 0 0 0 -0.18707,-0.03617 19.335905,19.335905 0 0 0 -0.18707,-0.03411 19.335905,19.335905 0 0 0 -0.18707,-0.03256 19.335905,19.335905 0 0 0 -0.18759,-0.03101 19.335905,19.335905 0 0 0 -0.1881,-0.02894 19.335905,19.335905 0 0 0 -0.1881,-0.02687 19.335905,19.335905 0 0 0 -0.18862,-0.02532 19.335905,19.335905 0 0 0 -0.18913,-0.02325 19.335905,19.335905 0 0 0 -0.18862,-0.02119 19.335905,19.335905 0 0 0 -0.18914,-0.01964 19.335905,19.335905 0 0 0 -0.18965,-0.01809 19.335905,19.335905 0 0 0 -0.18966,-0.0155 19.335905,19.335905 0 0 0 -0.18965,-0.01447 19.335905,19.335905 0 0 0 -0.18965,-0.01188 19.335905,19.335905 0 0 0 -0.18965,-0.01034 19.335905,19.335905 0 0 0 -0.19017,-0.0083 19.335905,19.335905 0 0 0 -0.19017,-0.0067 19.335905,19.335905 0 0 0 -0.19017,-0.0047 19.335905,19.335905 0 0 0 -0.19017,-0.0026 19.335905,19.335905 0 0 0 -0.19017,-10e-4 z"
       style="fill:#000000;stroke-width:0;stroke-linejoin:round"
       id="path835" />
    <path
       transform="scale(0.26458333)"
       d="M 162.16797,40 A 77.500003,77.500003 0 0 0 85,117.5 77.500003,77.500003 0 0 0 162.5,195 77.500003,77.500003 0 0 0 240,117.5 77.500003,77.500003 0 0 0 162.5,40 77.500003,77.500003 0 0 0 162.16797,40 Z M 162.5,44.419922 a 73.080586,73.080586 0 0 1 0.71875,0.0039 73.080586,73.080586 0 0 1 0.71875,0.0098 73.080586,73.080586 0 0 1 0.71875,0.01758 73.080586,73.080586 0 0 1 0.71875,0.02539 73.080586,73.080586 0 0 1 0.71875,0.03125 73.080586,73.080586 0 0 1 0.7168,0.03906 73.080586,73.080586 0 0 1 0.71679,0.04492 73.080586,73.080586 0 0 1 0.7168,0.05469 73.080586,73.080586 0 0 1 0.7168,0.05859 73.080586,73.080586 0 0 1 0.71679,0.06836 73.080586,73.080586 0 0 1 0.71485,0.07422 73.080586,73.080586 0 0 1 0.71289,0.08008 73.080586,73.080586 0 0 1 0.71484,0.08789 73.080586,73.080586 0 0 1 0.71289,0.0957 73.080586,73.080586 0 0 1 0.71094,0.101563 73.080586,73.080586 0 0 1 0.71094,0.109375 73.080586,73.080586 0 0 1 0.70898,0.117187 73.080586,73.080586 0 0 1 0.70703,0.123047 73.080586,73.080586 0 0 1 0.70703,0.128906 73.080586,73.080586 0 0 1 0.70704,0.136719 73.080586,73.080586 0 0 1 0.70312,0.144531 73.080586,73.080586 0 0 1 0.70313,0.150391 73.080586,73.080586 0 0 1 0.70117,0.158203 73.080586,73.080586 0 0 1 0.70117,0.166016 73.080586,73.080586 0 0 1 0.69727,0.169922 73.080586,73.080586 0 0 1 0.69531,0.179687 73.080586,73.080586 0 0 1 0.69531,0.185547 73.080586,73.080586 0 0 1 0.69336,0.191406 73.080586,73.080586 0 0 1 0.68945,0.199219 73.080586,73.080586 0 0 1 0.68946,0.205078 73.080586,73.080586 0 0 1 0.6875,0.212891 73.080586,73.080586 0 0 1 0.68359,0.21875 73.080586,73.080586 0 0 1 0.68359,0.226562 73.080586,73.080586 0 0 1 0.67969,0.232422 73.080586,73.080586 0 0 1 0.67774,0.238281 73.080586,73.080586 0 0 1 0.67578,0.246094 73.080586,73.080586 0 0 1 0.67187,0.253906 73.080586,73.080586 0 0 1 0.67188,0.257813 73.080586,73.080586 0 0 1 0.66797,0.265625 73.080586,73.080586 0 0 1 0.66406,0.273437 73.080586,73.080586 0 0 1 0.66406,0.279297 73.080586,73.080586 0 0 1 0.6582,0.285156 73.080586,73.080586 0 0 1 0.65821,0.291016 73.080586,73.080586 0 0 1 0.65429,0.298828 73.080586,73.080586 0 0 1 0.65039,0.304688 73.080586,73.080586 0 0 1 0.64844,0.310547 73.080586,73.080586 0 0 1 0.64453,0.318359 73.080586,73.080586 0 0 1 0.64258,0.324219 73.080586,73.080586 0 0 1 0.63867,0.330078 73.080586,73.080586 0 0 1 0.63477,0.335937 73.080586,73.080586 0 0 1 0.63086,0.341797 73.080586,73.080586 0 0 1 0.6289,0.34961 73.080586,73.080586 0 0 1 0.625,0.353515 73.080586,73.080586 0 0 1 0.62305,0.361328 73.080586,73.080586 0 0 1 0.61719,0.367188 73.080586,73.080586 0 0 1 0.61328,0.373047 73.080586,73.080586 0 0 1 0.61133,0.380859 73.080586,73.080586 0 0 1 0.60742,0.384766 73.080586,73.080586 0 0 1 0.60352,0.390625 73.080586,73.080586 0 0 1 0.59765,0.396484 73.080586,73.080586 0 0 1 0.5957,0.404297 73.080586,73.080586 0 0 1 0.5918,0.408203 73.080586,73.080586 0 0 1 0.58789,0.414062 73.080586,73.080586 0 0 1 0.58203,0.421876 73.080586,73.080586 0 0 1 0.58008,0.425781 73.080586,73.080586 0 0 1 0.57422,0.43164 73.080586,73.080586 0 0 1 0.57031,0.4375 73.080586,73.080586 0 0 1 0.56641,0.44336 73.080586,73.080586 0 0 1 0.56055,0.447265 73.080586,73.080586 0 0 1 0.55859,0.455078 73.080586,73.080586 0 0 1 0.55273,0.458985 73.080586,73.080586 0 0 1 0.54883,0.464844 73.080586,73.080586 0 0 1 0.54297,0.470703 73.080586,73.080586 0 0 1 0.53906,0.474609 73.080586,73.080586 0 0 1 0.53321,0.482422 73.080586,73.080586 0 0 1 0.53125,0.484375 73.080586,73.080586 0 0 1 0.52343,0.492188 73.080586,73.080586 0 0 1 0.51954,0.496093 73.080586,73.080586 0 0 1 0.51562,0.501953 73.080586,73.080586 0 0 1 0.50977,0.50586 73.080586,73.080586 0 0 1 0.50586,0.511718 73.080586,73.080586 0 0 1 0.5,0.517579 73.080586,73.080586 0 0 1 0.49414,0.521484 73.080586,73.080586 0 0 1 0.49023,0.525391 73.080586,73.080586 0 0 1 0.48438,0.53125 73.080586,73.080586 0 0 1 0.47851,0.535156 73.080586,73.080586 0 0 1 0.47461,0.541016 73.080586,73.080586 0 0 1 0.46875,0.544921 73.080586,73.080586 0 0 1 0.46289,0.550782 73.080586,73.080586 0 0 1 0.45899,0.552734 73.080586,73.080586 0 0 1 0.45117,0.558594 73.080586,73.080586 0 0 1 0.44726,0.564453 73.080586,73.080586 0 0 1 0.44141,0.566406 73.080586,73.080586 0 0 1 0.43555,0.572266 73.080586,73.080586 0 0 1 0.42968,0.576172 73.080586,73.080586 0 0 1 0.42383,0.580078 73.080586,73.080586 0 0 1 0.41992,0.583984 73.080586,73.080586 0 0 1 0.41211,0.589844 73.080586,73.080586 0 0 1 0.40625,0.591797 73.080586,73.080586 0 0 1 0.40235,0.595703 73.080586,73.080586 0 0 1 0.39453,0.601562 73.080586,73.080586 0 0 1 0.39062,0.603516 73.080586,73.080586 0 0 1 0.38282,0.609375 73.080586,73.080586 0 0 1 0.37695,0.611328 73.080586,73.080586 0 0 1 0.37109,0.615235 73.080586,73.080586 0 0 1 0.36524,0.61914 73.080586,73.080586 0 0 1 0.35937,0.623047 73.080586,73.080586 0 0 1 0.35352,0.625 73.080586,73.080586 0 0 1 0.34765,0.630859 73.080586,73.080586 0 0 1 0.33985,0.632813 73.080586,73.080586 0 0 1 0.33398,0.636719 73.080586,73.080586 0 0 1 0.32813,0.638672 73.080586,73.080586 0 0 1 0.32226,0.642578 73.080586,73.080586 0 0 1 0.31446,0.646484 73.080586,73.080586 0 0 1 0.31054,0.648438 73.080586,73.080586 0 0 1 0.30274,0.652343 73.080586,73.080586 0 0 1 0.29492,0.654297 73.080586,73.080586 0 0 1 0.29101,0.658203 73.080586,73.080586 0 0 1 0.28321,0.660157 73.080586,73.080586 0 0 1 0.27734,0.664062 73.080586,73.080586 0 0 1 0.26953,0.666016 73.080586,73.080586 0 0 1 0.26367,0.667968 73.080586,73.080586 0 0 1 0.25782,0.671875 73.080586,73.080586 0 0 1 0.25,0.673829 73.080586,73.080586 0 0 1 0.24414,0.675781 73.080586,73.080586 0 0 1 0.23633,0.679687 73.080586,73.080586 0 0 1 0.23046,0.679688 73.080586,73.080586 0 0 1 0.22461,0.683594 73.080586,73.080586 0 0 1 0.2168,0.685546 73.080586,73.080586 0 0 1 0.21094,0.6875 73.080586,73.080586 0 0 1 0.20312,0.689454 73.080586,73.080586 0 0 1 0.19727,0.691406 73.080586,73.080586 0 0 1 0.18945,0.693359 73.080586,73.080586 0 0 1 0.1836,0.695313 73.080586,73.080586 0 0 1 0.17578,0.697265 73.080586,73.080586 0 0 1 0.16992,0.697265 73.080586,73.080586 0 0 1 0.16211,0.70117 73.080586,73.080586 0 0 1 0.15625,0.70117 73.080586,73.080586 0 0 1 0.14844,0.70313 73.080586,73.080586 0 0 1 0.14257,0.70507 73.080586,73.080586 0 0 1 0.13477,0.70703 73.080586,73.080586 0 0 1 0.12695,0.70704 73.080586,73.080586 0 0 1 0.1211,0.70898 73.080586,73.080586 0 0 1 0.11523,0.70898 73.080586,73.080586 0 0 1 0.10547,0.71094 73.080586,73.080586 0 0 1 0.10156,0.71094 73.080586,73.080586 0 0 1 0.0918,0.71289 73.080586,73.080586 0 0 1 0.0859,0.71484 73.080586,73.080586 0 0 1 0.0801,0.71485 73.080586,73.080586 0 0 1 0.0703,0.71484 73.080586,73.080586 0 0 1 0.0664,0.71485 73.080586,73.080586 0 0 1 0.0566,0.71679 73.080586,73.080586 0 0 1 0.0508,0.7168 73.080586,73.080586 0 0 1 0.0449,0.71875 73.080586,73.080586 0 0 1 0.0351,0.7168 73.080586,73.080586 0 0 1 0.0312,0.71875 73.080586,73.080586 0 0 1 0.0215,0.71875 73.080586,73.080586 0 0 1 0.0156,0.71875 73.080586,73.080586 0 0 1 0.008,0.71875 73.080586,73.080586 0 0 1 0.002,0.49609 73.080586,73.080586 0 0 1 -0.004,0.71875 73.080586,73.080586 0 0 1 -0.01,0.71875 73.080586,73.080586 0 0 1 -0.0176,0.71875 73.080586,73.080586 0 0 1 -0.0254,0.71875 73.080586,73.080586 0 0 1 -0.0312,0.71875 73.080586,73.080586 0 0 1 -0.0391,0.7168 73.080586,73.080586 0 0 1 -0.0449,0.71679 73.080586,73.080586 0 0 1 -0.0547,0.7168 73.080586,73.080586 0 0 1 -0.0586,0.7168 73.080586,73.080586 0 0 1 -0.0684,0.71679 73.080586,73.080586 0 0 1 -0.0742,0.71485 73.080586,73.080586 0 0 1 -0.0801,0.71289 73.080586,73.080586 0 0 1 -0.0879,0.71484 73.080586,73.080586 0 0 1 -0.0957,0.71289 73.080586,73.080586 0 0 1 -0.10156,0.71094 73.080586,73.080586 0 0 1 -0.10938,0.71094 73.080586,73.080586 0 0 1 -0.11718,0.70898 73.080586,73.080586 0 0 1 -0.12305,0.70703 73.080586,73.080586 0 0 1 -0.12891,0.70703 73.080586,73.080586 0 0 1 -0.13671,0.70704 73.080586,73.080586 0 0 1 -0.14454,0.70312 73.080586,73.080586 0 0 1 -0.15039,0.70313 73.080586,73.080586 0 0 1 -0.1582,0.70117 73.080586,73.080586 0 0 1 -0.16602,0.70117 73.080586,73.080586 0 0 1 -0.16992,0.69727 73.080586,73.080586 0 0 1 -0.17969,0.69531 73.080586,73.080586 0 0 1 -0.18554,0.69531 73.080586,73.080586 0 0 1 -0.19141,0.69336 73.080586,73.080586 0 0 1 -0.19922,0.68945 73.080586,73.080586 0 0 1 -0.20507,0.68946 73.080586,73.080586 0 0 1 -0.2129,0.6875 73.080586,73.080586 0 0 1 -0.21875,0.68359 73.080586,73.080586 0 0 1 -0.22656,0.68359 73.080586,73.080586 0 0 1 -0.23242,0.67969 73.080586,73.080586 0 0 1 -0.23828,0.67774 73.080586,73.080586 0 0 1 -0.24609,0.67578 73.080586,73.080586 0 0 1 -0.25391,0.67187 73.080586,73.080586 0 0 1 -0.25781,0.67188 73.080586,73.080586 0 0 1 -0.26563,0.66797 73.080586,73.080586 0 0 1 -0.27344,0.66406 73.080586,73.080586 0 0 1 -0.27929,0.66406 73.080586,73.080586 0 0 1 -0.28516,0.6582 73.080586,73.080586 0 0 1 -0.29102,0.65821 73.080586,73.080586 0 0 1 -0.29882,0.65429 73.080586,73.080586 0 0 1 -0.30469,0.65039 73.080586,73.080586 0 0 1 -0.31055,0.64844 73.080586,73.080586 0 0 1 -0.31836,0.64453 73.080586,73.080586 0 0 1 -0.32422,0.64258 73.080586,73.080586 0 0 1 -0.33007,0.63867 73.080586,73.080586 0 0 1 -0.33594,0.63477 73.080586,73.080586 0 0 1 -0.3418,0.63086 73.080586,73.080586 0 0 1 -0.34961,0.6289 73.080586,73.080586 0 0 1 -0.35351,0.625 73.080586,73.080586 0 0 1 -0.36133,0.6211 73.080586,73.080586 0 0 1 -0.36719,0.61914 73.080586,73.080586 0 0 1 -0.37305,0.61328 73.080586,73.080586 0 0 1 -0.38086,0.61133 73.080586,73.080586 0 0 1 -0.38476,0.60742 73.080586,73.080586 0 0 1 -0.39063,0.60352 73.080586,73.080586 0 0 1 -0.39648,0.59765 73.080586,73.080586 0 0 1 -0.4043,0.5957 73.080586,73.080586 0 0 1 -0.4082,0.5918 73.080586,73.080586 0 0 1 -0.41406,0.58789 73.080586,73.080586 0 0 1 -0.42188,0.58203 73.080586,73.080586 0 0 1 -0.42578,0.58008 73.080586,73.080586 0 0 1 -0.43164,0.57422 73.080586,73.080586 0 0 1 -0.4375,0.57031 73.080586,73.080586 0 0 1 -0.44336,0.56641 73.080586,73.080586 0 0 1 -0.44726,0.56055 73.080586,73.080586 0 0 1 -0.45508,0.55859 73.080586,73.080586 0 0 1 -0.45899,0.55273 73.080586,73.080586 0 0 1 -0.46484,0.54883 73.080586,73.080586 0 0 1 -0.4707,0.54297 73.080586,73.080586 0 0 1 -0.47461,0.53906 73.080586,73.080586 0 0 1 -0.48243,0.53321 73.080586,73.080586 0 0 1 -0.48437,0.53125 73.080586,73.080586 0 0 1 -0.49219,0.52343 73.080586,73.080586 0 0 1 -0.49609,0.51954 73.080586,73.080586 0 0 1 -0.50195,0.51562 73.080586,73.080586 0 0 1 -0.50586,0.50977 73.080586,73.080586 0 0 1 -0.51172,0.50586 73.080586,73.080586 0 0 1 -0.51758,0.5 73.080586,73.080586 0 0 1 -0.52148,0.49414 73.080586,73.080586 0 0 1 -0.5254,0.49023 73.080586,73.080586 0 0 1 -0.53125,0.48438 73.080586,73.080586 0 0 1 -0.53515,0.47851 73.080586,73.080586 0 0 1 -0.54102,0.47461 73.080586,73.080586 0 0 1 -0.54492,0.46875 73.080586,73.080586 0 0 1 -0.55078,0.46289 73.080586,73.080586 0 0 1 -0.55274,0.45899 73.080586,73.080586 0 0 1 -0.55859,0.45117 73.080586,73.080586 0 0 1 -0.56445,0.44726 73.080586,73.080586 0 0 1 -0.56641,0.44141 73.080586,73.080586 0 0 1 -0.57226,0.43555 73.080586,73.080586 0 0 1 -0.57618,0.42968 73.080586,73.080586 0 0 1 -0.58007,0.42383 73.080586,73.080586 0 0 1 -0.58399,0.41992 73.080586,73.080586 0 0 1 -0.58984,0.41211 73.080586,73.080586 0 0 1 -0.5918,0.40625 73.080586,73.080586 0 0 1 -0.5957,0.40235 73.080586,73.080586 0 0 1 -0.60156,0.39453 73.080586,73.080586 0 0 1 -0.60352,0.39062 73.080586,73.080586 0 0 1 -0.60937,0.38282 73.080586,73.080586 0 0 1 -0.61133,0.37695 73.080586,73.080586 0 0 1 -0.61524,0.37109 73.080586,73.080586 0 0 1 -0.61914,0.36524 73.080586,73.080586 0 0 1 -0.62305,0.35937 73.080586,73.080586 0 0 1 -0.625,0.35352 73.080586,73.080586 0 0 1 -0.63085,0.34765 73.080586,73.080586 0 0 1 -0.63282,0.33985 73.080586,73.080586 0 0 1 -0.63672,0.33398 73.080586,73.080586 0 0 1 -0.63867,0.32813 73.080586,73.080586 0 0 1 -0.64258,0.32226 73.080586,73.080586 0 0 1 -0.64648,0.31446 73.080586,73.080586 0 0 1 -0.64844,0.31054 73.080586,73.080586 0 0 1 -0.65234,0.30274 73.080586,73.080586 0 0 1 -0.6543,0.29492 73.080586,73.080586 0 0 1 -0.6582,0.29101 73.080586,73.080586 0 0 1 -0.66016,0.28321 73.080586,73.080586 0 0 1 -0.66406,0.27734 73.080586,73.080586 0 0 1 -0.66602,0.26953 73.080586,73.080586 0 0 1 -0.66796,0.26367 73.080586,73.080586 0 0 1 -0.67188,0.25782 73.080586,73.080586 0 0 1 -0.67383,0.25 73.080586,73.080586 0 0 1 -0.67578,0.24414 73.080586,73.080586 0 0 1 -0.67969,0.23633 73.080586,73.080586 0 0 1 -0.67968,0.23046 73.080586,73.080586 0 0 1 -0.6836,0.22461 73.080586,73.080586 0 0 1 -0.68554,0.2168 73.080586,73.080586 0 0 1 -0.6875,0.21094 73.080586,73.080586 0 0 1 -0.68946,0.20312 73.080586,73.080586 0 0 1 -0.6914,0.19727 73.080586,73.080586 0 0 1 -0.69336,0.18945 73.080586,73.080586 0 0 1 -0.69532,0.1836 73.080586,73.080586 0 0 1 -0.69726,0.17578 73.080586,73.080586 0 0 1 -0.69727,0.16992 73.080586,73.080586 0 0 1 -0.70117,0.16211 73.080586,73.080586 0 0 1 -0.70117,0.15625 73.080586,73.080586 0 0 1 -0.70313,0.14844 73.080586,73.080586 0 0 1 -0.70507,0.14257 73.080586,73.080586 0 0 1 -0.70703,0.13477 73.080586,73.080586 0 0 1 -0.70704,0.12695 73.080586,73.080586 0 0 1 -0.70898,0.1211 73.080586,73.080586 0 0 1 -0.70898,0.11523 73.080586,73.080586 0 0 1 -0.71094,0.10547 73.080586,73.080586 0 0 1 -0.71094,0.0996 73.080586,73.080586 0 0 1 -0.71289,0.0937 73.080586,73.080586 0 0 1 -0.71484,0.0859 73.080586,73.080586 0 0 1 -0.71485,0.0801 73.080586,73.080586 0 0 1 -0.71484,0.0703 73.080586,73.080586 0 0 1 -0.71485,0.0664 73.080586,73.080586 0 0 1 -0.71679,0.0566 73.080586,73.080586 0 0 1 -0.7168,0.0508 73.080586,73.080586 0 0 1 -0.71875,0.0449 73.080586,73.080586 0 0 1 -0.7168,0.0351 73.080586,73.080586 0 0 1 -0.71875,0.0312 73.080586,73.080586 0 0 1 -0.71875,0.0215 73.080586,73.080586 0 0 1 -0.71875,0.0156 73.080586,73.080586 0 0 1 -0.71875,0.008 73.080586,73.080586 0 0 1 -0.49609,0.002 73.080586,73.080586 0 0 1 -0.71875,-0.004 73.080586,73.080586 0 0 1 -0.71875,-0.01 73.080586,73.080586 0 0 1 -0.71875,-0.0176 73.080586,73.080586 0 0 1 -0.71875,-0.0254 73.080586,73.080586 0 0 1 -0.71875,-0.0312 73.080586,73.080586 0 0 1 -0.7168,-0.0391 73.080586,73.080586 0 0 1 -0.71679,-0.0449 73.080586,73.080586 0 0 1 -0.7168,-0.0547 73.080586,73.080586 0 0 1 -0.7168,-0.0586 73.080586,73.080586 0 0 1 -0.71679,-0.0684 73.080586,73.080586 0 0 1 -0.71485,-0.0742 73.080586,73.080586 0 0 1 -0.71289,-0.0801 73.080586,73.080586 0 0 1 -0.71484,-0.0879 73.080586,73.080586 0 0 1 -0.71289,-0.0957 73.080586,73.080586 0 0 1 -0.71094,-0.10156 73.080586,73.080586 0 0 1 -0.71094,-0.10938 73.080586,73.080586 0 0 1 -0.70898,-0.11718 73.080586,73.080586 0 0 1 -0.70703,-0.12305 73.080586,73.080586 0 0 1 -0.70703,-0.12891 73.080586,73.080586 0 0 1 -0.70704,-0.13671 73.080586,73.080586 0 0 1 -0.70312,-0.14454 73.080586,73.080586 0 0 1 -0.70313,-0.15039 73.080586,73.080586 0 0 1 -0.70117,-0.1582 73.080586,73.080586 0 0 1 -0.70117,-0.16602 73.080586,73.080586 0 0 1 -0.69727,-0.16992 73.080586,73.080586 0 0 1 -0.69531,-0.17969 73.080586,73.080586 0 0 1 -0.69531,-0.18554 73.080586,73.080586 0 0 1 -0.69336,-0.19141 73.080586,73.080586 0 0 1 -0.68945,-0.19922 73.080586,73.080586 0 0 1 -0.68946,-0.20507 73.080586,73.080586 0 0 1 -0.6875,-0.2129 73.080586,73.080586 0 0 1 -0.68359,-0.21875 73.080586,73.080586 0 0 1 -0.68359,-0.22656 73.080586,73.080586 0 0 1 -0.67969,-0.23242 73.080586,73.080586 0 0 1 -0.67774,-0.23828 73.080586,73.080586 0 0 1 -0.67578,-0.24609 73.080586,73.080586 0 0 1 -0.67187,-0.25391 73.080586,73.080586 0 0 1 -0.67188,-0.25781 73.080586,73.080586 0 0 1 -0.66797,-0.26563 73.080586,73.080586 0 0 1 -0.66406,-0.27344 73.080586,73.080586 0 0 1 -0.66406,-0.27929 73.080586,73.080586 0 0 1 -0.6582,-0.28516 73.080586,73.080586 0 0 1 -0.65821,-0.29102 73.080586,73.080586 0 0 1 -0.65429,-0.29882 73.080586,73.080586 0 0 1 -0.65039,-0.30469 73.080586,73.080586 0 0 1 -0.64844,-0.31055 73.080586,73.080586 0 0 1 -0.64453,-0.31836 73.080586,73.080586 0 0 1 -0.64258,-0.32422 73.080586,73.080586 0 0 1 -0.63867,-0.33007 73.080586,73.080586 0 0 1 -0.63477,-0.33594 73.080586,73.080586 0 0 1 -0.63086,-0.3418 73.080586,73.080586 0 0 1 -0.6289,-0.34961 73.080586,73.080586 0 0 1 -0.625,-0.35351 73.080586,73.080586 0 0 1 -0.6211,-0.36133 73.080586,73.080586 0 0 1 -0.61914,-0.36719 73.080586,73.080586 0 0 1 -0.61328,-0.37305 73.080586,73.080586 0 0 1 -0.61133,-0.38086 73.080586,73.080586 0 0 1 -0.60742,-0.38476 73.080586,73.080586 0 0 1 -0.60352,-0.39063 73.080586,73.080586 0 0 1 -0.59765,-0.39648 73.080586,73.080586 0 0 1 -0.5957,-0.4043 73.080586,73.080586 0 0 1 -0.5918,-0.4082 73.080586,73.080586 0 0 1 -0.58789,-0.41406 73.080586,73.080586 0 0 1 -0.58203,-0.42188 73.080586,73.080586 0 0 1 -0.58008,-0.42578 73.080586,73.080586 0 0 1 -0.57422,-0.43164 73.080586,73.080586 0 0 1 -0.57031,-0.4375 73.080586,73.080586 0 0 1 -0.56641,-0.44336 73.080586,73.080586 0 0 1 -0.56055,-0.44726 73.080586,73.080586 0 0 1 -0.55859,-0.45508 73.080586,73.080586 0 0 1 -0.55273,-0.45899 73.080586,73.080586 0 0 1 -0.54883,-0.46484 73.080586,73.080586 0 0 1 -0.54297,-0.4707 73.080586,73.080586 0 0 1 -0.53906,-0.47461 73.080586,73.080586 0 0 1 -0.53321,-0.48243 73.080586,73.080586 0 0 1 -0.53125,-0.48437 73.080586,73.080586 0 0 1 -0.52343,-0.49219 73.080586,73.080586 0 0 1 -0.51954,-0.49609 73.080586,73.080586 0 0 1 -0.51562,-0.50195 73.080586,73.080586 0 0 1 -0.50977,-0.50586 73.080586,73.080586 0 0 1 -0.50586,-0.51172 73.080586,73.080586 0 0 1 -0.5,-0.51758 73.080586,73.080586 0 0 1 -0.49414,-0.52148 73.080586,73.080586 0 0 1 -0.49023,-0.5254 73.080586,73.080586 0 0 1 -0.48438,-0.53125 73.080586,73.080586 0 0 1 -0.47851,-0.53515 73.080586,73.080586 0 0 1 -0.47461,-0.54102 73.080586,73.080586 0 0 1 -0.46875,-0.54492 73.080586,73.080586 0 0 1 -0.46289,-0.55078 73.080586,73.080586 0 0 1 -0.45899,-0.55274 73.080586,73.080586 0 0 1 -0.45117,-0.55859 73.080586,73.080586 0 0 1 -0.44726,-0.56445 73.080586,73.080586 0 0 1 -0.44141,-0.56641 73.080586,73.080586 0 0 1 -0.43555,-0.57226 73.080586,73.080586 0 0 1 -0.42968,-0.57618 73.080586,73.080586 0 0 1 -0.42383,-0.58007 73.080586,73.080586 0 0 1 -0.41992,-0.58399 73.080586,73.080586 0 0 1 -0.41211,-0.58984 73.080586,73.080586 0 0 1 -0.40625,-0.5918 73.080586,73.080586 0 0 1 -0.40235,-0.5957 73.080586,73.080586 0 0 1 -0.39453,-0.60156 73.080586,73.080586 0 0 1 -0.39062,-0.60352 73.080586,73.080586 0 0 1 -0.38282,-0.60937 73.080586,73.080586 0 0 1 -0.37695,-0.61133 73.080586,73.080586 0 0 1 -0.371092,-0.61524 73.080586,73.080586 0 0 1 -0.365235,-0.61914 73.080586,73.080586 0 0 1 -0.359375,-0.62305 73.080586,73.080586 0 0 1 -0.353516,-0.625 73.080586,73.080586 0 0 1 -0.347656,-0.63085 73.080586,73.080586 0 0 1 -0.339844,-0.63282 73.080586,73.080586 0 0 1 -0.333984,-0.63672 73.080586,73.080586 0 0 1 -0.328125,-0.63867 73.080586,73.080586 0 0 1 -0.322265,-0.64258 73.080586,73.080586 0 0 1 -0.314454,-0.64648 73.080586,73.080586 0 0 1 -0.310546,-0.64844 73.080586,73.080586 0 0 1 -0.302735,-0.65234 73.080586,73.080586 0 0 1 -0.294922,-0.6543 73.080586,73.080586 0 0 1 -0.291015,-0.6582 73.080586,73.080586 0 0 1 -0.283204,-0.66016 73.080586,73.080586 0 0 1 -0.277343,-0.66406 73.080586,73.080586 0 0 1 -0.269531,-0.66602 73.080586,73.080586 0 0 1 -0.263672,-0.66992 73.080586,73.080586 0 0 1 -0.257813,-0.66992 73.080586,73.080586 0 0 1 -0.25,-0.67383 73.080586,73.080586 0 0 1 -0.244141,-0.67578 73.080586,73.080586 0 0 1 -0.236328,-0.67969 73.080586,73.080586 0 0 1 -0.230468,-0.67968 73.080586,73.080586 0 0 1 -0.22461,-0.6836 73.080586,73.080586 0 0 1 -0.216797,-0.68554 73.080586,73.080586 0 0 1 -0.210937,-0.6875 73.080586,73.080586 0 0 1 -0.203125,-0.68946 73.080586,73.080586 0 0 1 -0.197266,-0.6914 73.080586,73.080586 0 0 1 -0.189453,-0.69336 73.080586,73.080586 0 0 1 -0.183594,-0.69532 73.080586,73.080586 0 0 1 -0.175781,-0.69726 73.080586,73.080586 0 0 1 -0.169922,-0.69727 73.080586,73.080586 0 0 1 -0.162109,-0.70117 73.080586,73.080586 0 0 1 -0.15625,-0.70117 73.080586,73.080586 0 0 1 -0.148438,-0.70313 73.080586,73.080586 0 0 1 -0.142578,-0.70507 73.080586,73.080586 0 0 1 -0.134765,-0.70703 73.080586,73.080586 0 0 1 -0.126953,-0.70704 73.080586,73.080586 0 0 1 -0.121094,-0.70898 73.080586,73.080586 0 0 1 -0.115235,-0.70898 73.080586,73.080586 0 0 1 -0.105468,-0.71094 73.080586,73.080586 0 0 1 -0.09961,-0.71094 73.080586,73.080586 0 0 1 -0.09375,-0.71289 73.080586,73.080586 0 0 1 -0.08594,-0.71484 73.080586,73.080586 0 0 1 -0.08008,-0.71485 73.080586,73.080586 0 0 1 -0.07031,-0.71484 73.080586,73.080586 0 0 1 -0.06641,-0.71485 73.080586,73.080586 0 0 1 -0.05664,-0.71679 73.080586,73.080586 0 0 1 -0.05078,-0.7168 73.080586,73.080586 0 0 1 -0.04492,-0.71875 73.080586,73.080586 0 0 1 -0.03516,-0.7168 73.080586,73.080586 0 0 1 -0.03125,-0.71875 73.080586,73.080586 0 0 1 -0.02148,-0.71875 73.080586,73.080586 0 0 1 -0.01562,-0.71875 73.080586,73.080586 0 0 1 -0.0078,-0.71875 73.080586,73.080586 0 0 1 -0.002,-0.49609 73.080586,73.080586 0 0 1 0.0039,-0.71875 73.080586,73.080586 0 0 1 0.0098,-0.71875 73.080586,73.080586 0 0 1 0.01758,-0.71875 73.080586,73.080586 0 0 1 0.02539,-0.71875 73.080586,73.080586 0 0 1 0.03125,-0.71875 73.080586,73.080586 0 0 1 0.03906,-0.7168 73.080586,73.080586 0 0 1 0.04492,-0.71679 73.080586,73.080586 0 0 1 0.05469,-0.7168 73.080586,73.080586 0 0 1 0.05859,-0.7168 73.080586,73.080586 0 0 1 0.06836,-0.71679 73.080586,73.080586 0 0 1 0.07422,-0.71485 73.080586,73.080586 0 0 1 0.08008,-0.71289 73.080586,73.080586 0 0 1 0.08789,-0.71484 73.080586,73.080586 0 0 1 0.0957,-0.71289 73.080586,73.080586 0 0 1 0.101563,-0.71094 73.080586,73.080586 0 0 1 0.109375,-0.71094 73.080586,73.080586 0 0 1 0.117187,-0.70898 73.080586,73.080586 0 0 1 0.123047,-0.70703 73.080586,73.080586 0 0 1 0.128906,-0.70703 73.080586,73.080586 0 0 1 0.136719,-0.70704 73.080586,73.080586 0 0 1 0.144531,-0.70312 73.080586,73.080586 0 0 1 0.150391,-0.70313 73.080586,73.080586 0 0 1 0.158203,-0.70117 73.080586,73.080586 0 0 1 0.166016,-0.70117 73.080586,73.080586 0 0 1 0.169922,-0.697262 73.080586,73.080586 0 0 1 0.179687,-0.695312 73.080586,73.080586 0 0 1 0.185547,-0.695313 73.080586,73.080586 0 0 1 0.191406,-0.693359 73.080586,73.080586 0 0 1 0.199219,-0.689453 73.080586,73.080586 0 0 1 0.205078,-0.689453 73.080586,73.080586 0 0 1 0.212891,-0.6875 73.080586,73.080586 0 0 1 0.21875,-0.683594 73.080586,73.080586 0 0 1 0.226562,-0.683594 73.080586,73.080586 0 0 1 0.232422,-0.679687 73.080586,73.080586 0 0 1 0.238281,-0.677735 73.080586,73.080586 0 0 1 0.246094,-0.675781 73.080586,73.080586 0 0 1 0.253906,-0.671875 73.080586,73.080586 0 0 1 0.257813,-0.671875 73.080586,73.080586 0 0 1 0.265625,-0.667969 73.080586,73.080586 0 0 1 0.273437,-0.664062 73.080586,73.080586 0 0 1 0.279297,-0.664063 73.080586,73.080586 0 0 1 0.285156,-0.658203 73.080586,73.080586 0 0 1 0.291016,-0.658203 73.080586,73.080586 0 0 1 0.298828,-0.654297 73.080586,73.080586 0 0 1 0.304688,-0.65039 73.080586,73.080586 0 0 1 0.310547,-0.648438 73.080586,73.080586 0 0 1 0.318359,-0.644531 73.080586,73.080586 0 0 1 0.324219,-0.642578 73.080586,73.080586 0 0 1 0.330078,-0.638672 73.080586,73.080586 0 0 1 0.335937,-0.634766 73.080586,73.080586 0 0 1 0.341797,-0.630859 73.080586,73.080586 0 0 1 0.34961,-0.628906 73.080586,73.080586 0 0 1 0.353515,-0.625 73.080586,73.080586 0 0 1 0.361328,-0.623047 73.080586,73.080586 0 0 1 0.367188,-0.617188 73.080586,73.080586 0 0 1 0.373048,-0.613281 73.080586,73.080586 0 0 1 0.38086,-0.611328 73.080586,73.080586 0 0 1 0.38476,-0.607422 73.080586,73.080586 0 0 1 0.39063,-0.603516 73.080586,73.080586 0 0 1 0.39648,-0.597656 73.080586,73.080586 0 0 1 0.4043,-0.595703 73.080586,73.080586 0 0 1 0.4082,-0.591797 73.080586,73.080586 0 0 1 0.41406,-0.58789 73.080586,73.080586 0 0 1 0.42188,-0.582032 73.080586,73.080586 0 0 1 0.42578,-0.580078 73.080586,73.080586 0 0 1 0.43164,-0.574219 73.080586,73.080586 0 0 1 0.4375,-0.570312 73.080586,73.080586 0 0 1 0.44336,-0.566406 73.080586,73.080586 0 0 1 0.44726,-0.560547 73.080586,73.080586 0 0 1 0.45508,-0.558594 73.080586,73.080586 0 0 1 0.45899,-0.552734 73.080586,73.080586 0 0 1 0.46484,-0.548828 73.080586,73.080586 0 0 1 0.4707,-0.542969 73.080586,73.080586 0 0 1 0.47461,-0.539063 73.080586,73.080586 0 0 1 0.48243,-0.533203 73.080586,73.080586 0 0 1 0.48437,-0.53125 73.080586,73.080586 0 0 1 0.49219,-0.523437 73.080586,73.080586 0 0 1 0.49609,-0.519532 73.080586,73.080586 0 0 1 0.50195,-0.515625 73.080586,73.080586 0 0 1 0.50586,-0.509765 73.080586,73.080586 0 0 1 0.51172,-0.50586 73.080586,73.080586 0 0 1 0.51758,-0.5 73.080586,73.080586 0 0 1 0.52148,-0.49414 73.080586,73.080586 0 0 1 0.5254,-0.490235 73.080586,73.080586 0 0 1 0.53125,-0.484375 73.080586,73.080586 0 0 1 0.53515,-0.478515 73.080586,73.080586 0 0 1 0.54102,-0.47461 73.080586,73.080586 0 0 1 0.54492,-0.46875 73.080586,73.080586 0 0 1 0.55078,-0.46289 73.080586,73.080586 0 0 1 0.55274,-0.458985 73.080586,73.080586 0 0 1 0.55859,-0.451172 73.080586,73.080586 0 0 1 0.56445,-0.447265 73.080586,73.080586 0 0 1 0.56641,-0.441406 73.080586,73.080586 0 0 1 0.57226,-0.435547 73.080586,73.080586 0 0 1 0.57618,-0.429688 73.080586,73.080586 0 0 1 0.58007,-0.423828 73.080586,73.080586 0 0 1 0.58399,-0.419922 73.080586,73.080586 0 0 1 0.58984,-0.412109 73.080586,73.080586 0 0 1 0.5918,-0.40625 73.080586,73.080586 0 0 1 0.5957,-0.402344 73.080586,73.080586 0 0 1 0.60156,-0.394531 73.080586,73.080586 0 0 1 0.60352,-0.390625 73.080586,73.080586 0 0 1 0.60937,-0.382813 73.080586,73.080586 0 0 1 0.61133,-0.376953 73.080586,73.080586 0 0 1 0.61524,-0.371093 73.080586,73.080586 0 0 1 0.61914,-0.365235 73.080586,73.080586 0 0 1 0.62305,-0.359375 73.080586,73.080586 0 0 1 0.625,-0.353516 73.080586,73.080586 0 0 1 0.63085,-0.347656 73.080586,73.080586 0 0 1 0.63282,-0.339844 73.080586,73.080586 0 0 1 0.63672,-0.333984 73.080586,73.080586 0 0 1 0.63867,-0.328125 73.080586,73.080586 0 0 1 0.64258,-0.322265 73.080586,73.080586 0 0 1 0.64648,-0.314454 73.080586,73.080586 0 0 1 0.64844,-0.310546 73.080586,73.080586 0 0 1 0.65234,-0.302735 73.080586,73.080586 0 0 1 0.6543,-0.294922 73.080586,73.080586 0 0 1 0.6582,-0.291015 73.080586,73.080586 0 0 1 0.66016,-0.283204 73.080586,73.080586 0 0 1 0.66406,-0.277343 73.080586,73.080586 0 0 1 0.66602,-0.269531 73.080586,73.080586 0 0 1 0.66992,-0.263672 73.080586,73.080586 0 0 1 0.66992,-0.257813 73.080586,73.080586 0 0 1 0.67383,-0.25 73.080586,73.080586 0 0 1 0.67578,-0.244141 73.080586,73.080586 0 0 1 0.67969,-0.236328 73.080586,73.080586 0 0 1 0.67968,-0.230468 73.080586,73.080586 0 0 1 0.6836,-0.22461 73.080586,73.080586 0 0 1 0.68554,-0.216797 73.080586,73.080586 0 0 1 0.6875,-0.210937 73.080586,73.080586 0 0 1 0.68946,-0.203125 73.080586,73.080586 0 0 1 0.6914,-0.197266 73.080586,73.080586 0 0 1 0.69336,-0.189453 73.080586,73.080586 0 0 1 0.69532,-0.183594 73.080586,73.080586 0 0 1 0.69726,-0.175781 73.080586,73.080586 0 0 1 0.69727,-0.169922 73.080586,73.080586 0 0 1 0.70117,-0.162109 73.080586,73.080586 0 0 1 0.70117,-0.15625 73.080586,73.080586 0 0 1 0.70313,-0.148438 73.080586,73.080586 0 0 1 0.70507,-0.142578 73.080586,73.080586 0 0 1 0.70703,-0.134765 73.080586,73.080586 0 0 1 0.70704,-0.126953 73.080586,73.080586 0 0 1 0.70898,-0.121094 73.080586,73.080586 0 0 1 0.70898,-0.115235 73.080586,73.080586 0 0 1 0.71094,-0.105468 73.080586,73.080586 0 0 1 0.71094,-0.101563 73.080586,73.080586 0 0 1 0.71289,-0.0918 73.080586,73.080586 0 0 1 0.71484,-0.08594 73.080586,73.080586 0 0 1 0.71485,-0.08008 73.080586,73.080586 0 0 1 0.71484,-0.07031 73.080586,73.080586 0 0 1 0.71485,-0.06641 73.080586,73.080586 0 0 1 0.71679,-0.05664 73.080586,73.080586 0 0 1 0.7168,-0.05078 73.080586,73.080586 0 0 1 0.71875,-0.04492 73.080586,73.080586 0 0 1 0.7168,-0.03516 73.080586,73.080586 0 0 1 0.71875,-0.03125 73.080586,73.080586 0 0 1 0.71875,-0.02148 73.080586,73.080586 0 0 1 0.71875,-0.01562 73.080586,73.080586 0 0 1 0.71875,-0.0078 73.080586,73.080586 0 0 1 0.49609,-0.002 z"
       style="fill:#000000;stroke-width:0;stroke-linejoin:round"
       id="path854" />
    <rect
       y="10.583333"
       x="42.40683"
       height="21.166668"
       width="1.175926"
       id="rect857"
       style="fill:#000000;stroke-width:0;stroke-linejoin:round" />
    <path
       transform="scale(0.26458333)"
       d="M 238.46484,115.56836 H 160.2832 v 4.44336 h 78.18164 z"
       style="fill:#000000;stroke-width:0;stroke-linejoin:round"
       id="rect857-5" />
    <path
       d="m 80.967471,19.519185 v 1.175639 h 0.481108 v -1.175639 z"
       style="fill:#000000;stroke-width:0;stroke-linejoin:round"
       id="path908" />
    <path
       transform="scale(0.26458333)"
       d="m 215.50977,61.347656 -54.38282,54.382814 3.14258,3.14258 53.61133,-53.611331 h -2.37109 z"
       style="fill:#000000;stroke-width:0;stroke-linejoin:round"
       id="rect857-5-5" />
    <path
       d="m 76.273455,17.956083 v 1.035596 h 0.627351 l 0.782381,-0.782381 -0.831475,-0.831474 z"
       style="fill:#000000;stroke-width:0;stroke-linejoin:round"
       id="path915" />
    <path
       d="m 15.666079,39.932961 v -1.217496 l -0.622184,0.166915 0.304374,1.135849 z"
       style="fill:#000000;stroke-width:0;stroke-linejoin:round"
       id="rect857-5-1" />
    <path
       transform="scale(0.26458333)"
       d="m 163.41992,115 -74.923826,20.07617 v 4.60156 l 76.072266,-20.38476 z"
       style="fill:#000000;stroke-width:0;stroke-linejoin:round"
       id="path922" />
  </g>
  <g
     transform="translate(-39.6875,-17.184287)"
     style="display:none"
     inkscape:label="fork"
     id="layer2"
     inkscape:groupmode="layer">
    <rect
       y="47.625"
       x="62.177082"
       height="27.78125"
       width="5.2916694"
       id="rect926"
       style="fill:#000000;stroke-width:0;stroke-linejoin:round" />
    <circle
       r="2.6458333"
       cy="75.40625"
       cx="64.822914"
       id="path928"
       style="fill:#000000;stroke-width:0;stroke-linejoin:round" />
    <circle
       style="fill:#000000;stroke-width:0;stroke-linejoin:round"
       id="path928-0"
       cx="62.177082"
       cy="44.979168"
       r="2.6458333" />
    <circle
       style="fill:#000000;stroke-width:0;stroke-linejoin:round"
       id="path928-2"
       cx="67.46875"
       cy="44.979168"
       r="2.6458333" />
    <rect
       y="34.395832"
       x="59.53125"
       height="10.583333"
       width="1.3229166"
       id="rect951"
       style="fill:#000000;stroke-width:0;stroke-linejoin:round" />
    <rect
       style="fill:#000000;stroke-width:0;stroke-linejoin:round"
       id="rect951-3"
       width="1.3229166"
       height="10.583333"
       x="60.854168"
       y="34.395832" />
    <rect
       style="fill:#000000;stroke-width:0;stroke-linejoin:round"
       id="rect951-1"
       width="1.3229166"
       height="10.583333"
       x="68.791664"
       y="34.395836" />
    <rect
       style="fill:#000000;stroke-width:0;stroke-linejoin:round"
       id="rect951-6"
       width="1.3229166"
       height="10.583333"
       x="67.46875"
       y="34.395836" />
    <rect
       style="fill:#000000;stroke-width:0;stroke-linejoin:round"
       id="rect951-36"
       width="2.6458383"
       height="10.583333"
       x="63.5"
       y="34.395836" />
    <rect
       y="42.333332"
       x="62.177082"
       height="5.2916665"
       width="5.2916665"
       id="rect986"
       style="fill:#000000;stroke-width:0;stroke-linejoin:round" />
  </g>
  <g
     transform="translate(-39.6875,-17.184287)"
     style="display:none"
     inkscape:label="knife"
     id="layer3"
     inkscape:groupmode="layer">
    <rect
       style="fill:#000000;stroke-width:0;stroke-linejoin:round"
       id="rect926-7"
       width="5.2916694"
       height="27.78125"
       x="76.729164"
       y="39.6875" />
    <circle
       style="fill:#000000;stroke-width:0;stroke-linejoin:round"
       id="path928-01"
       cx="79.375"
       cy="67.46875"
       r="2.6458333" />
    <circle
       r="2.6458333"
       cy="38.364586"
       cx="105.83334"
       id="path928-0-1"
       style="fill:#000000;stroke-width:0;stroke-linejoin:round" />
    <circle
       r="2.6458333"
       cy="38.364586"
       cx="111.12502"
       id="path928-2-7"
       style="fill:#000000;stroke-width:0;stroke-linejoin:round" />
    <rect
       style="fill:#000000;stroke-width:0;stroke-linejoin:round"
       id="rect951-33"
       width="1.3229166"
       height="10.583333"
       x="103.18752"
       y="27.78125" />
    <rect
       y="27.78125"
       x="104.51043"
       height="10.583333"
       width="1.3229166"
       id="rect951-3-6"
       style="fill:#000000;stroke-width:0;stroke-linejoin:round" />
    <rect
       y="27.781254"
       x="112.44793"
       height="10.583333"
       width="1.3229166"
       id="rect951-1-9"
       style="fill:#000000;stroke-width:0;stroke-linejoin:round" />
    <rect
       y="27.781254"
       x="111.12502"
       height="10.583333"
       width="1.3229166"
       id="rect951-6-7"
       style="fill:#000000;stroke-width:0;stroke-linejoin:round" />
    <rect
       y="27.781254"
       x="107.15627"
       height="10.583333"
       width="2.6458383"
       id="rect951-36-2"
       style="fill:#000000;stroke-width:0;stroke-linejoin:round" />
    <rect
       style="fill:#000000;stroke-width:0;stroke-linejoin:round"
       id="rect986-8"
       width="5.2916665"
       height="5.2916665"
       x="105.83334"
       y="35.71875" />
    <ellipse
       transform="matrix(0.2844028,0.95870488,-0.1839563,0.98293442,0,0)"
       ry="11.98386"
       rx="9.8099356"
       cy="-82.101578"
       cx="121.27691"
       id="path1031"
       style="fill:#000000;stroke-width:0;stroke-linejoin:round" />
    <path
       d="m 80.697917,26.458333 a 4.0090431,11.693042 6.3592503 0 0 -0.04,-0.005 4.0090431,11.693042 6.3592503 0 0 -5.279514,11.176828 4.0090431,11.693042 6.3592503 0 0 2.68927,12.064932 4.0090431,11.693042 6.3592503 0 0 0.04012,0.004 z"
       style="fill:#000000;stroke-width:0;stroke-linejoin:round"
       id="path1033" />
    <path
       d="m 96.572917,28.05772 v 23.384619 a 4.0090431,11.693042 0 0 0 3.968753,-11.69231 4.0090431,11.693042 0 0 0 0,-0.06253 4.0090431,11.693042 0 0 0 -3.968753,-11.629779 z"
       style="fill:#000000;stroke-width:0;stroke-linejoin:round"
       id="path1041" />
    <rect
       y="29.104166"
       x="79.375"
       height="10.583331"
       width="2.6458333"
       id="rect1035"
       style="fill:#000000;stroke-width:0;stroke-linejoin:round" />
    <rect
       style="fill:#000000;stroke-width:0;stroke-linejoin:round"
       id="rect1035-3"
       width="2.6458333"
       height="13.229167"
       x="89.958328"
       y="25.135416" />
    <circle
       r="1.3229166"
       cy="27.78125"
       cx="80.697914"
       id="path1059"
       style="fill:#000000;stroke-width:0;stroke-linejoin:round" />
    <rect
       y="27.78125"
       x="79.375"
       height="2.6458333"
       width="1.3229166"
       id="rect1061"
       style="fill:#000000;stroke-width:0;stroke-linejoin:round" />
    <rect
       y="27.78125"
       x="80.697922"
       height="1.3229166"
       width="1.3229166"
       id="rect1063"
       style="fill:#000000;stroke-width:0;stroke-linejoin:round" />
    <rect
       style="fill:#000000;stroke-width:0;stroke-linejoin:round"
       id="rect1061-9"
       width="1.3229166"
       height="2.6458333"
       x="78.052086"
       y="37.041668" />
  </g>
  <g
     transform="translate(-39.6875,-17.184287)"
     inkscape:label="final"
     id="layer4"
     inkscape:groupmode="layer">
    <path
       transform="scale(0.26458333)"
       d="m 380.24414,64.949219 a 15.152289,44.194174 6.3592503 0 0 -19.28906,42.275391 15.152289,44.194174 6.3592503 0 0 5.10547,42.0957 V 220 a 9.9999999,9.9999999 0 0 0 10,10 9.9999999,9.9999999 0 0 0 10,-10 9.9999999,9.9999999 0 0 0 0,-0.0195 V 115 75 70 a 4.9999997,4.9999997 0 0 0 -5,-5 15.152289,44.194174 6.3592503 0 0 -0.15039,-0.01953 15.152289,44.194174 6.3592503 0 0 -0.66602,-0.03125 z"
       style="fill:#000000;stroke-width:0;stroke-linejoin:round"
       id="rect926-7-1" />
    <path
       transform="scale(0.26458333)"
       d="m 150,65 v 40 a 9.9999999,9.9999999 0 0 0 10,10 v 105 a 9.9999999,9.9999999 0 0 0 10,10 9.9999999,9.9999999 0 0 0 10,-10 9.9999999,9.9999999 0 0 0 0,-0.0195 V 115 a 9.9999999,9.9999999 0 0 0 10,-10 9.9999999,9.9999999 0 0 0 0,-0.0195 V 65 h -5 -5 V 95 H 179.98047 175 V 65 h -10 v 30 h -5 V 65 h -5 z"
       style="display:inline;fill:#000000;stroke-width:0;stroke-linejoin:round"
       id="rect926-1" />
    <path
       id="path854-7"
       style="display:inline;fill:#000000;stroke-width:0;stroke-linejoin:round"
       d="M 72.005528,17.211183 A 21.808147,21.808147 0 0 0 50.290814,39.019328 21.808147,21.808147 0 0 0 72.098959,60.827475 21.808147,21.808147 0 0 0 93.907106,39.019328 21.808147,21.808147 0 0 0 72.098959,17.211183 a 21.808147,21.808147 0 0 0 -0.09343,0 z m 0.09343,1.243746 a 20.564543,20.564543 0 0 1 0.202253,0.0011 20.564543,20.564543 0 0 1 0.202253,0.0028 20.564543,20.564543 0 0 1 0.202253,0.0049 20.564543,20.564543 0 0 1 0.202252,0.0071 20.564543,20.564543 0 0 1 0.202254,0.0088 20.564543,20.564543 0 0 1 0.201704,0.011 20.564543,20.564543 0 0 1 0.201702,0.01263 20.564543,20.564543 0 0 1 0.201704,0.01539 20.564543,20.564543 0 0 1 0.201704,0.01648 20.564543,20.564543 0 0 1 0.201701,0.01924 20.564543,20.564543 0 0 1 0.201155,0.02089 20.564543,20.564543 0 0 1 0.200605,0.02254 20.564543,20.564543 0 0 1 0.201153,0.02473 20.564543,20.564543 0 0 1 0.200604,0.02693 20.564543,20.564543 0 0 1 0.200055,0.02858 20.564543,20.564543 0 0 1 0.200056,0.03078 20.564543,20.564543 0 0 1 0.199503,0.03298 20.564543,20.564543 0 0 1 0.198955,0.03463 20.564543,20.564543 0 0 1 0.198955,0.03628 20.564543,20.564543 0 0 1 0.198958,0.03847 20.564543,20.564543 0 0 1 0.197854,0.04067 20.564543,20.564543 0 0 1 0.197858,0.04232 20.564543,20.564543 0 0 1 0.197306,0.04452 20.564543,20.564543 0 0 1 0.197306,0.04671 20.564543,20.564543 0 0 1 0.196209,0.04782 20.564543,20.564543 0 0 1 0.195657,0.05056 20.564543,20.564543 0 0 1 0.195657,0.05221 20.564543,20.564543 0 0 1 0.195108,0.05386 20.564543,20.564543 0 0 1 0.194008,0.05606 20.564543,20.564543 0 0 1 0.194011,0.05771 20.564543,20.564543 0 0 1 0.19346,0.05991 20.564543,20.564543 0 0 1 0.192358,0.06156 20.564543,20.564543 0 0 1 0.19236,0.06375 20.564543,20.564543 0 0 1 0.191261,0.0654 20.564543,20.564543 0 0 1 0.190713,0.06706 20.564543,20.564543 0 0 1 0.190161,0.06925 20.564543,20.564543 0 0 1 0.189062,0.07145 20.564543,20.564543 0 0 1 0.189064,0.07254 20.564543,20.564543 0 0 1 0.187964,0.07475 20.564543,20.564543 0 0 1 0.186863,0.07695 20.564543,20.564543 0 0 1 0.186863,0.07859 20.564543,20.564543 0 0 1 0.185215,0.08024 20.564543,20.564543 0 0 1 0.185217,0.08189 20.564543,20.564543 0 0 1 0.184115,0.08408 20.564543,20.564543 0 0 1 0.183016,0.08574 20.564543,20.564543 0 0 1 0.182468,0.08738 20.564543,20.564543 0 0 1 0.181368,0.08958 20.564543,20.564543 0 0 1 0.180819,0.09123 20.564543,20.564543 0 0 1 0.179719,0.09288 20.564543,20.564543 0 0 1 0.178621,0.09453 20.564543,20.564543 0 0 1 0.177521,0.09618 20.564543,20.564543 0 0 1 0.17697,0.09838 20.564543,20.564543 0 0 1 0.175872,0.09947 20.564543,20.564543 0 0 1 0.175324,0.101675 20.564543,20.564543 0 0 1 0.173674,0.103323 20.564543,20.564543 0 0 1 0.172574,0.104972 20.564543,20.564543 0 0 1 0.172026,0.107172 20.564543,20.564543 0 0 1 0.170925,0.10827 20.564543,20.564543 0 0 1 0.169828,0.109921 20.564543,20.564543 0 0 1 0.168175,0.111568 20.564543,20.564543 0 0 1 0.167628,0.113767 20.564543,20.564543 0 0 1 0.16653,0.114867 20.564543,20.564543 0 0 1 0.165429,0.116515 20.564543,20.564543 0 0 1 0.163781,0.118714 20.564543,20.564543 0 0 1 0.163232,0.119813 20.564543,20.564543 0 0 1 0.161583,0.121462 20.564543,20.564543 0 0 1 0.160482,0.12311 20.564543,20.564543 0 0 1 0.159385,0.12476 20.564543,20.564543 0 0 1 0.157736,0.125858 20.564543,20.564543 0 0 1 0.157186,0.128056 20.564543,20.564543 0 0 1 0.155535,0.129157 20.564543,20.564543 0 0 1 0.154438,0.130805 20.564543,20.564543 0 0 1 0.15279,0.132453 20.564543,20.564543 0 0 1 0.151688,0.133554 20.564543,20.564543 0 0 1 0.150044,0.135751 20.564543,20.564543 0 0 1 0.149491,0.136301 20.564543,20.564543 0 0 1 0.147291,0.138499 20.564543,20.564543 0 0 1 0.146196,0.139599 20.564543,20.564543 0 0 1 0.145093,0.141246 20.564543,20.564543 0 0 1 0.143447,0.142348 20.564543,20.564543 0 0 1 0.142346,0.143995 20.564543,20.564543 0 0 1 0.140698,0.145644 20.564543,20.564543 0 0 1 0.139049,0.146743 20.564543,20.564543 0 0 1 0.137948,0.147843 20.564543,20.564543 0 0 1 0.136303,0.149491 20.564543,20.564543 0 0 1 0.134651,0.15059 20.564543,20.564543 0 0 1 0.133553,0.15224 20.564543,20.564543 0 0 1 0.131904,0.153338 20.564543,20.564543 0 0 1 0.130255,0.154988 20.564543,20.564543 0 0 1 0.129157,0.155537 20.564543,20.564543 0 0 1 0.126957,0.157186 20.564543,20.564543 0 0 1 0.125858,0.158835 20.564543,20.564543 0 0 1 0.12421,0.159383 20.564543,20.564543 0 0 1 0.122562,0.161033 20.564543,20.564543 0 0 1 0.12091,0.162133 20.564543,20.564543 0 0 1 0.119264,0.163231 20.564543,20.564543 0 0 1 0.118163,0.16433 20.564543,20.564543 0 0 1 0.115966,0.165979 20.564543,20.564543 0 0 1 0.114317,0.16653 20.564543,20.564543 0 0 1 0.11322,0.167628 20.564543,20.564543 0 0 1 0.111019,0.169276 20.564543,20.564543 0 0 1 0.109918,0.169828 20.564543,20.564543 0 0 1 0.107724,0.171475 20.564543,20.564543 0 0 1 0.106078,0.172024 20.564543,20.564543 0 0 1 0.104418,0.173125 20.564543,20.564543 0 0 1 0.102781,0.174223 20.564543,20.564543 0 0 1 0.101122,0.175322 20.564543,20.564543 0 0 1 0.09947,0.175873 20.564543,20.564543 0 0 1 0.09782,0.177521 20.564543,20.564543 0 0 1 0.09563,0.17807 20.564543,20.564543 0 0 1 0.09399,0.179171 20.564543,20.564543 0 0 1 0.09234,0.179719 20.564543,20.564543 0 0 1 0.09068,0.180818 20.564543,20.564543 0 0 1 0.08849,0.181918 20.564543,20.564543 0 0 1 0.08738,0.182468 20.564543,20.564543 0 0 1 0.08519,0.183566 20.564543,20.564543 0 0 1 0.08299,0.184116 20.564543,20.564543 0 0 1 0.08189,0.185216 20.564543,20.564543 0 0 1 0.07969,0.185764 20.564543,20.564543 0 0 1 0.07804,0.186865 20.564543,20.564543 0 0 1 0.07584,0.187414 20.564543,20.564543 0 0 1 0.07419,0.187963 20.564543,20.564543 0 0 1 0.07256,0.189062 20.564543,20.564543 0 0 1 0.07035,0.189613 20.564543,20.564543 0 0 1 0.06869,0.190161 20.564543,20.564543 0 0 1 0.0665,0.191261 20.564543,20.564543 0 0 1 0.06486,0.191261 20.564543,20.564543 0 0 1 0.06321,0.192361 20.564543,20.564543 0 0 1 0.061,0.192909 20.564543,20.564543 0 0 1 0.05936,0.193459 20.564543,20.564543 0 0 1 0.05715,0.19401 20.564543,20.564543 0 0 1 0.05551,0.194558 20.564543,20.564543 0 0 1 0.05331,0.195107 20.564543,20.564543 0 0 1 0.05167,0.195659 20.564543,20.564543 0 0 1 0.04946,0.196207 20.564543,20.564543 0 0 1 0.04782,0.196207 20.564543,20.564543 0 0 1 0.04561,0.197306 20.564543,20.564543 0 0 1 0.04397,0.197306 20.564543,20.564543 0 0 1 0.04176,0.197857 20.564543,20.564543 0 0 1 0.04012,0.198404 20.564543,20.564543 0 0 1 0.03793,0.198955 20.564543,20.564543 0 0 1 0.03572,0.198958 20.564543,20.564543 0 0 1 0.03408,0.199504 20.564543,20.564543 0 0 1 0.03243,0.199504 20.564543,20.564543 0 0 1 0.02968,0.200055 20.564543,20.564543 0 0 1 0.02858,0.200055 20.564543,20.564543 0 0 1 0.02583,0.200604 20.564543,20.564543 0 0 1 0.02417,0.201152 20.564543,20.564543 0 0 1 0.02254,0.201157 20.564543,20.564543 0 0 1 0.01978,0.201151 20.564543,20.564543 0 0 1 0.01869,0.201157 20.564543,20.564543 0 0 1 0.01593,0.201701 20.564543,20.564543 0 0 1 0.01429,0.201704 20.564543,20.564543 0 0 1 0.01264,0.202253 20.564543,20.564543 0 0 1 0.0099,0.201704 20.564543,20.564543 0 0 1 0.0088,0.202254 20.564543,20.564543 0 0 1 0.0061,0.202252 20.564543,20.564543 0 0 1 0.0044,0.202253 20.564543,20.564543 0 0 1 0.0022,0.202254 20.564543,20.564543 0 0 1 5.63e-4,0.139597 20.564543,20.564543 0 0 1 -0.0012,0.202253 20.564543,20.564543 0 0 1 -0.0028,0.202252 20.564543,20.564543 0 0 1 -0.005,0.202254 20.564543,20.564543 0 0 1 -0.0071,0.202253 20.564543,20.564543 0 0 1 -0.0088,0.202253 20.564543,20.564543 0 0 1 -0.01101,0.201703 20.564543,20.564543 0 0 1 -0.01264,0.201702 20.564543,20.564543 0 0 1 -0.01539,0.201704 20.564543,20.564543 0 0 1 -0.01649,0.201705 20.564543,20.564543 0 0 1 -0.01925,0.201701 20.564543,20.564543 0 0 1 -0.02088,0.201156 20.564543,20.564543 0 0 1 -0.02254,0.200604 20.564543,20.564543 0 0 1 -0.02474,0.201152 20.564543,20.564543 0 0 1 -0.02693,0.200604 20.564543,20.564543 0 0 1 -0.02858,0.200056 20.564543,20.564543 0 0 1 -0.03078,0.200055 20.564543,20.564543 0 0 1 -0.03297,0.199503 20.564543,20.564543 0 0 1 -0.03463,0.198956 20.564543,20.564543 0 0 1 -0.03628,0.198955 20.564543,20.564543 0 0 1 -0.03847,0.198958 20.564543,20.564543 0 0 1 -0.04067,0.197855 20.564543,20.564543 0 0 1 -0.04232,0.197857 20.564543,20.564543 0 0 1 -0.04452,0.197306 20.564543,20.564543 0 0 1 -0.04672,0.197306 20.564543,20.564543 0 0 1 -0.04782,0.196208 20.564543,20.564543 0 0 1 -0.05056,0.195658 20.564543,20.564543 0 0 1 -0.05221,0.195657 20.564543,20.564543 0 0 1 -0.05386,0.195108 20.564543,20.564543 0 0 1 -0.05606,0.194008 20.564543,20.564543 0 0 1 -0.05771,0.194011 20.564543,20.564543 0 0 1 -0.05991,0.193459 20.564543,20.564543 0 0 1 -0.06156,0.19236 20.564543,20.564543 0 0 1 -0.06375,0.192359 20.564543,20.564543 0 0 1 -0.0654,0.191261 20.564543,20.564543 0 0 1 -0.06706,0.190714 20.564543,20.564543 0 0 1 -0.06925,0.190161 20.564543,20.564543 0 0 1 -0.07145,0.189062 20.564543,20.564543 0 0 1 -0.07254,0.189063 20.564543,20.564543 0 0 1 -0.07475,0.187964 20.564543,20.564543 0 0 1 -0.07695,0.186863 20.564543,20.564543 0 0 1 -0.0786,0.186864 20.564543,20.564543 0 0 1 -0.08024,0.185214 20.564543,20.564543 0 0 1 -0.08189,0.185217 20.564543,20.564543 0 0 1 -0.08408,0.184115 20.564543,20.564543 0 0 1 -0.08574,0.183017 20.564543,20.564543 0 0 1 -0.08739,0.182467 20.564543,20.564543 0 0 1 -0.08958,0.181368 20.564543,20.564543 0 0 1 -0.09123,0.180819 20.564543,20.564543 0 0 1 -0.09288,0.17972 20.564543,20.564543 0 0 1 -0.09453,0.178621 20.564543,20.564543 0 0 1 -0.09618,0.177521 20.564543,20.564543 0 0 1 -0.09838,0.17697 20.564543,20.564543 0 0 1 -0.09947,0.175871 20.564543,20.564543 0 0 1 -0.101675,0.174775 20.564543,20.564543 0 0 1 -0.103323,0.174223 20.564543,20.564543 0 0 1 -0.104972,0.172575 20.564543,20.564543 0 0 1 -0.107172,0.172025 20.564543,20.564543 0 0 1 -0.108269,0.170926 20.564543,20.564543 0 0 1 -0.109922,0.169827 20.564543,20.564543 0 0 1 -0.111567,0.168176 20.564543,20.564543 0 0 1 -0.113768,0.167628 20.564543,20.564543 0 0 1 -0.114866,0.166529 20.564543,20.564543 0 0 1 -0.116514,0.16543 20.564543,20.564543 0 0 1 -0.118716,0.16378 20.564543,20.564543 0 0 1 -0.119812,0.163232 20.564543,20.564543 0 0 1 -0.121462,0.161583 20.564543,20.564543 0 0 1 -0.12311,0.160482 20.564543,20.564543 0 0 1 -0.12476,0.159386 20.564543,20.564543 0 0 1 -0.125857,0.157736 20.564543,20.564543 0 0 1 -0.128057,0.157185 20.564543,20.564543 0 0 1 -0.129158,0.155536 20.564543,20.564543 0 0 1 -0.130804,0.154438 20.564543,20.564543 0 0 1 -0.132452,0.152789 20.564543,20.564543 0 0 1 -0.133554,0.151689 20.564543,20.564543 0 0 1 -0.135753,0.150043 20.564543,20.564543 0 0 1 -0.1363,0.149492 20.564543,20.564543 0 0 1 -0.1385,0.147291 20.564543,20.564543 0 0 1 -0.139598,0.146195 20.564543,20.564543 0 0 1 -0.141245,0.145094 20.564543,20.564543 0 0 1 -0.142347,0.143446 20.564543,20.564543 0 0 1 -0.143996,0.142347 20.564543,20.564543 0 0 1 -0.145645,0.140698 20.564543,20.564543 0 0 1 -0.146742,0.139048 20.564543,20.564543 0 0 1 -0.147845,0.137949 20.564543,20.564543 0 0 1 -0.149491,0.136302 20.564543,20.564543 0 0 1 -0.150589,0.134651 20.564543,20.564543 0 0 1 -0.152241,0.133553 20.564543,20.564543 0 0 1 -0.153337,0.131904 20.564543,20.564543 0 0 1 -0.154988,0.130255 20.564543,20.564543 0 0 1 -0.155538,0.129158 20.564543,20.564543 0 0 1 -0.157185,0.126957 20.564543,20.564543 0 0 1 -0.158833,0.125857 20.564543,20.564543 0 0 1 -0.159386,0.12421 20.564543,20.564543 0 0 1 -0.161031,0.122563 20.564543,20.564543 0 0 1 -0.162135,0.12091 20.564543,20.564543 0 0 1 -0.163229,0.119263 20.564543,20.564543 0 0 1 -0.164332,0.118164 20.564543,20.564543 0 0 1 -0.165977,0.115965 20.564543,20.564543 0 0 1 -0.166531,0.114317 20.564543,20.564543 0 0 1 -0.167627,0.113221 20.564543,20.564543 0 0 1 -0.169276,0.111018 20.564543,20.564543 0 0 1 -0.169828,0.109919 20.564543,20.564543 0 0 1 -0.171473,0.107724 20.564543,20.564543 0 0 1 -0.172026,0.106067 20.564543,20.564543 0 0 1 -0.173126,0.104418 20.564543,20.564543 0 0 1 -0.174223,0.102781 20.564543,20.564543 0 0 1 -0.175324,0.101121 20.564543,20.564543 0 0 1 -0.175872,0.09948 20.564543,20.564543 0 0 1 -0.177518,0.09783 20.564543,20.564543 0 0 1 -0.178073,0.09563 20.564543,20.564543 0 0 1 -0.17917,0.09399 20.564543,20.564543 0 0 1 -0.179719,0.09234 20.564543,20.564543 0 0 1 -0.180819,0.09068 20.564543,20.564543 0 0 1 -0.181916,0.08849 20.564543,20.564543 0 0 1 -0.182469,0.08738 20.564543,20.564543 0 0 1 -0.183565,0.08519 20.564543,20.564543 0 0 1 -0.184117,0.08299 20.564543,20.564543 0 0 1 -0.185215,0.08189 20.564543,20.564543 0 0 1 -0.185765,0.07969 20.564543,20.564543 0 0 1 -0.186863,0.07804 20.564543,20.564543 0 0 1 -0.187416,0.07584 20.564543,20.564543 0 0 1 -0.187961,0.07419 20.564543,20.564543 0 0 1 -0.189063,0.07254 20.564543,20.564543 0 0 1 -0.189614,0.07035 20.564543,20.564543 0 0 1 -0.190161,0.06869 20.564543,20.564543 0 0 1 -0.191261,0.0665 20.564543,20.564543 0 0 1 -0.191259,0.06486 20.564543,20.564543 0 0 1 -0.192363,0.06321 20.564543,20.564543 0 0 1 -0.192907,0.06101 20.564543,20.564543 0 0 1 -0.193459,0.05936 20.564543,20.564543 0 0 1 -0.194012,0.05716 20.564543,20.564543 0 0 1 -0.194556,0.05551 20.564543,20.564543 0 0 1 -0.195108,0.05332 20.564543,20.564543 0 0 1 -0.19566,0.05167 20.564543,20.564543 0 0 1 -0.196207,0.04946 20.564543,20.564543 0 0 1 -0.196208,0.04782 20.564543,20.564543 0 0 1 -0.197305,0.04561 20.564543,20.564543 0 0 1 -0.197306,0.04397 20.564543,20.564543 0 0 1 -0.197858,0.04176 20.564543,20.564543 0 0 1 -0.198404,0.04012 20.564543,20.564543 0 0 1 -0.198955,0.03793 20.564543,20.564543 0 0 1 -0.198958,0.03572 20.564543,20.564543 0 0 1 -0.199503,0.03408 20.564543,20.564543 0 0 1 -0.199505,0.03243 20.564543,20.564543 0 0 1 -0.200054,0.02968 20.564543,20.564543 0 0 1 -0.200055,0.02802 20.564543,20.564543 0 0 1 -0.200605,0.02636 20.564543,20.564543 0 0 1 -0.201152,0.02417 20.564543,20.564543 0 0 1 -0.201156,0.02254 20.564543,20.564543 0 0 1 -0.201153,0.01978 20.564543,20.564543 0 0 1 -0.201155,0.01869 20.564543,20.564543 0 0 1 -0.201701,0.01593 20.564543,20.564543 0 0 1 -0.201704,0.01429 20.564543,20.564543 0 0 1 -0.202254,0.01263 20.564543,20.564543 0 0 1 -0.201704,0.0099 20.564543,20.564543 0 0 1 -0.202253,0.0088 20.564543,20.564543 0 0 1 -0.202253,0.0061 20.564543,20.564543 0 0 1 -0.202253,0.0044 20.564543,20.564543 0 0 1 -0.202253,0.0022 20.564543,20.564543 0 0 1 -0.139597,5.62e-4 20.564543,20.564543 0 0 1 -0.202254,-0.0012 20.564543,20.564543 0 0 1 -0.202252,-0.0028 20.564543,20.564543 0 0 1 -0.202253,-0.005 20.564543,20.564543 0 0 1 -0.202253,-0.0071 20.564543,20.564543 0 0 1 -0.202254,-0.0088 20.564543,20.564543 0 0 1 -0.201703,-0.01101 20.564543,20.564543 0 0 1 -0.201702,-0.01264 20.564543,20.564543 0 0 1 -0.201704,-0.01539 20.564543,20.564543 0 0 1 -0.201704,-0.01648 20.564543,20.564543 0 0 1 -0.201702,-0.01925 20.564543,20.564543 0 0 1 -0.201155,-0.02088 20.564543,20.564543 0 0 1 -0.200604,-0.02254 20.564543,20.564543 0 0 1 -0.201153,-0.02474 20.564543,20.564543 0 0 1 -0.200604,-0.02693 20.564543,20.564543 0 0 1 -0.200056,-0.02858 20.564543,20.564543 0 0 1 -0.200055,-0.03078 20.564543,20.564543 0 0 1 -0.199503,-0.03297 20.564543,20.564543 0 0 1 -0.198955,-0.03463 20.564543,20.564543 0 0 1 -0.198956,-0.03628 20.564543,20.564543 0 0 1 -0.198958,-0.03847 20.564543,20.564543 0 0 1 -0.197854,-0.04067 20.564543,20.564543 0 0 1 -0.197858,-0.04232 20.564543,20.564543 0 0 1 -0.197306,-0.04452 20.564543,20.564543 0 0 1 -0.197306,-0.04672 20.564543,20.564543 0 0 1 -0.196209,-0.04782 20.564543,20.564543 0 0 1 -0.195656,-0.05056 20.564543,20.564543 0 0 1 -0.195658,-0.05221 20.564543,20.564543 0 0 1 -0.195108,-0.05386 20.564543,20.564543 0 0 1 -0.194008,-0.05606 20.564543,20.564543 0 0 1 -0.194011,-0.05771 20.564543,20.564543 0 0 1 -0.193459,-0.05991 20.564543,20.564543 0 0 1 -0.192359,-0.06156 20.564543,20.564543 0 0 1 -0.192359,-0.06375 20.564543,20.564543 0 0 1 -0.191261,-0.0654 20.564543,20.564543 0 0 1 -0.190714,-0.06706 20.564543,20.564543 0 0 1 -0.190161,-0.06925 20.564543,20.564543 0 0 1 -0.189062,-0.07145 20.564543,20.564543 0 0 1 -0.189063,-0.07254 20.564543,20.564543 0 0 1 -0.187964,-0.07475 20.564543,20.564543 0 0 1 -0.186863,-0.07695 20.564543,20.564543 0 0 1 -0.186864,-0.0786 20.564543,20.564543 0 0 1 -0.185214,-0.08024 20.564543,20.564543 0 0 1 -0.185217,-0.08189 20.564543,20.564543 0 0 1 -0.184115,-0.08408 20.564543,20.564543 0 0 1 -0.183017,-0.08574 20.564543,20.564543 0 0 1 -0.182467,-0.08739 20.564543,20.564543 0 0 1 -0.181368,-0.08958 20.564543,20.564543 0 0 1 -0.180819,-0.09123 20.564543,20.564543 0 0 1 -0.17972,-0.09288 20.564543,20.564543 0 0 1 -0.178621,-0.09453 20.564543,20.564543 0 0 1 -0.177521,-0.09618 20.564543,20.564543 0 0 1 -0.17697,-0.09838 20.564543,20.564543 0 0 1 -0.175871,-0.09947 20.564543,20.564543 0 0 1 -0.174775,-0.101674 20.564543,20.564543 0 0 1 -0.174223,-0.103324 20.564543,20.564543 0 0 1 -0.172575,-0.104971 20.564543,20.564543 0 0 1 -0.172025,-0.107173 20.564543,20.564543 0 0 1 -0.170914,-0.108145 20.564543,20.564543 0 0 1 -0.169827,-0.109922 20.564543,20.564543 0 0 1 -0.168177,-0.111567 20.564543,20.564543 0 0 1 -0.167627,-0.113768 20.564543,20.564543 0 0 1 -0.16653,-0.114866 20.564543,20.564543 0 0 1 -0.165429,-0.116514 20.564543,20.564543 0 0 1 -0.163781,-0.118716 20.564543,20.564543 0 0 1 -0.163232,-0.119812 20.564543,20.564543 0 0 1 -0.161583,-0.121462 20.564543,20.564543 0 0 1 -0.160483,-0.12311 20.564543,20.564543 0 0 1 -0.159384,-0.12476 20.564543,20.564543 0 0 1 -0.157736,-0.125857 20.564543,20.564543 0 0 1 -0.157185,-0.128057 20.564543,20.564543 0 0 1 -0.155536,-0.129158 20.564543,20.564543 0 0 1 -0.154438,-0.130804 20.564543,20.564543 0 0 1 -0.152789,-0.132452 20.564543,20.564543 0 0 1 -0.15169,-0.133554 20.564543,20.564543 0 0 1 -0.150042,-0.135753 20.564543,20.564543 0 0 1 -0.149492,-0.1363 A 20.564543,20.564543 0 0 1 57.970283,53.961757 20.564543,20.564543 0 0 1 57.824088,53.822158 20.564543,20.564543 0 0 1 57.678994,53.680913 20.564543,20.564543 0 0 1 57.535547,53.538566 20.564543,20.564543 0 0 1 57.3932,53.39457 20.564543,20.564543 0 0 1 57.252503,53.248925 20.564543,20.564543 0 0 1 57.113453,53.102183 20.564543,20.564543 0 0 1 56.975506,52.954338 20.564543,20.564543 0 0 1 56.839203,52.804847 20.564543,20.564543 0 0 1 56.704552,52.654258 20.564543,20.564543 0 0 1 56.570999,52.502017 20.564543,20.564543 0 0 1 56.439096,52.34868 20.564543,20.564543 0 0 1 56.30884,52.193693 20.564543,20.564543 0 0 1 56.179683,52.038154 20.564543,20.564543 0 0 1 56.052726,51.880969 20.564543,20.564543 0 0 1 55.926868,51.722136 20.564543,20.564543 0 0 1 55.802657,51.56275 a 20.564543,20.564543 0 0 1 -0.122561,-0.161031 20.564543,20.564543 0 0 1 -0.12091,-0.162135 20.564543,20.564543 0 0 1 -0.119263,-0.163229 20.564543,20.564543 0 0 1 -0.118164,-0.164332 20.564543,20.564543 0 0 1 -0.115967,-0.165977 20.564543,20.564543 0 0 1 -0.114317,-0.166531 20.564543,20.564543 0 0 1 -0.113219,-0.167627 20.564543,20.564543 0 0 1 -0.111019,-0.169276 20.564543,20.564543 0 0 1 -0.109918,-0.169828 20.564543,20.564543 0 0 1 -0.107724,-0.171474 20.564543,20.564543 0 0 1 -0.106067,-0.172025 20.564543,20.564543 0 0 1 -0.104429,-0.173126 20.564543,20.564543 0 0 1 -0.10277,-0.174223 20.564543,20.564543 0 0 1 -0.101122,-0.175324 20.564543,20.564543 0 0 1 -0.09948,-0.175872 20.564543,20.564543 0 0 1 -0.09783,-0.177518 20.564543,20.564543 0 0 1 -0.09563,-0.178073 20.564543,20.564543 0 0 1 -0.09398,-0.17917 20.564543,20.564543 0 0 1 -0.09234,-0.179719 20.564543,20.564543 0 0 1 -0.09069,-0.180819 20.564543,20.564543 0 0 1 -0.08849,-0.181916 20.564543,20.564543 0 0 1 -0.08739,-0.182469 20.564543,20.564543 0 0 1 -0.08519,-0.183565 20.564543,20.564543 0 0 1 -0.08299,-0.184117 20.564543,20.564543 0 0 1 -0.08189,-0.185215 20.564543,20.564543 0 0 1 -0.07969,-0.185765 20.564543,20.564543 0 0 1 -0.07804,-0.186864 20.564543,20.564543 0 0 1 -0.07584,-0.187415 20.564543,20.564543 0 0 1 -0.07419,-0.188513 20.564543,20.564543 0 0 1 -0.07254,-0.188511 20.564543,20.564543 0 0 1 -0.07035,-0.189614 20.564543,20.564543 0 0 1 -0.06871,-0.190161 20.564543,20.564543 0 0 1 -0.0665,-0.191261 20.564543,20.564543 0 0 1 -0.06485,-0.191259 20.564543,20.564543 0 0 1 -0.06321,-0.192363 20.564543,20.564543 0 0 1 -0.061,-0.192908 20.564543,20.564543 0 0 1 -0.05936,-0.193459 20.564543,20.564543 0 0 1 -0.05715,-0.194011 20.564543,20.564543 0 0 1 -0.05551,-0.194557 20.564543,20.564543 0 0 1 -0.05331,-0.195108 20.564543,20.564543 0 0 1 -0.05167,-0.19566 20.564543,20.564543 0 0 1 -0.04946,-0.196206 20.564543,20.564543 0 0 1 -0.04782,-0.196208 20.564543,20.564543 0 0 1 -0.04561,-0.197306 20.564543,20.564543 0 0 1 -0.04397,-0.197306 20.564543,20.564543 0 0 1 -0.04176,-0.197857 20.564543,20.564543 0 0 1 -0.04012,-0.198404 20.564543,20.564543 0 0 1 -0.03793,-0.198955 20.564543,20.564543 0 0 1 -0.03572,-0.198958 20.564543,20.564543 0 0 1 -0.03408,-0.199504 20.564543,20.564543 0 0 1 -0.03243,-0.199504 20.564543,20.564543 0 0 1 -0.02968,-0.200055 20.564543,20.564543 0 0 1 -0.02803,-0.200055 20.564543,20.564543 0 0 1 -0.02638,-0.200605 20.564543,20.564543 0 0 1 -0.02419,-0.201152 20.564543,20.564543 0 0 1 -0.02254,-0.201156 20.564543,20.564543 0 0 1 -0.01978,-0.201153 20.564543,20.564543 0 0 1 -0.01869,-0.201155 20.564543,20.564543 0 0 1 -0.01594,-0.201702 20.564543,20.564543 0 0 1 -0.01429,-0.201703 20.564543,20.564543 0 0 1 -0.01263,-0.202253 20.564543,20.564543 0 0 1 -0.0099,-0.201705 20.564543,20.564543 0 0 1 -0.0088,-0.202253 20.564543,20.564543 0 0 1 -0.0061,-0.202252 20.564543,20.564543 0 0 1 -0.0044,-0.202253 20.564543,20.564543 0 0 1 -0.0022,-0.202254 20.564543,20.564543 0 0 1 -5.63e-4,-0.139597 20.564543,20.564543 0 0 1 0.0011,-0.202253 20.564543,20.564543 0 0 1 0.0028,-0.202253 20.564543,20.564543 0 0 1 0.0049,-0.202253 20.564543,20.564543 0 0 1 0.0071,-0.202253 20.564543,20.564543 0 0 1 0.0088,-0.202253 20.564543,20.564543 0 0 1 0.01099,-0.201704 20.564543,20.564543 0 0 1 0.01264,-0.201701 20.564543,20.564543 0 0 1 0.01539,-0.201704 20.564543,20.564543 0 0 1 0.01649,-0.201705 20.564543,20.564543 0 0 1 0.01924,-0.201701 20.564543,20.564543 0 0 1 0.02089,-0.201156 20.564543,20.564543 0 0 1 0.02254,-0.200604 20.564543,20.564543 0 0 1 0.02473,-0.201152 20.564543,20.564543 0 0 1 0.02693,-0.200604 20.564543,20.564543 0 0 1 0.02858,-0.200056 20.564543,20.564543 0 0 1 0.03078,-0.200055 20.564543,20.564543 0 0 1 0.03298,-0.199504 20.564543,20.564543 0 0 1 0.03463,-0.198955 20.564543,20.564543 0 0 1 0.03628,-0.198955 20.564543,20.564543 0 0 1 0.03847,-0.198958 20.564543,20.564543 0 0 1 0.04067,-0.197855 20.564543,20.564543 0 0 1 0.04232,-0.197857 20.564543,20.564543 0 0 1 0.04452,-0.197306 20.564543,20.564543 0 0 1 0.04672,-0.197306 20.564543,20.564543 0 0 1 0.04782,-0.196206 20.564543,20.564543 0 0 1 0.05056,-0.195658 20.564543,20.564543 0 0 1 0.05221,-0.195658 20.564543,20.564543 0 0 1 0.05386,-0.195108 20.564543,20.564543 0 0 1 0.05606,-0.194009 20.564543,20.564543 0 0 1 0.05771,-0.194009 20.564543,20.564543 0 0 1 0.05991,-0.193459 20.564543,20.564543 0 0 1 0.06156,-0.192361 20.564543,20.564543 0 0 1 0.06375,-0.19236 20.564543,20.564543 0 0 1 0.06541,-0.19126 20.564543,20.564543 0 0 1 0.06706,-0.190712 20.564543,20.564543 0 0 1 0.06925,-0.190162 20.564543,20.564543 0 0 1 0.07145,-0.189063 20.564543,20.564543 0 0 1 0.07254,-0.189062 20.564543,20.564543 0 0 1 0.07475,-0.187963 20.564543,20.564543 0 0 1 0.07695,-0.186864 20.564543,20.564543 0 0 1 0.0786,-0.186865 20.564543,20.564543 0 0 1 0.08024,-0.185214 20.564543,20.564543 0 0 1 0.08189,-0.185216 20.564543,20.564543 0 0 1 0.08408,-0.184116 20.564543,20.564543 0 0 1 0.08574,-0.183017 20.564543,20.564543 0 0 1 0.08739,-0.182467 20.564543,20.564543 0 0 1 0.08958,-0.181368 20.564543,20.564543 0 0 1 0.09123,-0.180819 20.564543,20.564543 0 0 1 0.09288,-0.17972 20.564543,20.564543 0 0 1 0.09453,-0.17862 20.564543,20.564543 0 0 1 0.09618,-0.177521 20.564543,20.564543 0 0 1 0.09838,-0.176971 20.564543,20.564543 0 0 1 0.09947,-0.175872 20.564543,20.564543 0 0 1 0.101674,-0.175323 20.564543,20.564543 0 0 1 0.103323,-0.173673 20.564543,20.564543 0 0 1 0.104972,-0.172575 20.564543,20.564543 0 0 1 0.107165,-0.172025 20.564543,20.564543 0 0 1 0.108269,-0.170926 20.564543,20.564543 0 0 1 0.109923,-0.169826 20.564543,20.564543 0 0 1 0.111567,-0.168178 20.564543,20.564543 0 0 1 0.113768,-0.167628 20.564543,20.564543 0 0 1 0.114866,-0.166529 20.564543,20.564543 0 0 1 0.116514,-0.16543 20.564543,20.564543 0 0 1 0.118715,-0.163781 20.564543,20.564543 0 0 1 0.119813,-0.163231 20.564543,20.564543 0 0 1 0.121461,-0.161583 20.564543,20.564543 0 0 1 0.123111,-0.160483 20.564543,20.564543 0 0 1 0.124759,-0.159384 20.564543,20.564543 0 0 1 0.125857,-0.157736 20.564543,20.564543 0 0 1 0.128057,-0.157185 20.564543,20.564543 0 0 1 0.129158,-0.155537 20.564543,20.564543 0 0 1 0.130804,-0.154438 20.564543,20.564543 0 0 1 0.132453,-0.152789 20.564543,20.564543 0 0 1 0.133553,-0.15169 20.564543,20.564543 0 0 1 0.135754,-0.15004 20.564543,20.564543 0 0 1 0.136299,-0.149491 20.564543,20.564543 0 0 1 0.1385,-0.147294 20.564543,20.564543 0 0 1 0.139597,-0.146194 20.564543,20.564543 0 0 1 0.141247,-0.145094 20.564543,20.564543 0 0 1 0.142347,-0.143446 20.564543,20.564543 0 0 1 0.143996,-0.142347 20.564543,20.564543 0 0 1 0.145645,-0.140698 20.564543,20.564543 0 0 1 0.146742,-0.139048 20.564543,20.564543 0 0 1 0.147845,-0.13795 20.564543,20.564543 0 0 1 0.14949,-0.1363 20.564543,20.564543 0 0 1 0.150589,-0.134652 20.564543,20.564543 0 0 1 0.152241,-0.133553 20.564543,20.564543 0 0 1 0.153338,-0.131905 20.564543,20.564543 0 0 1 0.154987,-0.130255 20.564543,20.564543 0 0 1 0.155539,-0.129156 20.564543,20.564543 0 0 1 0.157184,-0.126958 20.564543,20.564543 0 0 1 0.158834,-0.125858 20.564543,20.564543 0 0 1 0.159385,-0.12421 20.564543,20.564543 0 0 1 0.161032,-0.122561 20.564543,20.564543 0 0 1 0.162133,-0.120912 20.564543,20.564543 0 0 1 0.16323,-0.119263 20.564543,20.564543 0 0 1 0.164332,-0.118165 20.564543,20.564543 0 0 1 0.165978,-0.115965 20.564543,20.564543 0 0 1 0.16653,-0.114317 20.564543,20.564543 0 0 1 0.167628,-0.113218 20.564543,20.564543 0 0 1 0.169275,-0.111019 20.564543,20.564543 0 0 1 0.169829,-0.10992 20.564543,20.564543 0 0 1 0.171473,-0.107722 20.564543,20.564543 0 0 1 0.172026,-0.106077 20.564543,20.564543 0 0 1 0.173126,-0.104419 20.564543,20.564543 0 0 1 0.174223,-0.10278 20.564543,20.564543 0 0 1 0.175323,-0.101122 20.564543,20.564543 0 0 1 0.175873,-0.09948 20.564543,20.564543 0 0 1 0.177518,-0.09782 20.564543,20.564543 0 0 1 0.178073,-0.09563 20.564543,20.564543 0 0 1 0.17917,-0.09398 20.564543,20.564543 0 0 1 0.179718,-0.09234 20.564543,20.564543 0 0 1 0.180819,-0.09069 20.564543,20.564543 0 0 1 0.181917,-0.08849 20.564543,20.564543 0 0 1 0.182468,-0.08738 20.564543,20.564543 0 0 1 0.183566,-0.08519 20.564543,20.564543 0 0 1 0.184117,-0.08299 20.564543,20.564543 0 0 1 0.185214,-0.08189 20.564543,20.564543 0 0 1 0.185766,-0.07969 20.564543,20.564543 0 0 1 0.186863,-0.07804 20.564543,20.564543 0 0 1 0.187416,-0.07584 20.564543,20.564543 0 0 1 0.188512,-0.07419 20.564543,20.564543 0 0 1 0.188512,-0.07254 20.564543,20.564543 0 0 1 0.189613,-0.07035 20.564543,20.564543 0 0 1 0.190162,-0.06871 20.564543,20.564543 0 0 1 0.191261,-0.0665 20.564543,20.564543 0 0 1 0.191259,-0.06485 20.564543,20.564543 0 0 1 0.192361,-0.06321 20.564543,20.564543 0 0 1 0.192909,-0.06101 20.564543,20.564543 0 0 1 0.193459,-0.05936 20.564543,20.564543 0 0 1 0.194011,-0.05716 20.564543,20.564543 0 0 1 0.194556,-0.05551 20.564543,20.564543 0 0 1 0.195109,-0.05332 20.564543,20.564543 0 0 1 0.19566,-0.05167 20.564543,20.564543 0 0 1 0.196205,-0.04947 20.564543,20.564543 0 0 1 0.196209,-0.04782 20.564543,20.564543 0 0 1 0.197306,-0.04562 20.564543,20.564543 0 0 1 0.197306,-0.04397 20.564543,20.564543 0 0 1 0.197858,-0.04177 20.564543,20.564543 0 0 1 0.198403,-0.04012 20.564543,20.564543 0 0 1 0.198956,-0.03793 20.564543,20.564543 0 0 1 0.198958,-0.03572 20.564543,20.564543 0 0 1 0.199503,-0.03408 20.564543,20.564543 0 0 1 0.199503,-0.03243 20.564543,20.564543 0 0 1 0.200056,-0.02968 20.564543,20.564543 0 0 1 0.200055,-0.02858 20.564543,20.564543 0 0 1 0.200604,-0.02583 20.564543,20.564543 0 0 1 0.201153,-0.02418 20.564543,20.564543 0 0 1 0.201155,-0.02254 20.564543,20.564543 0 0 1 0.201153,-0.01978 20.564543,20.564543 0 0 1 0.201156,-0.01869 20.564543,20.564543 0 0 1 0.201701,-0.01594 20.564543,20.564543 0 0 1 0.201704,-0.01429 20.564543,20.564543 0 0 1 0.202254,-0.01263 20.564543,20.564543 0 0 1 0.201704,-0.0099 20.564543,20.564543 0 0 1 0.202253,-0.0088 20.564543,20.564543 0 0 1 0.202252,-0.0061 20.564543,20.564543 0 0 1 0.202254,-0.0044 20.564543,20.564543 0 0 1 0.202253,-0.0022 20.564543,20.564543 0 0 1 0.139597,-5.64e-4 z" />
    <path
       transform="scale(0.26458333)"
       d="m 270.13672,66.072266 v 84.060544 h 4.72656 V 66.072266 Z"
       style="display:inline;fill:#000000;stroke-width:0;stroke-linejoin:round"
       id="rect857-6" />
    <path
       id="rect857-5-10"
       style="display:inline;fill:#000000;stroke-width:0;stroke-linejoin:round"
       d="M 93.475119,38.475775 H 71.475162 v 1.250341 h 21.999957 z" />
    <path
       id="rect857-5-5-6"
       style="display:inline;fill:#000000;stroke-width:0;stroke-linejoin:round"
       d="M 87.015667,23.218316 71.71259,38.521391 72.596897,39.405699 87.682881,24.319715 h -0.667214 z" />
    <path
       id="path922-4"
       style="display:inline;fill:#000000;stroke-width:0;stroke-linejoin:round"
       d="m 72.357821,38.31584 -21.083223,5.649343 v 1.294858 l 21.406389,-5.736179 z" />
  </g>
</svg>
