<?xml version="1.0" encoding="UTF-8" standalone="no"?>
<svg
   xmlns:dc="http://purl.org/dc/elements/1.1/"
   xmlns:cc="http://creativecommons.org/ns#"
   xmlns:rdf="http://www.w3.org/1999/02/22-rdf-syntax-ns#"
   xmlns:svg="http://www.w3.org/2000/svg"
   xmlns="http://www.w3.org/2000/svg"
   xmlns:sodipodi="http://sodipodi.sourceforge.net/DTD/sodipodi-0.dtd"
   xmlns:inkscape="http://www.inkscape.org/namespaces/inkscape"
   sodipodi:docname="agriad github.svg"
   inkscape:version="1.0 (4035a4fb49, 2020-05-01)"
   id="svg8"
   version="1.1"
   viewBox="0 0 55.650959 61.493023"
   height="61.493023mm"
   width="55.650959mm">
  <defs
     id="defs2" />
  <sodipodi:namedview
     inkscape:window-maximized="1"
     inkscape:window-y="-8"
     inkscape:window-x="1272"
     inkscape:window-height="1017"
     inkscape:window-width="1920"
     inkscape:snap-global="false"
     inkscape:object-paths="false"
     showgrid="true"
     inkscape:document-rotation="0"
     inkscape:current-layer="layer3"
     inkscape:document-units="mm"
     inkscape:cy="55.486371"
     inkscape:cx="293.91665"
     inkscape:zoom="1.4"
     inkscape:pageshadow="2"
     inkscape:pageopacity="0.0"
     borderopacity="1.0"
     bordercolor="#666666"
     pagecolor="#ffffff"
     id="base">
    <inkscape:grid
       originy="-66.508325"
       originx="-134.73389"
       id="grid833"
       type="xygrid" />
  </sodipodi:namedview>
  <metadata
     id="metadata5">
    <rdf:RDF>
      <cc:Work
         rdf:about="">
        <dc:format>image/svg+xml</dc:format>
        <dc:type
           rdf:resource="http://purl.org/dc/dcmitype/StillImage" />
        <dc:title></dc:title>
      </cc:Work>
    </rdf:RDF>
  </metadata>
  <g
     transform="translate(-67.366945,-33.254164)"
     style="display:none"
     id="layer1"
     inkscape:groupmode="layer"
     inkscape:label="folder">
    <path
       sodipodi:nodetypes="cccccccc"
       id="path835"
       d="m 35.117056,73.805332 2.381251,39.687498 h 51.593748 l 1.32292,-39.687498 H 48.08164 l -0.529167,-3.96875 h -12.7 z"
       style="fill:#000000;stroke:#000000;stroke-width:0;stroke-linecap:butt;stroke-linejoin:miter;stroke-miterlimit:4;stroke-dasharray:none;stroke-opacity:1" />
  </g>
  <g
     transform="translate(-67.366945,-33.254164)"
     style="display:none"
     inkscape:label="donut"
     id="layer2"
     inkscape:groupmode="layer">
    <path
       d="m 113.77082,27.781249 a 7.2894726,7.2894726 0 0 0 -0.11679,0.001 7.2894726,7.2894726 0 0 0 -0.11679,0.0031 7.2894726,7.2894726 0 0 0 -0.11678,0.0047 7.2894726,7.2894726 0 0 0 -0.11628,0.0067 7.2894726,7.2894726 0 0 0 -0.11678,0.0083 7.2894726,7.2894726 0 0 0 -0.11628,0.01034 7.2894726,7.2894726 0 0 0 -0.11627,0.0124 7.2894726,7.2894726 0 0 0 -0.11576,0.01395 7.2894726,7.2894726 0 0 0 -0.11575,0.01602 7.2894726,7.2894726 0 0 0 -0.11524,0.01757 7.2894726,7.2894726 0 0 0 -0.11524,0.01964 7.2894726,7.2894726 0 0 0 -0.11472,0.0217 7.2894726,7.2894726 0 0 0 -0.1142,0.02325 7.2894726,7.2894726 0 0 0 -0.11421,0.02532 7.2894726,7.2894726 0 0 0 -0.11369,0.02687 7.2894726,7.2894726 0 0 0 -0.11317,0.02894 7.2894726,7.2894726 0 0 0 -0.11265,0.03049 7.2894726,7.2894726 0 0 0 -0.11214,0.03256 7.2894726,7.2894726 0 0 0 -0.11162,0.03411 7.2894726,7.2894726 0 0 0 -0.11111,0.03566 7.2894726,7.2894726 0 0 0 -0.11058,0.03772 7.2894726,7.2894726 0 0 0 -0.11007,0.03979 7.2894726,7.2894726 0 0 0 -0.10904,0.04134 7.2894726,7.2894726 0 0 0 -0.10852,0.04289 7.2894726,7.2894726 0 0 0 -0.10801,0.04496 7.2894726,7.2894726 0 0 0 -0.10697,0.04651 7.2894726,7.2894726 0 0 0 -0.10645,0.04806 7.2894726,7.2894726 0 0 0 -0.10594,0.04961 7.2894726,7.2894726 0 0 0 -0.10438,0.05168 7.2894726,7.2894726 0 0 0 -0.10387,0.05323 7.2894726,7.2894726 0 0 0 -0.10335,0.05478 7.2894726,7.2894726 0 0 0 -0.10232,0.05684 7.2894726,7.2894726 0 0 0 -0.10129,0.05788 7.2894726,7.2894726 0 0 0 -0.10025,0.05994 7.2894726,7.2894726 0 0 0 -0.0992,0.0615 7.2894726,7.2894726 0 0 0 -0.0982,0.06304 7.2894726,7.2894726 0 0 0 -0.0977,0.0646 7.2894726,7.2894726 0 0 0 -0.0961,0.06615 7.2894726,7.2894726 0 0 0 -0.0951,0.06718 7.2894726,7.2894726 0 0 0 -0.0941,0.06924 7.2894726,7.2894726 0 0 0 -0.093,0.0708 7.2894726,7.2894726 0 0 0 -0.092,0.07183 7.2894726,7.2894726 0 0 0 -0.0904,0.0739 7.2894726,7.2894726 0 0 0 -0.0899,0.07493 7.2894726,7.2894726 0 0 0 -0.0879,0.07648 7.2894726,7.2894726 0 0 0 -0.0873,0.07803 7.2894726,7.2894726 0 0 0 -0.0858,0.07906 7.2894726,7.2894726 0 0 0 -0.0842,0.08062 7.2894726,7.2894726 0 0 0 -0.0832,0.08165 7.2894726,7.2894726 0 0 0 -0.0822,0.08372 7.2894726,7.2894726 0 0 0 -0.0806,0.08423 7.2894726,7.2894726 0 0 0 -0.0791,0.08578 7.2894726,7.2894726 0 0 0 -0.0775,0.08733 7.2894726,7.2894726 0 0 0 -0.0765,0.08837 7.2894726,7.2894726 0 0 0 -0.0749,0.0894 7.2894726,7.2894726 0 0 0 -0.0734,0.09095 7.2894726,7.2894726 0 0 0 -0.0724,0.09198 7.2894726,7.2894726 0 0 0 -0.0703,0.09302 7.2894726,7.2894726 0 0 0 -0.0692,0.09405 7.2894726,7.2894726 0 0 0 -0.0677,0.09508 7.2894726,7.2894726 0 0 0 -0.0661,0.09664 7.2894726,7.2894726 0 0 0 -0.0641,0.09715 7.2894726,7.2894726 0 0 0 -0.063,0.0987 7.2894726,7.2894726 0 0 0 -0.0615,0.09922 7.2894726,7.2894726 0 0 0 -0.0594,0.100253 7.2894726,7.2894726 0 0 0 -0.0584,0.101285 7.2894726,7.2894726 0 0 0 -0.0563,0.10232 7.2894726,7.2894726 0 0 0 -0.0548,0.102836 7.2894726,7.2894726 0 0 0 -0.0532,0.104386 7.2894726,7.2894726 0 0 0 -0.0512,0.104902 7.2894726,7.2894726 0 0 0 -0.0501,0.10542 7.2894726,7.2894726 0 0 0 -0.0481,0.106455 7.2894726,7.2894726 0 0 0 -0.0465,0.106969 7.2894726,7.2894726 0 0 0 -0.0444,0.108005 7.2894726,7.2894726 0 0 0 -0.0429,0.108519 7.2894726,7.2894726 0 0 0 -0.0413,0.109553 7.2894726,7.2894726 0 0 0 -0.0393,0.109556 7.2894726,7.2894726 0 0 0 -0.0377,0.110588 7.2894726,7.2894726 0 0 0 -0.0362,0.111104 7.2894726,7.2894726 0 0 0 -0.0341,0.11162 7.2894726,7.2894726 0 0 0 -0.032,0.112654 7.2894726,7.2894726 0 0 0 -0.0305,0.112655 7.2894726,7.2894726 0 0 0 -0.0289,0.113172 7.2894726,7.2894726 0 0 0 -0.0269,0.113689 7.2894726,7.2894726 0 0 0 -0.0248,0.113686 7.2894726,7.2894726 0 0 0 -0.0232,0.114724 7.2894726,7.2894726 0 0 0 -0.0217,0.11472 7.2894726,7.2894726 0 0 0 -0.0191,0.11524 7.2894726,7.2894726 0 0 0 -0.0181,0.115239 7.2894726,7.2894726 0 0 0 -0.0155,0.115755 7.2894726,7.2894726 0 0 0 -0.014,0.115755 7.2894726,7.2894726 0 0 0 -0.0124,0.116271 7.2894726,7.2894726 0 0 0 -0.0103,0.116272 7.2894726,7.2894726 0 0 0 -0.008,0.116789 7.2894726,7.2894726 0 0 0 -0.007,0.116272 7.2894726,7.2894726 0 0 0 -0.005,0.116789 7.2894726,7.2894726 0 0 0 -0.003,0.116787 7.2894726,7.2894726 0 0 0 -10e-4,0.11679 7.2894726,7.2894726 0 0 0 0,0.0057 7.2894726,7.2894726 0 0 0 10e-4,0.11679 7.2894726,7.2894726 0 0 0 0.003,0.11679 7.2894726,7.2894726 0 0 0 0.005,0.116787 7.2894726,7.2894726 0 0 0 0.007,0.116274 7.2894726,7.2894726 0 0 0 0.008,0.116787 7.2894726,7.2894726 0 0 0 0.0103,0.116273 7.2894726,7.2894726 0 0 0 0.0124,0.116272 7.2894726,7.2894726 0 0 0 0.014,0.115755 7.2894726,7.2894726 0 0 0 0.016,0.115755 7.2894726,7.2894726 0 0 0 0.0176,0.115239 7.2894726,7.2894726 0 0 0 0.0196,0.115237 7.2894726,7.2894726 0 0 0 0.0217,0.114723 7.2894726,7.2894726 0 0 0 0.0233,0.114205 7.2894726,7.2894726 0 0 0 0.0253,0.114205 7.2894726,7.2894726 0 0 0 0.0269,0.113686 7.2894726,7.2894726 0 0 0 0.0289,0.113173 7.2894726,7.2894726 0 0 0 0.0305,0.112654 7.2894726,7.2894726 0 0 0 0.0326,0.112138 7.2894726,7.2894726 0 0 0 0.0341,0.11162 7.2894726,7.2894726 0 0 0 0.0357,0.111107 7.2894726,7.2894726 0 0 0 0.0377,0.110585 7.2894726,7.2894726 0 0 0 0.0398,0.110072 7.2894726,7.2894726 0 0 0 0.0413,0.109037 7.2894726,7.2894726 0 0 0 0.0429,0.108522 7.2894726,7.2894726 0 0 0 0.045,0.108003 7.2894726,7.2894726 0 0 0 0.0465,0.106971 7.2894726,7.2894726 0 0 0 0.0481,0.106452 7.2894726,7.2894726 0 0 0 0.0496,0.105937 7.2894726,7.2894726 0 0 0 0.0517,0.104386 7.2894726,7.2894726 0 0 0 0.0532,0.10387 7.2894726,7.2894726 0 0 0 0.0548,0.103352 7.2894726,7.2894726 0 0 0 0.0568,0.102319 7.2894726,7.2894726 0 0 0 0.0579,0.101288 7.2894726,7.2894726 0 0 0 0.06,0.100251 7.2894726,7.2894726 0 0 0 0.0615,0.09922 7.2894726,7.2894726 0 0 0 0.0631,0.09819 7.2894726,7.2894726 0 0 0 0.0646,0.09767 7.2894726,7.2894726 0 0 0 0.0661,0.09612 7.2894726,7.2894726 0 0 0 0.0672,0.09508 7.2894726,7.2894726 0 0 0 0.0692,0.09405 7.2894726,7.2894726 0 0 0 0.0708,0.09302 7.2894726,7.2894726 0 0 0 0.0718,0.09199 7.2894726,7.2894726 0 0 0 0.0739,0.09043 7.2894726,7.2894726 0 0 0 0.0749,0.08992 7.2894726,7.2894726 0 0 0 0.0765,0.08785 7.2894726,7.2894726 0 0 0 0.078,0.08733 7.2894726,7.2894726 0 0 0 0.0791,0.08578 7.2894726,7.2894726 0 0 0 0.0806,0.08423 7.2894726,7.2894726 0 0 0 0.0817,0.0832 7.2894726,7.2894726 0 0 0 0.0837,0.08217 7.2894726,7.2894726 0 0 0 0.0842,0.08062 7.2894726,7.2894726 0 0 0 0.0858,0.07906 7.2894726,7.2894726 0 0 0 0.0873,0.07751 7.2894726,7.2894726 0 0 0 0.0884,0.07648 7.2894726,7.2894726 0 0 0 0.0894,0.07493 7.2894726,7.2894726 0 0 0 0.091,0.07338 7.2894726,7.2894726 0 0 0 0.092,0.07235 7.2894726,7.2894726 0 0 0 0.093,0.07028 7.2894726,7.2894726 0 0 0 0.0941,0.06925 7.2894726,7.2894726 0 0 0 0.0951,0.0677 7.2894726,7.2894726 0 0 0 0.0966,0.06615 7.2894726,7.2894726 0 0 0 0.0971,0.06408 7.2894726,7.2894726 0 0 0 0.0987,0.06305 7.2894726,7.2894726 0 0 0 0.0992,0.0615 7.2894726,7.2894726 0 0 0 0.10025,0.05943 7.2894726,7.2894726 0 0 0 0.10129,0.0584 7.2894726,7.2894726 0 0 0 0.10232,0.05633 7.2894726,7.2894726 0 0 0 0.10283,0.05478 7.2894726,7.2894726 0 0 0 0.10439,0.05323 7.2894726,7.2894726 0 0 0 0.1049,0.05116 7.2894726,7.2894726 0 0 0 0.10542,0.05013 7.2894726,7.2894726 0 0 0 0.10646,0.04806 7.2894726,7.2894726 0 0 0 0.10696,0.04651 7.2894726,7.2894726 0 0 0 0.10801,0.04444 7.2894726,7.2894726 0 0 0 0.10852,0.04289 7.2894726,7.2894726 0 0 0 0.10955,0.04134 7.2894726,7.2894726 0 0 0 0.10956,0.03927 7.2894726,7.2894726 0 0 0 0.11059,0.03772 7.2894726,7.2894726 0 0 0 0.1111,0.03617 7.2894726,7.2894726 0 0 0 0.11162,0.03411 7.2894726,7.2894726 0 0 0 0.11265,0.03204 7.2894726,7.2894726 0 0 0 0.11266,0.03049 7.2894726,7.2894726 0 0 0 0.11317,0.02894 7.2894726,7.2894726 0 0 0 0.11369,0.02687 7.2894726,7.2894726 0 0 0 0.11369,0.02481 7.2894726,7.2894726 0 0 0 0.11472,0.02325 7.2894726,7.2894726 0 0 0 0.11472,0.0217 7.2894726,7.2894726 0 0 0 0.11524,0.01912 7.2894726,7.2894726 0 0 0 0.11524,0.01808 7.2894726,7.2894726 0 0 0 0.11575,0.0155 7.2894726,7.2894726 0 0 0 0.11576,0.01395 7.2894726,7.2894726 0 0 0 0.11627,0.0124 7.2894726,7.2894726 0 0 0 0.11627,0.01033 7.2894726,7.2894726 0 0 0 0.11679,0.0083 7.2894726,7.2894726 0 0 0 0.11627,0.0067 7.2894726,7.2894726 0 0 0 0.11679,0.0047 7.2894726,7.2894726 0 0 0 0.11679,0.0026 7.2894726,7.2894726 0 0 0 0.11679,0.001 7.2894726,7.2894726 0 0 0 0.006,0 7.2894726,7.2894726 0 0 0 0.11679,-0.001 7.2894726,7.2894726 0 0 0 0.11679,-0.0031 7.2894726,7.2894726 0 0 0 0.11679,-0.0047 7.2894726,7.2894726 0 0 0 0.11627,-0.0067 7.2894726,7.2894726 0 0 0 0.11679,-0.0083 7.2894726,7.2894726 0 0 0 0.11627,-0.01033 7.2894726,7.2894726 0 0 0 0.11627,-0.0124 7.2894726,7.2894726 0 0 0 0.11576,-0.01395 7.2894726,7.2894726 0 0 0 0.11575,-0.01602 7.2894726,7.2894726 0 0 0 0.11524,-0.01757 7.2894726,7.2894726 0 0 0 0.11524,-0.01964 7.2894726,7.2894726 0 0 0 0.11472,-0.0217 7.2894726,7.2894726 0 0 0 0.11421,-0.02325 7.2894726,7.2894726 0 0 0 0.1142,-0.02532 7.2894726,7.2894726 0 0 0 0.11369,-0.02687 7.2894726,7.2894726 0 0 0 0.11317,-0.02894 7.2894726,7.2894726 0 0 0 0.11265,-0.03049 7.2894726,7.2894726 0 0 0 0.11214,-0.03256 7.2894726,7.2894726 0 0 0 0.11162,-0.03411 7.2894726,7.2894726 0 0 0 0.11111,-0.03565 7.2894726,7.2894726 0 0 0 0.11058,-0.03772 7.2894726,7.2894726 0 0 0 0.11008,-0.03979 7.2894726,7.2894726 0 0 0 0.10903,-0.04134 7.2894726,7.2894726 0 0 0 0.10852,-0.04289 7.2894726,7.2894726 0 0 0 0.10801,-0.04496 7.2894726,7.2894726 0 0 0 0.10697,-0.04651 7.2894726,7.2894726 0 0 0 0.10645,-0.04806 7.2894726,7.2894726 0 0 0 0.10594,-0.04961 7.2894726,7.2894726 0 0 0 0.10438,-0.05168 7.2894726,7.2894726 0 0 0 0.10387,-0.05323 7.2894726,7.2894726 0 0 0 0.10336,-0.05478 7.2894726,7.2894726 0 0 0 0.10231,-0.05684 7.2894726,7.2894726 0 0 0 0.10129,-0.05788 7.2894726,7.2894726 0 0 0 0.10025,-0.05995 7.2894726,7.2894726 0 0 0 0.0992,-0.0615 7.2894726,7.2894726 0 0 0 0.0982,-0.06305 7.2894726,7.2894726 0 0 0 0.0977,-0.06459 7.2894726,7.2894726 0 0 0 0.0961,-0.06615 7.2894726,7.2894726 0 0 0 0.0951,-0.06718 7.2894726,7.2894726 0 0 0 0.094,-0.06924 7.2894726,7.2894726 0 0 0 0.093,-0.0708 7.2894726,7.2894726 0 0 0 0.092,-0.07183 7.2894726,7.2894726 0 0 0 0.0904,-0.0739 7.2894726,7.2894726 0 0 0 0.0899,-0.07493 7.2894726,7.2894726 0 0 0 0.0879,-0.07648 7.2894726,7.2894726 0 0 0 0.0873,-0.07803 7.2894726,7.2894726 0 0 0 0.0858,-0.07906 7.2894726,7.2894726 0 0 0 0.0842,-0.08062 7.2894726,7.2894726 0 0 0 0.0832,-0.08165 7.2894726,7.2894726 0 0 0 0.0822,-0.08372 7.2894726,7.2894726 0 0 0 0.0806,-0.08423 7.2894726,7.2894726 0 0 0 0.0791,-0.08578 7.2894726,7.2894726 0 0 0 0.0775,-0.08733 7.2894726,7.2894726 0 0 0 0.0765,-0.08837 7.2894726,7.2894726 0 0 0 0.0749,-0.0894 7.2894726,7.2894726 0 0 0 0.0734,-0.09095 7.2894726,7.2894726 0 0 0 0.0724,-0.09198 7.2894726,7.2894726 0 0 0 0.0703,-0.09302 7.2894726,7.2894726 0 0 0 0.0693,-0.09405 7.2894726,7.2894726 0 0 0 0.0677,-0.09508 7.2894726,7.2894726 0 0 0 0.0662,-0.09664 7.2894726,7.2894726 0 0 0 0.0641,-0.09715 7.2894726,7.2894726 0 0 0 0.063,-0.0987 7.2894726,7.2894726 0 0 0 0.0615,-0.09922 7.2894726,7.2894726 0 0 0 0.0594,-0.100253 7.2894726,7.2894726 0 0 0 0.0584,-0.101285 7.2894726,7.2894726 0 0 0 0.0563,-0.10232 7.2894726,7.2894726 0 0 0 0.0548,-0.102835 7.2894726,7.2894726 0 0 0 0.0532,-0.104386 7.2894726,7.2894726 0 0 0 0.0512,-0.104902 7.2894726,7.2894726 0 0 0 0.0501,-0.105421 7.2894726,7.2894726 0 0 0 0.0481,-0.106455 7.2894726,7.2894726 0 0 0 0.0465,-0.106969 7.2894726,7.2894726 0 0 0 0.0444,-0.108005 7.2894726,7.2894726 0 0 0 0.0429,-0.108519 7.2894726,7.2894726 0 0 0 0.0413,-0.109553 7.2894726,7.2894726 0 0 0 0.0393,-0.109556 7.2894726,7.2894726 0 0 0 0.0377,-0.110588 7.2894726,7.2894726 0 0 0 0.0362,-0.111104 7.2894726,7.2894726 0 0 0 0.0341,-0.11162 7.2894726,7.2894726 0 0 0 0.032,-0.112654 7.2894726,7.2894726 0 0 0 0.0305,-0.112654 7.2894726,7.2894726 0 0 0 0.0289,-0.113173 7.2894726,7.2894726 0 0 0 0.0269,-0.113689 7.2894726,7.2894726 0 0 0 0.0248,-0.113686 7.2894726,7.2894726 0 0 0 0.0232,-0.114724 7.2894726,7.2894726 0 0 0 0.0217,-0.11472 7.2894726,7.2894726 0 0 0 0.0191,-0.11524 7.2894726,7.2894726 0 0 0 0.0181,-0.115239 7.2894726,7.2894726 0 0 0 0.0155,-0.115755 7.2894726,7.2894726 0 0 0 0.0139,-0.115755 7.2894726,7.2894726 0 0 0 0.0124,-0.116271 7.2894726,7.2894726 0 0 0 0.0103,-0.116272 7.2894726,7.2894726 0 0 0 0.008,-0.116789 7.2894726,7.2894726 0 0 0 0.007,-0.116271 7.2894726,7.2894726 0 0 0 0.005,-0.11679 7.2894726,7.2894726 0 0 0 0.003,-0.116787 7.2894726,7.2894726 0 0 0 10e-4,-0.11679 7.2894726,7.2894726 0 0 0 0,-0.0057 7.2894726,7.2894726 0 0 0 -10e-4,-0.11679 7.2894726,7.2894726 0 0 0 -0.003,-0.11679 7.2894726,7.2894726 0 0 0 -0.005,-0.116787 7.2894726,7.2894726 0 0 0 -0.007,-0.116274 7.2894726,7.2894726 0 0 0 -0.008,-0.116787 7.2894726,7.2894726 0 0 0 -0.0103,-0.116273 7.2894726,7.2894726 0 0 0 -0.0124,-0.116272 7.2894726,7.2894726 0 0 0 -0.0139,-0.115755 7.2894726,7.2894726 0 0 0 -0.016,-0.115755 7.2894726,7.2894726 0 0 0 -0.0176,-0.115239 7.2894726,7.2894726 0 0 0 -0.0196,-0.115237 7.2894726,7.2894726 0 0 0 -0.0217,-0.114723 7.2894726,7.2894726 0 0 0 -0.0232,-0.114205 7.2894726,7.2894726 0 0 0 -0.0253,-0.114205 7.2894726,7.2894726 0 0 0 -0.0269,-0.113686 7.2894726,7.2894726 0 0 0 -0.0289,-0.113173 7.2894726,7.2894726 0 0 0 -0.0305,-0.112654 7.2894726,7.2894726 0 0 0 -0.0326,-0.112138 7.2894726,7.2894726 0 0 0 -0.0341,-0.11162 7.2894726,7.2894726 0 0 0 -0.0357,-0.111107 7.2894726,7.2894726 0 0 0 -0.0377,-0.110585 7.2894726,7.2894726 0 0 0 -0.0398,-0.110072 7.2894726,7.2894726 0 0 0 -0.0413,-0.109037 7.2894726,7.2894726 0 0 0 -0.0429,-0.108522 7.2894726,7.2894726 0 0 0 -0.045,-0.108003 7.2894726,7.2894726 0 0 0 -0.0465,-0.106971 7.2894726,7.2894726 0 0 0 -0.0481,-0.106452 7.2894726,7.2894726 0 0 0 -0.0496,-0.105937 7.2894726,7.2894726 0 0 0 -0.0517,-0.104386 7.2894726,7.2894726 0 0 0 -0.0532,-0.10387 7.2894726,7.2894726 0 0 0 -0.0548,-0.103351 7.2894726,7.2894726 0 0 0 -0.0568,-0.10232 7.2894726,7.2894726 0 0 0 -0.0579,-0.101288 7.2894726,7.2894726 0 0 0 -0.06,-0.10025 7.2894726,7.2894726 0 0 0 -0.0615,-0.09922 7.2894726,7.2894726 0 0 0 -0.0631,-0.09819 7.2894726,7.2894726 0 0 0 -0.0646,-0.09767 7.2894726,7.2894726 0 0 0 -0.0662,-0.09612 7.2894726,7.2894726 0 0 0 -0.0672,-0.09508 7.2894726,7.2894726 0 0 0 -0.0692,-0.09405 7.2894726,7.2894726 0 0 0 -0.0708,-0.09302 7.2894726,7.2894726 0 0 0 -0.0718,-0.09199 7.2894726,7.2894726 0 0 0 -0.0739,-0.09043 7.2894726,7.2894726 0 0 0 -0.0749,-0.08992 7.2894726,7.2894726 0 0 0 -0.0765,-0.08785 7.2894726,7.2894726 0 0 0 -0.078,-0.08733 7.2894726,7.2894726 0 0 0 -0.0791,-0.08578 7.2894726,7.2894726 0 0 0 -0.0806,-0.08423 7.2894726,7.2894726 0 0 0 -0.0816,-0.0832 7.2894726,7.2894726 0 0 0 -0.0837,-0.08217 7.2894726,7.2894726 0 0 0 -0.0842,-0.08062 7.2894726,7.2894726 0 0 0 -0.0858,-0.07906 7.2894726,7.2894726 0 0 0 -0.0873,-0.07752 7.2894726,7.2894726 0 0 0 -0.0884,-0.07648 7.2894726,7.2894726 0 0 0 -0.0894,-0.07493 7.2894726,7.2894726 0 0 0 -0.0909,-0.07338 7.2894726,7.2894726 0 0 0 -0.092,-0.07235 7.2894726,7.2894726 0 0 0 -0.093,-0.07028 7.2894726,7.2894726 0 0 0 -0.094,-0.06925 7.2894726,7.2894726 0 0 0 -0.0951,-0.0677 7.2894726,7.2894726 0 0 0 -0.0966,-0.06615 7.2894726,7.2894726 0 0 0 -0.0971,-0.06408 7.2894726,7.2894726 0 0 0 -0.0987,-0.06304 7.2894726,7.2894726 0 0 0 -0.0992,-0.0615 7.2894726,7.2894726 0 0 0 -0.10025,-0.05943 7.2894726,7.2894726 0 0 0 -0.10128,-0.05839 7.2894726,7.2894726 0 0 0 -0.10232,-0.05633 7.2894726,7.2894726 0 0 0 -0.10284,-0.05478 7.2894726,7.2894726 0 0 0 -0.10439,-0.05323 7.2894726,7.2894726 0 0 0 -0.1049,-0.05116 7.2894726,7.2894726 0 0 0 -0.10542,-0.05013 7.2894726,7.2894726 0 0 0 -0.10645,-0.04806 7.2894726,7.2894726 0 0 0 -0.10697,-0.04651 7.2894726,7.2894726 0 0 0 -0.10801,-0.04444 7.2894726,7.2894726 0 0 0 -0.10852,-0.04289 7.2894726,7.2894726 0 0 0 -0.10955,-0.04134 7.2894726,7.2894726 0 0 0 -0.10956,-0.03927 7.2894726,7.2894726 0 0 0 -0.11058,-0.03772 7.2894726,7.2894726 0 0 0 -0.11111,-0.03617 7.2894726,7.2894726 0 0 0 -0.11162,-0.03411 7.2894726,7.2894726 0 0 0 -0.11265,-0.03204 7.2894726,7.2894726 0 0 0 -0.11266,-0.03049 7.2894726,7.2894726 0 0 0 -0.11317,-0.02894 7.2894726,7.2894726 0 0 0 -0.11369,-0.02687 7.2894726,7.2894726 0 0 0 -0.11368,-0.0248 7.2894726,7.2894726 0 0 0 -0.11473,-0.02326 7.2894726,7.2894726 0 0 0 -0.11472,-0.0217 7.2894726,7.2894726 0 0 0 -0.11524,-0.01912 7.2894726,7.2894726 0 0 0 -0.11524,-0.01809 7.2894726,7.2894726 0 0 0 -0.11575,-0.0155 7.2894726,7.2894726 0 0 0 -0.11576,-0.01395 7.2894726,7.2894726 0 0 0 -0.11627,-0.0124 7.2894726,7.2894726 0 0 0 -0.11627,-0.01034 7.2894726,7.2894726 0 0 0 -0.11679,-0.0083 7.2894726,7.2894726 0 0 0 -0.11627,-0.0067 7.2894726,7.2894726 0 0 0 -0.11679,-0.0047 7.2894726,7.2894726 0 0 0 -0.11679,-0.0026 7.2894726,7.2894726 0 0 0 -0.11679,-0.001 7.2894726,7.2894726 0 0 0 -0.006,0 z"
       style="fill:#000000;stroke-width:0;stroke-linejoin:round;stroke-miterlimit:4;stroke-dasharray:none"
       id="path838" />
    <path
       transform="scale(0.26458333)"
       d="m 189.11328,68.082031 a 87.499986,87.499986 0 0 0 -87.5,87.499999 87.499986,87.499986 0 0 0 87.5,87.5 87.499986,87.499986 0 0 0 87.5,-87.5 87.499986,87.499986 0 0 0 -87.5,-87.499999 z m -8.7832,13.144531 9.68945,2.464844 9.68945,2.466797 c 0,0 0.0621,0.819733 0.0332,1.228516 -0.0302,0.420601 -0.10945,0.837262 -0.21289,1.246093 -0.10708,0.423213 -0.24269,0.841325 -0.41992,1.240235 -0.1753,0.394137 -0.63282,1.130859 -0.63282,1.130859 l -9.6914,-2.466797 -9.69141,-2.464843 c 0,0 -0.0485,-0.864941 -0.0137,-1.294922 0.0348,-0.435179 0.11644,-0.868083 0.22461,-1.291016 0.10454,-0.408563 0.23376,-0.81138 0.4082,-1.195312 0.16966,-0.373078 0.61719,-1.064453 0.61719,-1.064454 z m -25.92578,2.730469 c 0,0 0.833,0.23214 1.22851,0.404297 0.4003,0.174236 0.78357,0.3912 1.14844,0.63086 0.35248,0.231525 0.69156,0.485765 0.99805,0.77539 0.29775,0.281613 0.80664,0.927734 0.80664,0.927734 l -5.47852,8.365235 -5.48047,8.365233 c 0,0 -0.79475,-0.2087 -1.17187,-0.36914 -0.38797,-0.16524 -0.75629,-0.37485 -1.10938,-0.60547 -0.36548,-0.23871 -0.71741,-0.50348 -1.03711,-0.80078 -0.31585,-0.29378 -0.86328,-0.96289 -0.86328,-0.96289 l 5.47852,-8.365234 z m 59.83593,11.744141 c 0,0 0.8649,0.01697 1.29102,0.08398 0.43126,0.0678 0.85799,0.180319 1.27148,0.320313 0.39943,0.135292 0.79064,0.296812 1.16016,0.5 0.35909,0.197514 1.01563,0.693359 1.01563,0.693359 l -3.19532,9.476566 -3.19531,9.47656 c 0,0 -0.8232,-0.002 -1.22851,-0.0625 -0.4171,-0.0622 -0.82677,-0.17243 -1.22657,-0.30664 -0.41385,-0.13896 -0.82086,-0.3064 -1.20508,-0.51367 -0.37967,-0.20474 -1.07812,-0.71484 -1.07812,-0.71484 l 3.19531,-9.47657 z m -42.10156,11.906248 c 0,0 0.45565,0.68422 0.63086,1.05469 0.18013,0.38128 0.3171,0.78252 0.42774,1.18945 0.11452,0.42127 0.2008,0.85455 0.24218,1.28906 0.0408,0.42941 0.004,1.29297 0.004,1.29297 l -9.65234,2.61133 -9.6543,2.61133 c 0,0 -0.4673,-0.72767 -0.64844,-1.11914 -0.18338,-0.39619 -0.32602,-0.81477 -0.43945,-1.23633 -0.10953,-0.40724 -0.19381,-0.82208 -0.23047,-1.24219 -0.0355,-0.40829 0.0137,-1.23046 0.0137,-1.23047 l 9.65235,-2.60937 z m 73.58594,1.27149 c 0.25662,0.005 0.46289,0.0156 0.46289,0.0156 l 2.69727,9.62891 2.69531,9.63086 c 0,0 -0.67991,0.46211 -1.04883,0.64062 -0.37965,0.18358 -0.77959,0.32328 -1.18555,0.4375 -0.42023,0.11826 -0.85096,0.20863 -1.28515,0.25391 -0.42904,0.0446 -1.29492,0.0156 -1.29493,0.0156 l -2.69531,-9.6289 -2.69726,-9.63086 c 0,0 0.72344,-0.47354 1.11328,-0.65821 0.39451,-0.187 0.80991,-0.33212 1.23047,-0.44921 0.40624,-0.1132 0.82047,-0.20186 1.24023,-0.24219 0.20399,-0.0195 0.51096,-0.019 0.76758,-0.0137 z m -129.07813,5.42578 9.3379,3.57617 9.33789,3.57812 c 0,0 -0.0348,0.82203 -0.11133,1.22461 -0.0791,0.41421 -0.20512,0.81891 -0.35547,1.21289 -0.15564,0.40787 -0.33989,0.80806 -0.5625,1.1836 -0.22001,0.37103 -0.75977,1.04881 -0.75977,1.04883 l -9.33789,-3.57813 -9.33789,-3.57812 c 0,0 0.0505,-0.86407 0.13477,-1.28711 0.0853,-0.42817 0.21635,-0.84843 0.37304,-1.25586 0.15141,-0.3936 0.32697,-0.77964 0.54493,-1.14063 0.21191,-0.35078 0.73632,-0.98437 0.73632,-0.98437 z m 72.44532,13.72656 a 27.550763,27.550763 0 0 1 0.0215,0 27.550763,27.550763 0 0 1 0.44141,0.004 27.550763,27.550763 0 0 1 0.4414,0.01 27.550763,27.550763 0 0 1 0.44141,0.0195 27.550763,27.550763 0 0 1 0.43945,0.0254 27.550763,27.550763 0 0 1 0.44141,0.0312 27.550763,27.550763 0 0 1 0.43945,0.0391 27.550763,27.550763 0 0 1 0.43946,0.0469 27.550763,27.550763 0 0 1 0.4375,0.0527 27.550763,27.550763 0 0 1 0.4375,0.0586 27.550763,27.550763 0 0 1 0.43554,0.0684 27.550763,27.550763 0 0 1 0.43555,0.0723 27.550763,27.550763 0 0 1 0.43359,0.082 27.550763,27.550763 0 0 1 0.4336,0.0879 27.550763,27.550763 0 0 1 0.42968,0.0937 27.550763,27.550763 0 0 1 0.42969,0.10156 27.550763,27.550763 0 0 1 0.42774,0.10937 27.550763,27.550763 0 0 1 0.42578,0.11524 27.550763,27.550763 0 0 1 0.42578,0.12109 27.550763,27.550763 0 0 1 0.42187,0.12891 27.550763,27.550763 0 0 1 0.41993,0.13672 27.550763,27.550763 0 0 1 0.41796,0.14257 27.550763,27.550763 0 0 1 0.41407,0.14844 27.550763,27.550763 0 0 1 0.41406,0.15625 27.550763,27.550763 0 0 1 0.41016,0.16016 27.550763,27.550763 0 0 1 0.4082,0.16797 27.550763,27.550763 0 0 1 0.4043,0.17578 27.550763,27.550763 0 0 1 0.40234,0.18164 27.550763,27.550763 0 0 1 0.39844,0.19141 27.550763,27.550763 0 0 1 0.39648,0.19335 27.550763,27.550763 0 0 1 0.39453,0.20118 27.550763,27.550763 0 0 1 0.38867,0.20703 27.550763,27.550763 0 0 1 0.38672,0.21484 27.550763,27.550763 0 0 1 0.38282,0.21875 27.550763,27.550763 0 0 1 0.3789,0.22461 27.550763,27.550763 0 0 1 0.375,0.23438 27.550763,27.550763 0 0 1 0.37305,0.23828 27.550763,27.550763 0 0 1 0.36719,0.24219 27.550763,27.550763 0 0 1 0.36523,0.25 27.550763,27.550763 0 0 1 0.35938,0.25585 27.550763,27.550763 0 0 1 0.35546,0.26172 27.550763,27.550763 0 0 1 0.35157,0.26563 27.550763,27.550763 0 0 1 0.34765,0.27344 27.550763,27.550763 0 0 1 0.34375,0.27734 27.550763,27.550763 0 0 1 0.33789,0.2832 27.550763,27.550763 0 0 1 0.33399,0.28906 27.550763,27.550763 0 0 1 0.33008,0.29297 27.550763,27.550763 0 0 1 0.32421,0.29883 27.550763,27.550763 0 0 1 0.31836,0.30469 27.550763,27.550763 0 0 1 0.31641,0.31055 27.550763,27.550763 0 0 1 0.30859,0.31445 27.550763,27.550763 0 0 1 0.30469,0.31836 27.550763,27.550763 0 0 1 0.29883,0.32422 27.550763,27.550763 0 0 1 0.29492,0.33008 27.550763,27.550763 0 0 1 0.28906,0.33203 27.550763,27.550763 0 0 1 0.28321,0.33984 27.550763,27.550763 0 0 1 0.27929,0.3418 27.550763,27.550763 0 0 1 0.27149,0.34765 27.550763,27.550763 0 0 1 0.26758,0.35157 27.550763,27.550763 0 0 1 0.26172,0.35546 27.550763,27.550763 0 0 1 0.2539,0.35938 27.550763,27.550763 0 0 1 0.25,0.36328 27.550763,27.550763 0 0 1 0.24414,0.36914 27.550763,27.550763 0 0 1 0.23828,0.3711 27.550763,27.550763 0 0 1 0.23243,0.375 27.550763,27.550763 0 0 1 0.22656,0.3789 27.550763,27.550763 0 0 1 0.21875,0.38281 27.550763,27.550763 0 0 1 0.21484,0.38672 27.550763,27.550763 0 0 1 0.20703,0.39063 27.550763,27.550763 0 0 1 0.20118,0.39258 27.550763,27.550763 0 0 1 0.19531,0.39453 27.550763,27.550763 0 0 1 0.1875,0.40039 27.550763,27.550763 0 0 1 0.18164,0.40234 27.550763,27.550763 0 0 1 0.17578,0.4043 27.550763,27.550763 0 0 1 0.16992,0.4082 27.550763,27.550763 0 0 1 0.16211,0.41016 27.550763,27.550763 0 0 1 0.15625,0.41211 27.550763,27.550763 0 0 1 0.15039,0.41601 27.550763,27.550763 0 0 1 0.14258,0.41797 27.550763,27.550763 0 0 1 0.13476,0.41992 27.550763,27.550763 0 0 1 0.12891,0.42188 27.550763,27.550763 0 0 1 0.12305,0.42383 27.550763,27.550763 0 0 1 0.11523,0.42578 27.550763,27.550763 0 0 1 0.10938,0.42773 27.550763,27.550763 0 0 1 0.10156,0.42969 27.550763,27.550763 0 0 1 0.0957,0.43164 27.550763,27.550763 0 0 1 0.0879,0.43164 27.550763,27.550763 0 0 1 0.082,0.4336 27.550763,27.550763 0 0 1 0.0742,0.43554 27.550763,27.550763 0 0 1 0.0664,0.43555 27.550763,27.550763 0 0 1 0.0606,0.4375 27.550763,27.550763 0 0 1 0.0527,0.4375 27.550763,27.550763 0 0 1 0.0469,0.43945 27.550763,27.550763 0 0 1 0.0391,0.43946 27.550763,27.550763 0 0 1 0.0312,0.4414 27.550763,27.550763 0 0 1 0.0254,0.43945 27.550763,27.550763 0 0 1 0.0215,0.44141 27.550763,27.550763 0 0 1 0.0117,0.44141 27.550763,27.550763 0 0 1 0.002,0.4414 27.550763,27.550763 0 0 1 0,0.0215 27.550763,27.550763 0 0 1 -0.002,0.4414 27.550763,27.550763 0 0 1 -0.0117,0.44141 27.550763,27.550763 0 0 1 -0.0176,0.44141 27.550763,27.550763 0 0 1 -0.0254,0.43945 27.550763,27.550763 0 0 1 -0.0313,0.44141 27.550763,27.550763 0 0 1 -0.0391,0.43945 27.550763,27.550763 0 0 1 -0.0469,0.43945 27.550763,27.550763 0 0 1 -0.0527,0.4375 27.550763,27.550763 0 0 1 -0.0586,0.4375 27.550763,27.550763 0 0 1 -0.0684,0.43555 27.550763,27.550763 0 0 1 -0.0723,0.43555 27.550763,27.550763 0 0 1 -0.082,0.43359 27.550763,27.550763 0 0 1 -0.0879,0.43359 27.550763,27.550763 0 0 1 -0.0937,0.42969 27.550763,27.550763 0 0 1 -0.10156,0.42969 27.550763,27.550763 0 0 1 -0.10938,0.42773 27.550763,27.550763 0 0 1 -0.11523,0.42578 27.550763,27.550763 0 0 1 -0.12109,0.42579 27.550763,27.550763 0 0 1 -0.12891,0.42187 27.550763,27.550763 0 0 1 -0.13672,0.41992 27.550763,27.550763 0 0 1 -0.14258,0.41797 27.550763,27.550763 0 0 1 -0.14843,0.41406 27.550763,27.550763 0 0 1 -0.15625,0.41407 27.550763,27.550763 0 0 1 -0.16211,0.41015 27.550763,27.550763 0 0 1 -0.16797,0.4082 27.550763,27.550763 0 0 1 -0.17578,0.4043 27.550763,27.550763 0 0 1 -0.18164,0.40235 27.550763,27.550763 0 0 1 -0.18946,0.39843 27.550763,27.550763 0 0 1 -0.19336,0.39649 27.550763,27.550763 0 0 1 -0.20117,0.39453 27.550763,27.550763 0 0 1 -0.20703,0.38867 27.550763,27.550763 0 0 1 -0.21289,0.38672 27.550763,27.550763 0 0 1 -0.2207,0.38281 27.550763,27.550763 0 0 1 -0.22461,0.37891 27.550763,27.550763 0 0 1 -0.23242,0.375 27.550763,27.550763 0 0 1 -0.23829,0.37305 27.550763,27.550763 0 0 1 -0.24218,0.36718 27.550763,27.550763 0 0 1 -0.25,0.36524 27.550763,27.550763 0 0 1 -0.25586,0.35937 27.550763,27.550763 0 0 1 -0.26172,0.35547 27.550763,27.550763 0 0 1 -0.26563,0.35156 27.550763,27.550763 0 0 1 -0.27343,0.34766 27.550763,27.550763 0 0 1 -0.27735,0.34375 27.550763,27.550763 0 0 1 -0.2832,0.33789 27.550763,27.550763 0 0 1 -0.28906,0.33398 27.550763,27.550763 0 0 1 -0.29297,0.33008 27.550763,27.550763 0 0 1 -0.29883,0.32422 27.550763,27.550763 0 0 1 -0.30469,0.31836 27.550763,27.550763 0 0 1 -0.31054,0.31641 27.550763,27.550763 0 0 1 -0.31446,0.30859 27.550763,27.550763 0 0 1 -0.31836,0.30469 27.550763,27.550763 0 0 1 -0.32422,0.29883 27.550763,27.550763 0 0 1 -0.33007,0.29492 27.550763,27.550763 0 0 1 -0.33203,0.28906 27.550763,27.550763 0 0 1 -0.33985,0.2832 27.550763,27.550763 0 0 1 -0.3418,0.2793 27.550763,27.550763 0 0 1 -0.34765,0.27148 27.550763,27.550763 0 0 1 -0.35156,0.26758 27.550763,27.550763 0 0 1 -0.35547,0.26172 27.550763,27.550763 0 0 1 -0.35938,0.25391 27.550763,27.550763 0 0 1 -0.36328,0.25 27.550763,27.550763 0 0 1 -0.36914,0.24414 27.550763,27.550763 0 0 1 -0.37109,0.23828 27.550763,27.550763 0 0 1 -0.375,0.23242 27.550763,27.550763 0 0 1 -0.37891,0.22656 27.550763,27.550763 0 0 1 -0.38281,0.21875 27.550763,27.550763 0 0 1 -0.38672,0.21485 27.550763,27.550763 0 0 1 -0.39063,0.20703 27.550763,27.550763 0 0 1 -0.39257,0.20117 27.550763,27.550763 0 0 1 -0.39454,0.19531 27.550763,27.550763 0 0 1 -0.40039,0.1875 27.550763,27.550763 0 0 1 -0.40234,0.18164 27.550763,27.550763 0 0 1 -0.4043,0.17579 27.550763,27.550763 0 0 1 -0.4082,0.16992 27.550763,27.550763 0 0 1 -0.41016,0.16211 27.550763,27.550763 0 0 1 -0.41211,0.15625 27.550763,27.550763 0 0 1 -0.41601,0.15039 27.550763,27.550763 0 0 1 -0.41797,0.14258 27.550763,27.550763 0 0 1 -0.41992,0.13476 27.550763,27.550763 0 0 1 -0.42188,0.12891 27.550763,27.550763 0 0 1 -0.42382,0.12304 27.550763,27.550763 0 0 1 -0.42579,0.11524 27.550763,27.550763 0 0 1 -0.42773,0.10937 27.550763,27.550763 0 0 1 -0.42969,0.10157 27.550763,27.550763 0 0 1 -0.43164,0.0957 27.550763,27.550763 0 0 1 -0.43164,0.0879 27.550763,27.550763 0 0 1 -0.43359,0.082 27.550763,27.550763 0 0 1 -0.43555,0.0742 27.550763,27.550763 0 0 1 -0.43555,0.0664 27.550763,27.550763 0 0 1 -0.4375,0.0605 27.550763,27.550763 0 0 1 -0.4375,0.0527 27.550763,27.550763 0 0 1 -0.43945,0.0469 27.550763,27.550763 0 0 1 -0.43945,0.0391 27.550763,27.550763 0 0 1 -0.44141,0.0312 27.550763,27.550763 0 0 1 -0.43945,0.0254 27.550763,27.550763 0 0 1 -0.44141,0.0176 27.550763,27.550763 0 0 1 -0.44141,0.0117 27.550763,27.550763 0 0 1 -0.4414,0.004 27.550763,27.550763 0 0 1 -0.0215,0 27.550763,27.550763 0 0 1 -0.4414,-0.004 27.550763,27.550763 0 0 1 -0.44141,-0.01 27.550763,27.550763 0 0 1 -0.4414,-0.0176 27.550763,27.550763 0 0 1 -0.43946,-0.0254 27.550763,27.550763 0 0 1 -0.4414,-0.0312 27.550763,27.550763 0 0 1 -0.43946,-0.0391 27.550763,27.550763 0 0 1 -0.43945,-0.0469 27.550763,27.550763 0 0 1 -0.4375,-0.0527 27.550763,27.550763 0 0 1 -0.4375,-0.0586 27.550763,27.550763 0 0 1 -0.43555,-0.0684 27.550763,27.550763 0 0 1 -0.43554,-0.0723 27.550763,27.550763 0 0 1 -0.4336,-0.082 27.550763,27.550763 0 0 1 -0.43359,-0.0879 27.550763,27.550763 0 0 1 -0.42969,-0.0937 27.550763,27.550763 0 0 1 -0.42969,-0.10157 27.550763,27.550763 0 0 1 -0.42773,-0.10937 27.550763,27.550763 0 0 1 -0.42578,-0.11524 A 27.550763,27.550763 0 0 1 181.2793,182 a 27.550763,27.550763 0 0 1 -0.42188,-0.12891 27.550763,27.550763 0 0 1 -0.41992,-0.13671 27.550763,27.550763 0 0 1 -0.41797,-0.14258 27.550763,27.550763 0 0 1 -0.41406,-0.14844 27.550763,27.550763 0 0 1 -0.41406,-0.15625 27.550763,27.550763 0 0 1 -0.41016,-0.16211 27.550763,27.550763 0 0 1 -0.4082,-0.16797 27.550763,27.550763 0 0 1 -0.4043,-0.17578 27.550763,27.550763 0 0 1 -0.40234,-0.18164 27.550763,27.550763 0 0 1 -0.39844,-0.18945 27.550763,27.550763 0 0 1 -0.39649,-0.19336 27.550763,27.550763 0 0 1 -0.39453,-0.20118 27.550763,27.550763 0 0 1 -0.38867,-0.20703 27.550763,27.550763 0 0 1 -0.38672,-0.21289 27.550763,27.550763 0 0 1 -0.38281,-0.2207 27.550763,27.550763 0 0 1 -0.37891,-0.22461 27.550763,27.550763 0 0 1 -0.375,-0.23242 27.550763,27.550763 0 0 1 -0.37304,-0.23828 27.550763,27.550763 0 0 1 -0.36719,-0.24219 27.550763,27.550763 0 0 1 -0.36523,-0.25 27.550763,27.550763 0 0 1 -0.35938,-0.25586 27.550763,27.550763 0 0 1 -0.35547,-0.26172 27.550763,27.550763 0 0 1 -0.35156,-0.26562 27.550763,27.550763 0 0 1 -0.34766,-0.27344 27.550763,27.550763 0 0 1 -0.34375,-0.27734 27.550763,27.550763 0 0 1 -0.33789,-0.28321 27.550763,27.550763 0 0 1 -0.33398,-0.28906 27.550763,27.550763 0 0 1 -0.33008,-0.29297 27.550763,27.550763 0 0 1 -0.32422,-0.29883 27.550763,27.550763 0 0 1 -0.31836,-0.30468 27.550763,27.550763 0 0 1 -0.31641,-0.31055 27.550763,27.550763 0 0 1 -0.30859,-0.31445 27.550763,27.550763 0 0 1 -0.30469,-0.31836 27.550763,27.550763 0 0 1 -0.29882,-0.32422 27.550763,27.550763 0 0 1 -0.29493,-0.33008 27.550763,27.550763 0 0 1 -0.28906,-0.33203 27.550763,27.550763 0 0 1 -0.2832,-0.33985 27.550763,27.550763 0 0 1 -0.2793,-0.34179 27.550763,27.550763 0 0 1 -0.27148,-0.34766 27.550763,27.550763 0 0 1 -0.26758,-0.35156 27.550763,27.550763 0 0 1 -0.26172,-0.35547 27.550763,27.550763 0 0 1 -0.25391,-0.35937 27.550763,27.550763 0 0 1 -0.25,-0.36329 27.550763,27.550763 0 0 1 -0.24414,-0.36914 27.550763,27.550763 0 0 1 -0.23828,-0.37109 27.550763,27.550763 0 0 1 -0.23242,-0.375 27.550763,27.550763 0 0 1 -0.22656,-0.37891 27.550763,27.550763 0 0 1 -0.21875,-0.38281 27.550763,27.550763 0 0 1 -0.21485,-0.38672 27.550763,27.550763 0 0 1 -0.20703,-0.39062 27.550763,27.550763 0 0 1 -0.20117,-0.39258 27.550763,27.550763 0 0 1 -0.19531,-0.39453 27.550763,27.550763 0 0 1 -0.1875,-0.40039 27.550763,27.550763 0 0 1 -0.1836,-0.40235 27.550763,27.550763 0 0 1 -0.17578,-0.40429 27.550763,27.550763 0 0 1 -0.16992,-0.40821 27.550763,27.550763 0 0 1 -0.16211,-0.41015 27.550763,27.550763 0 0 1 -0.15625,-0.41211 27.550763,27.550763 0 0 1 -0.15039,-0.41602 27.550763,27.550763 0 0 1 -0.14062,-0.41797 27.550763,27.550763 0 0 1 -0.13477,-0.41992 27.550763,27.550763 0 0 1 -0.13086,-0.42187 27.550763,27.550763 0 0 1 -0.12305,-0.42383 27.550763,27.550763 0 0 1 -0.11523,-0.42578 27.550763,27.550763 0 0 1 -0.10937,-0.42774 27.550763,27.550763 0 0 1 -0.10157,-0.42968 27.550763,27.550763 0 0 1 -0.0957,-0.43165 27.550763,27.550763 0 0 1 -0.0879,-0.43164 27.550763,27.550763 0 0 1 -0.0801,-0.43359 27.550763,27.550763 0 0 1 -0.0762,-0.43555 27.550763,27.550763 0 0 1 -0.0664,-0.43554 27.550763,27.550763 0 0 1 -0.0605,-0.4375 27.550763,27.550763 0 0 1 -0.0508,-0.4375 27.550763,27.550763 0 0 1 -0.0469,-0.43946 27.550763,27.550763 0 0 1 -0.0391,-0.43945 27.550763,27.550763 0 0 1 -0.0332,-0.44141 27.550763,27.550763 0 0 1 -0.0254,-0.43945 27.550763,27.550763 0 0 1 -0.0195,-0.44141 27.550763,27.550763 0 0 1 -0.0117,-0.4414 27.550763,27.550763 0 0 1 -0.002,-0.44141 27.550763,27.550763 0 0 1 0,-0.0215 27.550763,27.550763 0 0 1 0.002,-0.44141 27.550763,27.550763 0 0 1 0.0117,-0.44141 27.550763,27.550763 0 0 1 0.0176,-0.4414 27.550763,27.550763 0 0 1 0.0254,-0.43945 27.550763,27.550763 0 0 1 0.0312,-0.44141 27.550763,27.550763 0 0 1 0.0391,-0.43945 27.550763,27.550763 0 0 1 0.0469,-0.43946 27.550763,27.550763 0 0 1 0.0527,-0.4375 27.550763,27.550763 0 0 1 0.0586,-0.4375 27.550763,27.550763 0 0 1 0.0684,-0.43554 27.550763,27.550763 0 0 1 0.0723,-0.43555 27.550763,27.550763 0 0 1 0.082,-0.43359 27.550763,27.550763 0 0 1 0.0879,-0.4336 27.550763,27.550763 0 0 1 0.0937,-0.42969 27.550763,27.550763 0 0 1 0.10157,-0.42968 27.550763,27.550763 0 0 1 0.10937,-0.42774 27.550763,27.550763 0 0 1 0.11523,-0.42578 27.550763,27.550763 0 0 1 0.1211,-0.42578 27.550763,27.550763 0 0 1 0.1289,-0.42188 27.550763,27.550763 0 0 1 0.13672,-0.41992 27.550763,27.550763 0 0 1 0.14258,-0.41797 27.550763,27.550763 0 0 1 0.14844,-0.41406 27.550763,27.550763 0 0 1 0.15625,-0.41406 27.550763,27.550763 0 0 1 0.16211,-0.41016 27.550763,27.550763 0 0 1 0.16797,-0.4082 27.550763,27.550763 0 0 1 0.17578,-0.4043 27.550763,27.550763 0 0 1 0.18164,-0.40234 27.550763,27.550763 0 0 1 0.18945,-0.39844 27.550763,27.550763 0 0 1 0.19336,-0.39648 27.550763,27.550763 0 0 1 0.20117,-0.39453 27.550763,27.550763 0 0 1 0.20703,-0.38868 27.550763,27.550763 0 0 1 0.2129,-0.38671 27.550763,27.550763 0 0 1 0.2207,-0.38282 27.550763,27.550763 0 0 1 0.22461,-0.3789 27.550763,27.550763 0 0 1 0.23242,-0.375 27.550763,27.550763 0 0 1 0.23828,-0.37305 27.550763,27.550763 0 0 1 0.24219,-0.36719 27.550763,27.550763 0 0 1 0.25,-0.36523 27.550763,27.550763 0 0 1 0.25586,-0.35938 27.550763,27.550763 0 0 1 0.26172,-0.35547 27.550763,27.550763 0 0 1 0.26562,-0.35156 27.550763,27.550763 0 0 1 0.27344,-0.34765 27.550763,27.550763 0 0 1 0.27734,-0.34375 27.550763,27.550763 0 0 1 0.28321,-0.33789 27.550763,27.550763 0 0 1 0.28906,-0.33399 27.550763,27.550763 0 0 1 0.29297,-0.33008 27.550763,27.550763 0 0 1 0.29883,-0.32422 27.550763,27.550763 0 0 1 0.30468,-0.31836 27.550763,27.550763 0 0 1 0.31055,-0.3164 27.550763,27.550763 0 0 1 0.31445,-0.3086 27.550763,27.550763 0 0 1 0.31836,-0.30468 27.550763,27.550763 0 0 1 0.32422,-0.29883 27.550763,27.550763 0 0 1 0.33008,-0.29492 27.550763,27.550763 0 0 1 0.33203,-0.28907 27.550763,27.550763 0 0 1 0.33984,-0.2832 27.550763,27.550763 0 0 1 0.3418,-0.2793 27.550763,27.550763 0 0 1 0.34766,-0.27148 27.550763,27.550763 0 0 1 0.35156,-0.26758 27.550763,27.550763 0 0 1 0.35547,-0.26172 27.550763,27.550763 0 0 1 0.35937,-0.2539 27.550763,27.550763 0 0 1 0.36328,-0.25 27.550763,27.550763 0 0 1 0.36915,-0.24414 27.550763,27.550763 0 0 1 0.37109,-0.23829 27.550763,27.550763 0 0 1 0.375,-0.23242 27.550763,27.550763 0 0 1 0.37891,-0.22656 27.550763,27.550763 0 0 1 0.38281,-0.21875 27.550763,27.550763 0 0 1 0.38672,-0.21484 27.550763,27.550763 0 0 1 0.39062,-0.20703 27.550763,27.550763 0 0 1 0.39258,-0.20313 27.550763,27.550763 0 0 1 0.39453,-0.19531 27.550763,27.550763 0 0 1 0.40039,-0.1875 27.550763,27.550763 0 0 1 0.40235,-0.18164 27.550763,27.550763 0 0 1 0.40429,-0.17578 27.550763,27.550763 0 0 1 0.40821,-0.16993 27.550763,27.550763 0 0 1 0.41015,-0.16211 27.550763,27.550763 0 0 1 0.41211,-0.15624 27.550763,27.550763 0 0 1 0.41602,-0.1504 27.550763,27.550763 0 0 1 0.41797,-0.14257 27.550763,27.550763 0 0 1 0.41992,-0.13477 27.550763,27.550763 0 0 1 0.42187,-0.12891 27.550763,27.550763 0 0 1 0.42383,-0.12304 27.550763,27.550763 0 0 1 0.42578,-0.11524 27.550763,27.550763 0 0 1 0.42774,-0.10937 27.550763,27.550763 0 0 1 0.42968,-0.10156 27.550763,27.550763 0 0 1 0.43164,-0.0957 27.550763,27.550763 0 0 1 0.43164,-0.0879 27.550763,27.550763 0 0 1 0.4336,-0.082 27.550763,27.550763 0 0 1 0.43555,-0.0742 27.550763,27.550763 0 0 1 0.43554,-0.0664 27.550763,27.550763 0 0 1 0.4375,-0.0606 27.550763,27.550763 0 0 1 0.4375,-0.0527 27.550763,27.550763 0 0 1 0.43946,-0.0469 27.550763,27.550763 0 0 1 0.43945,-0.0371 27.550763,27.550763 0 0 1 0.4414,-0.0332 27.550763,27.550763 0 0 1 0.43946,-0.0254 27.550763,27.550763 0 0 1 0.4414,-0.0176 27.550763,27.550763 0 0 1 0.44141,-0.0117 27.550763,27.550763 0 0 1 0.44141,-0.004 z m -68.68946,8.43555 5.43946,8.39062 5.43945,8.39258 c 0,0 -0.54993,0.66671 -0.86719,0.95898 -0.32107,0.29583 -0.67632,0.5599 -1.04297,0.79688 -0.35418,0.22893 -0.72255,0.43626 -1.11132,0.59961 -0.37788,0.15866 -1.17579,0.36328 -1.17579,0.36328 l -5.43945,-8.39063 -5.4375,-8.39257 c 0,0 0.51144,-0.64366 0.81055,-0.92383 0.30788,-0.28815 0.64838,-0.53966 1.00195,-0.76953 0.36601,-0.23792 0.75126,-0.45262 1.15235,-0.625 0.39624,-0.17027 1.23046,-0.40039 1.23046,-0.40039 z m 116.19336,4.85742 9.44141,3.29297 9.44336,3.29297 c 0,0 -0.01,0.82183 -0.0742,1.22656 -0.0665,0.41641 -0.18194,0.82623 -0.32031,1.22461 -0.14324,0.41238 -0.31427,0.81711 -0.52539,1.19922 -0.20866,0.37753 -0.72657,1.07031 -0.72657,1.07031 l -9.44336,-3.29297 -9.4414,-3.29297 c 0,0 0.0243,-0.86561 0.0957,-1.29101 0.0723,-0.43055 0.18968,-0.85557 0.33399,-1.26758 0.1394,-0.39801 0.30486,-0.78881 0.51171,-1.15625 0.20123,-0.35703 0.70508,-1.00586 0.70508,-1.00586 z m 13.93555,26.68945 c 0,0 0.86454,0.0115 1.29102,0.0762 0.43163,0.0654 0.8592,0.17666 1.27343,0.31446 0.40016,0.13315 0.79341,0.29108 1.16407,0.49218 0.36015,0.19558 1.01757,0.68946 1.01757,0.68946 l -3.14453,9.49218 -3.14453,9.49219 c 0,0 -0.82282,0.003 -1.22851,-0.0547 -0.41742,-0.0599 -0.82606,-0.16677 -1.22657,-0.29882 -0.41458,-0.13674 -0.8236,-0.30274 -1.20898,-0.50782 -0.38077,-0.20268 -1.08203,-0.71093 -1.08203,-0.71093 l 3.14453,-9.49219 z m -116.47461,0.69727 9.71875,2.35156 9.7207,2.35352 c 0,0 0.0695,0.81941 0.0449,1.22851 -0.0253,0.42093 -0.0986,0.83803 -0.19727,1.24805 -0.10216,0.42444 -0.23357,0.84514 -0.40625,1.24609 -0.17065,0.39617 -0.61719,1.13672 -0.61719,1.13672 l -9.7207,-2.35351 -9.71875,-2.35157 c 0,0 -0.0606,-0.86261 -0.0312,-1.29297 0.0299,-0.43555 0.10576,-0.87075 0.20898,-1.29492 0.0998,-0.40975 0.2247,-0.81327 0.39453,-1.19922 0.16528,-0.375 0.60352,-1.07226 0.60352,-1.07226 z m 4.53906,16.19922 c 0.25674,-6e-5 0.56404,0.006 0.76758,0.0293 0.41885,0.0489 0.83052,0.14615 1.23438,0.26758 0.41805,0.12573 0.83004,0.27978 1.2207,0.47461 0.38599,0.19257 1.10156,0.68164 1.10156,0.68164 l -2.89258,9.57227 -2.89453,9.57226 c 0,0 -0.86493,0.0104 -1.29297,-0.043 -0.43321,-0.054 -0.86157,-0.15249 -1.27929,-0.27929 -0.40353,-0.12253 -0.79995,-0.27161 -1.17578,-0.46289 -0.36519,-0.18601 -1.03711,-0.66211 -1.03711,-0.66211 l 2.89257,-9.57227 2.89258,-9.57226 c 0,0 0.20616,-0.006 0.46289,-0.006 z m 62.09961,4.97656 c 0.43115,-0.0133 1.29102,0.0781 1.29102,0.0781 l 1.98828,9.80078 1.99023,9.80079 c 0,0 -0.75597,0.41845 -1.1582,0.57421 -0.40708,0.15772 -0.83378,0.27505 -1.26172,0.36133 -0.4134,0.0833 -0.83232,0.14057 -1.2539,0.15039 -0.40973,0.009 -1.22657,-0.0918 -1.22657,-0.0918 l -1.98828,-9.80078 -1.99023,-9.80079 c 0,0 0.71284,-0.41128 1.09375,-0.5625 0.392,-0.15541 0.80166,-0.2652 1.21484,-0.3496 0.42771,-0.0874 0.86444,-0.14655 1.30078,-0.16016 z m 22.22461,3.60156 7.12696,7.01172 7.1289,7.01367 c 0,0 -0.39228,0.77094 -0.63867,1.125 -0.24934,0.35837 -0.53719,0.69312 -0.84375,1.00391 -0.29616,0.30022 -0.61095,0.58243 -0.95508,0.82617 -0.33452,0.23675 -1.06836,0.60937 -1.06836,0.60937 l -7.1289,-7.01367 -7.12891,-7.01172 c 0,0 0.36053,-0.73978 0.5918,-1.07812 0.23811,-0.34803 0.51713,-0.6697 0.8125,-0.9707 0.30575,-0.31159 0.63406,-0.60419 0.98828,-0.85938 0.35,-0.25212 1.11523,-0.65625 1.11523,-0.65625 z m -48.26953,3.5957 c 0,0 0.54522,0.616 0.76953,0.95899 0.23068,0.35302 0.42059,0.73118 0.58594,1.11914 0.17115,0.4016 0.31743,0.81736 0.41797,1.24219 0.0993,0.41977 0.17969,1.28125 0.17969,1.28125 l -9.20313,3.9082 -9.20508,3.9082 c 0,0 -0.56379,-0.65654 -0.79687,-1.01953 -0.23592,-0.36733 -0.4334,-0.76006 -0.60352,-1.16211 -0.16428,-0.3884 -0.30467,-0.78807 -0.39844,-1.19922 -0.091,-0.39959 -0.15625,-1.2207 -0.15625,-1.2207 l 9.20508,-3.9082 z m 4.5,24.92188 h 10 10 c 0,0 0.26157,0.78021 0.33399,1.18359 0.0743,0.41509 0.10099,0.83805 0.10156,1.25977 5.6e-4,0.43655 -0.0281,0.87632 -0.10156,1.30664 -0.0727,0.42519 -0.33399,1.25 -0.33399,1.25 h -10 -10 c 0,0 -0.2613,-0.82481 -0.33398,-1.25 -0.0736,-0.43032 -0.10213,-0.87009 -0.10157,-1.30664 5.7e-4,-0.42172 0.0272,-0.84468 0.10157,-1.25977 0.0724,-0.40338 0.33398,-1.18359 0.33398,-1.18359 z"
       style="fill:#000000;stroke-width:0;stroke-linejoin:round;stroke-miterlimit:4;stroke-dasharray:none"
       id="path1072" />
    <path
       id="path844-6"
       style="fill:#000000;stroke-width:0;stroke-linejoin:round;stroke-miterlimit:4;stroke-dasharray:none"
       d="m 144.20392,63.513436 a 23.151041,23.151041 0 0 0 -23.15104,23.151042 23.151041,23.151041 0 0 0 23.15104,23.151042 23.151041,23.151041 0 0 0 23.15104,-23.151042 23.151041,23.151041 0 0 0 -23.15104,-23.151042 z m -0.006,15.861564 a 7.2894727,7.2894727 0 0 1 0.006,0 7.2894727,7.2894727 0 0 1 0.11679,0.001 7.2894727,7.2894727 0 0 1 0.11679,0.0026 7.2894727,7.2894727 0 0 1 0.11679,0.0047 7.2894727,7.2894727 0 0 1 0.11627,0.0067 7.2894727,7.2894727 0 0 1 0.11679,0.0083 7.2894727,7.2894727 0 0 1 0.11627,0.01033 7.2894727,7.2894727 0 0 1 0.11627,0.0124 7.2894727,7.2894727 0 0 1 0.11576,0.01395 7.2894727,7.2894727 0 0 1 0.11575,0.0155 7.2894727,7.2894727 0 0 1 0.11524,0.01809 7.2894727,7.2894727 0 0 1 0.11524,0.01912 7.2894727,7.2894727 0 0 1 0.11472,0.0217 7.2894727,7.2894727 0 0 1 0.11472,0.02325 7.2894727,7.2894727 0 0 1 0.11369,0.0248 7.2894727,7.2894727 0 0 1 0.11369,0.02687 7.2894727,7.2894727 0 0 1 0.11317,0.02894 7.2894727,7.2894727 0 0 1 0.11266,0.03049 7.2894727,7.2894727 0 0 1 0.11265,0.03204 7.2894727,7.2894727 0 0 1 0.11162,0.03411 7.2894727,7.2894727 0 0 1 0.1111,0.03617 7.2894727,7.2894727 0 0 1 0.11059,0.03772 7.2894727,7.2894727 0 0 1 0.10956,0.03927 7.2894727,7.2894727 0 0 1 0.10955,0.04134 7.2894727,7.2894727 0 0 1 0.10852,0.04289 7.2894727,7.2894727 0 0 1 0.10801,0.04444 7.2894727,7.2894727 0 0 1 0.10696,0.04651 7.2894727,7.2894727 0 0 1 0.10646,0.04806 7.2894727,7.2894727 0 0 1 0.10542,0.05013 7.2894727,7.2894727 0 0 1 0.1049,0.05116 7.2894727,7.2894727 0 0 1 0.10439,0.05323 7.2894727,7.2894727 0 0 1 0.10283,0.05478 7.2894727,7.2894727 0 0 1 0.10232,0.05633 7.2894727,7.2894727 0 0 1 0.10129,0.0584 7.2894727,7.2894727 0 0 1 0.10025,0.05943 7.2894727,7.2894727 0 0 1 0.0992,0.0615 7.2894727,7.2894727 0 0 1 0.0987,0.06305 7.2894727,7.2894727 0 0 1 0.0971,0.06408 7.2894727,7.2894727 0 0 1 0.0966,0.06615 7.2894727,7.2894727 0 0 1 0.0951,0.0677 7.2894727,7.2894727 0 0 1 0.094,0.06925 7.2894727,7.2894727 0 0 1 0.093,0.07028 7.2894727,7.2894727 0 0 1 0.092,0.07235 7.2894727,7.2894727 0 0 1 0.0909,0.07338 7.2894727,7.2894727 0 0 1 0.0894,0.07493 7.2894727,7.2894727 0 0 1 0.0884,0.07648 7.2894727,7.2894727 0 0 1 0.0873,0.07751 7.2894727,7.2894727 0 0 1 0.0858,0.07906 7.2894727,7.2894727 0 0 1 0.0842,0.08062 7.2894727,7.2894727 0 0 1 0.0837,0.08217 7.2894727,7.2894727 0 0 1 0.0816,0.0832 7.2894727,7.2894727 0 0 1 0.0806,0.08423 7.2894727,7.2894727 0 0 1 0.0791,0.08578 7.2894727,7.2894727 0 0 1 0.078,0.08733 7.2894727,7.2894727 0 0 1 0.0765,0.08785 7.2894727,7.2894727 0 0 1 0.0749,0.08992 7.2894727,7.2894727 0 0 1 0.0739,0.09043 7.2894727,7.2894727 0 0 1 0.0718,0.09199 7.2894727,7.2894727 0 0 1 0.0708,0.09302 7.2894727,7.2894727 0 0 1 0.0692,0.09405 7.2894727,7.2894727 0 0 1 0.0672,0.09508 7.2894727,7.2894727 0 0 1 0.0661,0.09612 7.2894727,7.2894727 0 0 1 0.0646,0.09767 7.2894727,7.2894727 0 0 1 0.063,0.09819 7.2894727,7.2894727 0 0 1 0.0615,0.09922 7.2894727,7.2894727 0 0 1 0.06,0.10025 7.2894727,7.2894727 0 0 1 0.0579,0.101288 7.2894727,7.2894727 0 0 1 0.0568,0.10232 7.2894727,7.2894727 0 0 1 0.0548,0.103351 7.2894727,7.2894727 0 0 1 0.0532,0.10387 7.2894727,7.2894727 0 0 1 0.0517,0.104386 7.2894727,7.2894727 0 0 1 0.0496,0.105937 7.2894727,7.2894727 0 0 1 0.0481,0.106452 7.2894727,7.2894727 0 0 1 0.0465,0.106971 7.2894727,7.2894727 0 0 1 0.045,0.108003 7.2894727,7.2894727 0 0 1 0.0429,0.108522 7.2894727,7.2894727 0 0 1 0.0413,0.109037 7.2894727,7.2894727 0 0 1 0.0398,0.110072 7.2894727,7.2894727 0 0 1 0.0377,0.110585 7.2894727,7.2894727 0 0 1 0.0357,0.111107 7.2894727,7.2894727 0 0 1 0.0341,0.11162 7.2894727,7.2894727 0 0 1 0.0326,0.112138 7.2894727,7.2894727 0 0 1 0.0305,0.112654 7.2894727,7.2894727 0 0 1 0.0289,0.113173 7.2894727,7.2894727 0 0 1 0.0269,0.113686 7.2894727,7.2894727 0 0 1 0.0253,0.114205 7.2894727,7.2894727 0 0 1 0.0233,0.114205 7.2894727,7.2894727 0 0 1 0.0217,0.114723 7.2894727,7.2894727 0 0 1 0.0196,0.115237 7.2894727,7.2894727 0 0 1 0.0176,0.115239 7.2894727,7.2894727 0 0 1 0.016,0.115755 7.2894727,7.2894727 0 0 1 0.0139,0.115756 7.2894727,7.2894727 0 0 1 0.0124,0.116271 7.2894727,7.2894727 0 0 1 0.0104,0.116273 7.2894727,7.2894727 0 0 1 0.008,0.116788 7.2894727,7.2894727 0 0 1 0.007,0.116273 7.2894727,7.2894727 0 0 1 0.005,0.116787 7.2894727,7.2894727 0 0 1 0.003,0.11679 7.2894727,7.2894727 0 0 1 0.001,0.11679 7.2894727,7.2894727 0 0 1 0,0.0057 7.2894727,7.2894727 0 0 1 -0.001,0.11679 7.2894727,7.2894727 0 0 1 -0.003,0.116787 7.2894727,7.2894727 0 0 1 -0.005,0.11679 7.2894727,7.2894727 0 0 1 -0.007,0.116271 7.2894727,7.2894727 0 0 1 -0.008,0.11679 7.2894727,7.2894727 0 0 1 -0.0104,0.116271 7.2894727,7.2894727 0 0 1 -0.0124,0.116271 7.2894727,7.2894727 0 0 1 -0.0139,0.115755 7.2894727,7.2894727 0 0 1 -0.0155,0.115756 7.2894727,7.2894727 0 0 1 -0.0181,0.115239 7.2894727,7.2894727 0 0 1 -0.0191,0.115239 7.2894727,7.2894727 0 0 1 -0.0217,0.114721 7.2894727,7.2894727 0 0 1 -0.0233,0.114723 7.2894727,7.2894727 0 0 1 -0.0248,0.113686 7.2894727,7.2894727 0 0 1 -0.0269,0.113689 7.2894727,7.2894727 0 0 1 -0.0289,0.113173 7.2894727,7.2894727 0 0 1 -0.0305,0.112654 7.2894727,7.2894727 0 0 1 -0.032,0.112655 7.2894727,7.2894727 0 0 1 -0.0341,0.111619 7.2894727,7.2894727 0 0 1 -0.0362,0.111104 7.2894727,7.2894727 0 0 1 -0.0377,0.110588 7.2894727,7.2894727 0 0 1 -0.0393,0.109556 7.2894727,7.2894727 0 0 1 -0.0413,0.109553 7.2894727,7.2894727 0 0 1 -0.0429,0.108519 7.2894727,7.2894727 0 0 1 -0.0444,0.108006 7.2894727,7.2894727 0 0 1 -0.0465,0.106968 7.2894727,7.2894727 0 0 1 -0.0481,0.106455 7.2894727,7.2894727 0 0 1 -0.0501,0.105421 7.2894727,7.2894727 0 0 1 -0.0512,0.104902 7.2894727,7.2894727 0 0 1 -0.0532,0.104387 7.2894727,7.2894727 0 0 1 -0.0548,0.102835 7.2894727,7.2894727 0 0 1 -0.0563,0.10232 7.2894727,7.2894727 0 0 1 -0.0584,0.101285 7.2894727,7.2894727 0 0 1 -0.0594,0.100254 7.2894727,7.2894727 0 0 1 -0.0615,0.09922 7.2894727,7.2894727 0 0 1 -0.063,0.0987 7.2894727,7.2894727 0 0 1 -0.0641,0.09715 7.2894727,7.2894727 0 0 1 -0.0661,0.09664 7.2894727,7.2894727 0 0 1 -0.0677,0.09508 7.2894727,7.2894727 0 0 1 -0.0693,0.09405 7.2894727,7.2894727 0 0 1 -0.0703,0.09302 7.2894727,7.2894727 0 0 1 -0.0724,0.09198 7.2894727,7.2894727 0 0 1 -0.0734,0.09095 7.2894727,7.2894727 0 0 1 -0.0749,0.0894 7.2894727,7.2894727 0 0 1 -0.0765,0.08837 7.2894727,7.2894727 0 0 1 -0.0775,0.08733 7.2894727,7.2894727 0 0 1 -0.0791,0.08578 7.2894727,7.2894727 0 0 1 -0.0806,0.08423 7.2894727,7.2894727 0 0 1 -0.0822,0.08372 7.2894727,7.2894727 0 0 1 -0.0832,0.08165 7.2894727,7.2894727 0 0 1 -0.0842,0.08062 7.2894727,7.2894727 0 0 1 -0.0858,0.07907 7.2894727,7.2894727 0 0 1 -0.0873,0.07803 7.2894727,7.2894727 0 0 1 -0.0879,0.07648 7.2894727,7.2894727 0 0 1 -0.0899,0.07493 7.2894727,7.2894727 0 0 1 -0.0904,0.0739 7.2894727,7.2894727 0 0 1 -0.092,0.07183 7.2894727,7.2894727 0 0 1 -0.093,0.0708 7.2894727,7.2894727 0 0 1 -0.0941,0.06924 7.2894727,7.2894727 0 0 1 -0.0951,0.06718 7.2894727,7.2894727 0 0 1 -0.0961,0.06615 7.2894727,7.2894727 0 0 1 -0.0977,0.0646 7.2894727,7.2894727 0 0 1 -0.0982,0.06304 7.2894727,7.2894727 0 0 1 -0.0992,0.06149 7.2894727,7.2894727 0 0 1 -0.10025,0.05995 7.2894727,7.2894727 0 0 1 -0.10129,0.05788 7.2894727,7.2894727 0 0 1 -0.10232,0.05684 7.2894727,7.2894727 0 0 1 -0.10335,0.05478 7.2894727,7.2894727 0 0 1 -0.10387,0.05323 7.2894727,7.2894727 0 0 1 -0.10438,0.05168 7.2894727,7.2894727 0 0 1 -0.10594,0.04961 7.2894727,7.2894727 0 0 1 -0.10645,0.04806 7.2894727,7.2894727 0 0 1 -0.10697,0.04651 7.2894727,7.2894727 0 0 1 -0.10801,0.04496 7.2894727,7.2894727 0 0 1 -0.10852,0.04289 7.2894727,7.2894727 0 0 1 -0.10903,0.04134 7.2894727,7.2894727 0 0 1 -0.11008,0.03979 7.2894727,7.2894727 0 0 1 -0.11058,0.03772 7.2894727,7.2894727 0 0 1 -0.11111,0.03566 7.2894727,7.2894727 0 0 1 -0.11162,0.03411 7.2894727,7.2894727 0 0 1 -0.11214,0.03256 7.2894727,7.2894727 0 0 1 -0.11265,0.03049 7.2894727,7.2894727 0 0 1 -0.11317,0.02894 7.2894727,7.2894727 0 0 1 -0.11369,0.02687 7.2894727,7.2894727 0 0 1 -0.11421,0.02532 7.2894727,7.2894727 0 0 1 -0.1142,0.02326 7.2894727,7.2894727 0 0 1 -0.11472,0.02169 7.2894727,7.2894727 0 0 1 -0.11524,0.01963 7.2894727,7.2894727 0 0 1 -0.11524,0.01757 7.2894727,7.2894727 0 0 1 -0.11575,0.01603 7.2894727,7.2894727 0 0 1 -0.11576,0.01394 7.2894727,7.2894727 0 0 1 -0.11627,0.01241 7.2894727,7.2894727 0 0 1 -0.11627,0.01035 7.2894727,7.2894727 0 0 1 -0.11679,0.0083 7.2894727,7.2894727 0 0 1 -0.11628,0.0067 7.2894727,7.2894727 0 0 1 -0.11678,0.0047 7.2894727,7.2894727 0 0 1 -0.11679,0.0031 7.2894727,7.2894727 0 0 1 -0.11679,0.0011 7.2894727,7.2894727 0 0 1 -0.006,0 7.2894727,7.2894727 0 0 1 -0.11679,-0.0011 7.2894727,7.2894727 0 0 1 -0.11679,-0.0026 7.2894727,7.2894727 0 0 1 -0.11679,-0.0047 7.2894727,7.2894727 0 0 1 -0.11627,-0.0067 7.2894727,7.2894727 0 0 1 -0.11679,-0.0083 7.2894727,7.2894727 0 0 1 -0.11627,-0.01035 7.2894727,7.2894727 0 0 1 -0.11627,-0.01241 7.2894727,7.2894727 0 0 1 -0.11576,-0.01394 7.2894727,7.2894727 0 0 1 -0.11575,-0.0155 7.2894727,7.2894727 0 0 1 -0.11524,-0.0181 7.2894727,7.2894727 0 0 1 -0.11524,-0.01913 7.2894727,7.2894727 0 0 1 -0.11472,-0.0217 7.2894727,7.2894727 0 0 1 -0.11473,-0.02326 7.2894727,7.2894727 0 0 1 -0.11368,-0.02479 7.2894727,7.2894727 0 0 1 -0.11369,-0.02687 7.2894727,7.2894727 0 0 1 -0.11317,-0.02894 7.2894727,7.2894727 0 0 1 -0.11266,-0.03049 7.2894727,7.2894727 0 0 1 -0.11265,-0.03204 7.2894727,7.2894727 0 0 1 -0.11162,-0.0341 7.2894727,7.2894727 0 0 1 -0.11111,-0.03617 7.2894727,7.2894727 0 0 1 -0.11058,-0.03772 7.2894727,7.2894727 0 0 1 -0.10956,-0.03928 7.2894727,7.2894727 0 0 1 -0.10955,-0.04134 7.2894727,7.2894727 0 0 1 -0.10852,-0.04289 7.2894727,7.2894727 0 0 1 -0.10801,-0.04444 7.2894727,7.2894727 0 0 1 -0.10697,-0.04651 7.2894727,7.2894727 0 0 1 -0.10645,-0.04806 7.2894727,7.2894727 0 0 1 -0.10542,-0.05013 7.2894727,7.2894727 0 0 1 -0.1049,-0.05116 7.2894727,7.2894727 0 0 1 -0.10439,-0.05323 7.2894727,7.2894727 0 0 1 -0.10284,-0.05478 7.2894727,7.2894727 0 0 1 -0.10231,-0.05633 7.2894727,7.2894727 0 0 1 -0.10129,-0.0584 7.2894727,7.2894727 0 0 1 -0.10025,-0.05943 7.2894727,7.2894727 0 0 1 -0.0992,-0.06149 7.2894727,7.2894727 0 0 1 -0.0987,-0.06304 7.2894727,7.2894727 0 0 1 -0.0971,-0.06408 7.2894727,7.2894727 0 0 1 -0.0966,-0.06614 7.2894727,7.2894727 0 0 1 -0.0951,-0.0677 7.2894727,7.2894727 0 0 1 -0.094,-0.06925 7.2894727,7.2894727 0 0 1 -0.093,-0.07028 7.2894727,7.2894727 0 0 1 -0.092,-0.07235 7.2894727,7.2894727 0 0 1 -0.091,-0.07338 7.2894727,7.2894727 0 0 1 -0.0894,-0.07493 7.2894727,7.2894727 0 0 1 -0.0884,-0.07648 7.2894727,7.2894727 0 0 1 -0.0873,-0.07752 7.2894727,7.2894727 0 0 1 -0.0858,-0.07906 7.2894727,7.2894727 0 0 1 -0.0842,-0.08062 7.2894727,7.2894727 0 0 1 -0.0837,-0.08217 7.2894727,7.2894727 0 0 1 -0.0816,-0.0832 7.2894727,7.2894727 0 0 1 -0.0806,-0.08423 7.2894727,7.2894727 0 0 1 -0.0791,-0.08578 7.2894727,7.2894727 0 0 1 -0.078,-0.08733 7.2894727,7.2894727 0 0 1 -0.0765,-0.08785 7.2894727,7.2894727 0 0 1 -0.0749,-0.08992 7.2894727,7.2894727 0 0 1 -0.0739,-0.09043 7.2894727,7.2894727 0 0 1 -0.0718,-0.09199 7.2894727,7.2894727 0 0 1 -0.0708,-0.09302 7.2894727,7.2894727 0 0 1 -0.0692,-0.09405 7.2894727,7.2894727 0 0 1 -0.0672,-0.09508 7.2894727,7.2894727 0 0 1 -0.0661,-0.09612 7.2894727,7.2894727 0 0 1 -0.0646,-0.09767 7.2894727,7.2894727 0 0 1 -0.063,-0.09819 7.2894727,7.2894727 0 0 1 -0.0615,-0.09922 7.2894727,7.2894727 0 0 1 -0.06,-0.100251 7.2894727,7.2894727 0 0 1 -0.0579,-0.101287 7.2894727,7.2894727 0 0 1 -0.0568,-0.10232 7.2894727,7.2894727 0 0 1 -0.0548,-0.103352 7.2894727,7.2894727 0 0 1 -0.0532,-0.103871 7.2894727,7.2894727 0 0 1 -0.0517,-0.104386 7.2894727,7.2894727 0 0 1 -0.0496,-0.105936 7.2894727,7.2894727 0 0 1 -0.0481,-0.106453 7.2894727,7.2894727 0 0 1 -0.0465,-0.106971 7.2894727,7.2894727 0 0 1 -0.045,-0.108003 7.2894727,7.2894727 0 0 1 -0.0429,-0.108521 7.2894727,7.2894727 0 0 1 -0.0413,-0.109037 7.2894727,7.2894727 0 0 1 -0.0398,-0.110072 7.2894727,7.2894727 0 0 1 -0.0377,-0.110586 7.2894727,7.2894727 0 0 1 -0.0357,-0.111106 7.2894727,7.2894727 0 0 1 -0.0341,-0.11162 7.2894727,7.2894727 0 0 1 -0.0326,-0.112138 7.2894727,7.2894727 0 0 1 -0.0305,-0.112655 7.2894727,7.2894727 0 0 1 -0.0289,-0.113172 7.2894727,7.2894727 0 0 1 -0.0269,-0.113687 7.2894727,7.2894727 0 0 1 -0.0253,-0.114204 7.2894727,7.2894727 0 0 1 -0.0233,-0.114205 7.2894727,7.2894727 0 0 1 -0.0217,-0.114723 7.2894727,7.2894727 0 0 1 -0.0196,-0.115237 7.2894727,7.2894727 0 0 1 -0.0176,-0.115239 7.2894727,7.2894727 0 0 1 -0.016,-0.115756 7.2894727,7.2894727 0 0 1 -0.0139,-0.115755 7.2894727,7.2894727 0 0 1 -0.0124,-0.116271 7.2894727,7.2894727 0 0 1 -0.0103,-0.116274 7.2894727,7.2894727 0 0 1 -0.008,-0.116787 7.2894727,7.2894727 0 0 1 -0.007,-0.116274 7.2894727,7.2894727 0 0 1 -0.005,-0.116787 7.2894727,7.2894727 0 0 1 -0.003,-0.116789 7.2894727,7.2894727 0 0 1 -0.001,-0.11679 7.2894727,7.2894727 0 0 1 0,-0.0057 7.2894727,7.2894727 0 0 1 0.001,-0.116789 7.2894727,7.2894727 0 0 1 0.003,-0.116787 7.2894727,7.2894727 0 0 1 0.005,-0.11679 7.2894727,7.2894727 0 0 1 0.007,-0.116271 7.2894727,7.2894727 0 0 1 0.008,-0.11679 7.2894727,7.2894727 0 0 1 0.0103,-0.116271 7.2894727,7.2894727 0 0 1 0.0124,-0.116271 7.2894727,7.2894727 0 0 1 0.0139,-0.115756 7.2894727,7.2894727 0 0 1 0.0155,-0.115755 7.2894727,7.2894727 0 0 1 0.0181,-0.115239 7.2894727,7.2894727 0 0 1 0.0191,-0.115239 7.2894727,7.2894727 0 0 1 0.0217,-0.114721 7.2894727,7.2894727 0 0 1 0.0233,-0.114723 7.2894727,7.2894727 0 0 1 0.0248,-0.113686 7.2894727,7.2894727 0 0 1 0.0269,-0.113689 7.2894727,7.2894727 0 0 1 0.0289,-0.113173 7.2894727,7.2894727 0 0 1 0.0305,-0.112654 7.2894727,7.2894727 0 0 1 0.032,-0.112655 7.2894727,7.2894727 0 0 1 0.0341,-0.11162 7.2894727,7.2894727 0 0 1 0.0362,-0.111103 7.2894727,7.2894727 0 0 1 0.0377,-0.110588 7.2894727,7.2894727 0 0 1 0.0393,-0.109556 7.2894727,7.2894727 0 0 1 0.0413,-0.109554 7.2894727,7.2894727 0 0 1 0.0429,-0.108519 7.2894727,7.2894727 0 0 1 0.0444,-0.108005 7.2894727,7.2894727 0 0 1 0.0465,-0.106968 7.2894727,7.2894727 0 0 1 0.0481,-0.106456 7.2894727,7.2894727 0 0 1 0.0501,-0.10542 7.2894727,7.2894727 0 0 1 0.0512,-0.104902 7.2894727,7.2894727 0 0 1 0.0532,-0.104386 7.2894727,7.2894727 0 0 1 0.0548,-0.102836 7.2894727,7.2894727 0 0 1 0.0563,-0.102319 7.2894727,7.2894727 0 0 1 0.0584,-0.101286 7.2894727,7.2894727 0 0 1 0.0594,-0.100253 7.2894727,7.2894727 0 0 1 0.0615,-0.09922 7.2894727,7.2894727 0 0 1 0.063,-0.0987 7.2894727,7.2894727 0 0 1 0.0641,-0.09715 7.2894727,7.2894727 0 0 1 0.0662,-0.09664 7.2894727,7.2894727 0 0 1 0.0677,-0.09508 7.2894727,7.2894727 0 0 1 0.0692,-0.09405 7.2894727,7.2894727 0 0 1 0.0703,-0.09302 7.2894727,7.2894727 0 0 1 0.0724,-0.09198 7.2894727,7.2894727 0 0 1 0.0734,-0.09095 7.2894727,7.2894727 0 0 1 0.0749,-0.0894 7.2894727,7.2894727 0 0 1 0.0765,-0.08837 7.2894727,7.2894727 0 0 1 0.0775,-0.08733 7.2894727,7.2894727 0 0 1 0.0791,-0.08578 7.2894727,7.2894727 0 0 1 0.0806,-0.08423 7.2894727,7.2894727 0 0 1 0.0822,-0.08372 7.2894727,7.2894727 0 0 1 0.0832,-0.08165 7.2894727,7.2894727 0 0 1 0.0842,-0.08062 7.2894727,7.2894727 0 0 1 0.0858,-0.07906 7.2894727,7.2894727 0 0 1 0.0873,-0.07803 7.2894727,7.2894727 0 0 1 0.0878,-0.07648 7.2894727,7.2894727 0 0 1 0.0899,-0.07493 7.2894727,7.2894727 0 0 1 0.0904,-0.07389 7.2894727,7.2894727 0 0 1 0.092,-0.07183 7.2894727,7.2894727 0 0 1 0.093,-0.0708 7.2894727,7.2894727 0 0 1 0.094,-0.06924 7.2894727,7.2894727 0 0 1 0.0951,-0.06718 7.2894727,7.2894727 0 0 1 0.0961,-0.06615 7.2894727,7.2894727 0 0 1 0.0977,-0.0646 7.2894727,7.2894727 0 0 1 0.0982,-0.06305 7.2894727,7.2894727 0 0 1 0.0992,-0.06149 7.2894727,7.2894727 0 0 1 0.10025,-0.05994 7.2894727,7.2894727 0 0 1 0.10128,-0.05788 7.2894727,7.2894727 0 0 1 0.10232,-0.05684 7.2894727,7.2894727 0 0 1 0.10336,-0.05478 7.2894727,7.2894727 0 0 1 0.10387,-0.05323 7.2894727,7.2894727 0 0 1 0.10438,-0.05168 7.2894727,7.2894727 0 0 1 0.10594,-0.04961 7.2894727,7.2894727 0 0 1 0.10645,-0.04806 7.2894727,7.2894727 0 0 1 0.10697,-0.04651 7.2894727,7.2894727 0 0 1 0.10801,-0.04496 7.2894727,7.2894727 0 0 1 0.10852,-0.04289 7.2894727,7.2894727 0 0 1 0.10903,-0.04134 7.2894727,7.2894727 0 0 1 0.11008,-0.03979 7.2894727,7.2894727 0 0 1 0.11058,-0.03772 7.2894727,7.2894727 0 0 1 0.11111,-0.03566 7.2894727,7.2894727 0 0 1 0.11162,-0.03411 7.2894727,7.2894727 0 0 1 0.11214,-0.03256 7.2894727,7.2894727 0 0 1 0.11265,-0.03049 7.2894727,7.2894727 0 0 1 0.11317,-0.02894 7.2894727,7.2894727 0 0 1 0.11369,-0.02687 7.2894727,7.2894727 0 0 1 0.1142,-0.02532 7.2894727,7.2894727 0 0 1 0.11421,-0.02325 7.2894727,7.2894727 0 0 1 0.11472,-0.0217 7.2894727,7.2894727 0 0 1 0.11524,-0.01964 7.2894727,7.2894727 0 0 1 0.11524,-0.01757 7.2894727,7.2894727 0 0 1 0.11575,-0.01602 7.2894727,7.2894727 0 0 1 0.11576,-0.01395 7.2894727,7.2894727 0 0 1 0.11627,-0.0124 7.2894727,7.2894727 0 0 1 0.11627,-0.01033 7.2894727,7.2894727 0 0 1 0.11679,-0.0083 7.2894727,7.2894727 0 0 1 0.11627,-0.0067 7.2894727,7.2894727 0 0 1 0.11679,-0.0047 7.2894727,7.2894727 0 0 1 0.11679,-0.0031 7.2894727,7.2894727 0 0 1 0.11679,-10e-4 z" />
    <rect
       y="50.270832"
       x="89.958336"
       height="2.6458333"
       width="7.9375"
       id="rect862"
       style="fill:#000000;stroke-width:0;stroke-linejoin:round;stroke-miterlimit:4;stroke-dasharray:none" />
    <path
       d="m 91.495947,31.234454 c 0,0 -0.06921,0.206431 -0.08837,0.313159 -0.01968,0.109825 -0.02672,0.221734 -0.02687,0.333314 -1.48e-4,0.115504 0.0074,0.231859 0.02687,0.345715 0.01923,0.112498 0.08837,0.330729 0.08837,0.330729 h 2.645833 2.645833 c 0,0 0.06914,-0.218231 0.08837,-0.330729 0.01945,-0.113856 0.02702,-0.230211 0.02687,-0.345715 -1.5e-4,-0.11158 -0.0072,-0.223489 -0.02687,-0.333314 -0.01916,-0.106728 -0.08837,-0.313159 -0.08837,-0.313159 H 94.14178 Z"
       style="fill:#4d4d4d;stroke:#000000;stroke-width:0;stroke-linecap:butt;stroke-linejoin:miter;stroke-miterlimit:4;stroke-dasharray:none;stroke-opacity:1"
       id="path864" />
  </g>
  <g
     transform="translate(-67.366945,-33.254164)"
     inkscape:label="final"
     id="layer3"
     inkscape:groupmode="layer">
    <g
       id="g1316">
      <path
         id="path1309"
         style="display:inline;fill:#000000;stroke:#000000;stroke-width:0;stroke-linecap:butt;stroke-linejoin:miter;stroke-miterlimit:4;stroke-dasharray:none;stroke-opacity:1"
         d="m 254.61523,227.11133 1,15 6.95899,115.98828 h 198.17383 l 3.86718,-115.98828 h -160 l -2,-15 z"
         transform="scale(0.26458333)" />
      <path
         d="M 96.150213,40.058203 A 14.999318,14.999318 0 0 0 81.150892,55.057522 14.999318,14.999318 0 0 0 96.150213,70.056843 14.999318,14.999318 0 0 0 111.14953,55.057522 14.999318,14.999318 0 0 0 96.150213,40.058203 Z m -1.505624,2.253245 1.660974,0.422526 1.660976,0.42286 c 0,0 0.01062,0.140519 0.0058,0.210593 -0.0052,0.0721 -0.01879,0.143525 -0.03648,0.213607 -0.01834,0.07255 -0.04159,0.14422 -0.07199,0.212602 -0.03006,0.06756 -0.108476,0.193853 -0.108476,0.193853 l -1.66128,-0.422861 -1.661309,-0.422525 c 0,0 -0.0083,-0.148269 -0.0023,-0.221977 0.006,-0.0746 0.01996,-0.148807 0.0385,-0.221307 0.01792,-0.07004 0.04007,-0.139087 0.06997,-0.204901 0.02908,-0.06395 0.105799,-0.182469 0.105799,-0.18247 z m -4.444218,0.46806 c 0,0 0.142794,0.03979 0.210592,0.0693 0.06862,0.02987 0.134321,0.06706 0.196867,0.108143 0.06042,0.03969 0.118548,0.08327 0.171087,0.132918 0.05104,0.04827 0.138274,0.159033 0.138274,0.159033 l -0.939132,1.433975 -0.939467,1.433975 c 0,0 -0.136236,-0.03578 -0.200882,-0.06328 -0.06651,-0.02833 -0.129644,-0.06426 -0.190172,-0.10379 -0.06265,-0.04092 -0.122978,-0.08631 -0.177782,-0.137271 -0.05414,-0.05036 -0.147984,-0.165059 -0.147984,-0.165059 l 0.939133,-1.433975 z m 10.257119,2.01319 c 0,0 0.14826,0.0029 0.2213,0.0144 0.0739,0.01162 0.14708,0.03091 0.21797,0.05491 0.0685,0.02319 0.13553,0.05088 0.19887,0.08571 0.0615,0.03386 0.1741,0.118857 0.1741,0.118857 l -0.54774,1.62448 -0.54775,1.624479 c 0,0 -0.14111,-3.42e-4 -0.210585,-0.01072 -0.0715,-0.01066 -0.14172,-0.02956 -0.21026,-0.05256 -0.0709,-0.02382 -0.14071,-0.05252 -0.20658,-0.08805 -0.0651,-0.0351 -0.18481,-0.122539 -0.18481,-0.122539 l 0.54775,-1.624481 z m -7.217079,2.040978 c 0,0 0.07811,0.117289 0.108143,0.180796 0.03088,0.06536 0.05436,0.13414 0.07332,0.203896 0.01963,0.07221 0.03442,0.146488 0.04152,0.220972 0.007,0.07361 7.13e-4,0.221642 7.13e-4,0.221642 l -1.654612,0.447636 -1.654948,0.447636 c 0,0 -0.08011,-0.124737 -0.111156,-0.191844 -0.03144,-0.06791 -0.05589,-0.139668 -0.07533,-0.211932 -0.01878,-0.06981 -0.03322,-0.140922 -0.03951,-0.212937 -0.0061,-0.06999 0.0023,-0.210927 0.0023,-0.210929 l 1.654614,-0.447299 z m 12.614159,0.21796 c 0.044,8.42e-4 0.0794,0.0027 0.0794,0.0027 l 0.46237,1.650595 0.46203,1.65093 c 0,0 -0.11655,0.07921 -0.17979,0.109816 -0.0651,0.03147 -0.13364,0.05542 -0.20323,0.075 -0.072,0.02027 -0.14588,0.03576 -0.2203,0.04353 -0.0735,0.0076 -0.22198,0.0027 -0.22198,0.0027 l -0.46204,-1.650594 -0.46236,-1.65093 c 0,0 0.12401,-0.08117 0.19084,-0.112831 0.0676,-0.03206 0.13883,-0.05693 0.21093,-0.077 0.0696,-0.0194 0.14064,-0.0346 0.2126,-0.04152 0.035,-0.0034 0.0876,-0.0032 0.13158,-0.0023 z m -22.126675,0.930091 1.600711,0.61303 1.600708,0.613365 c 0,0 -0.006,0.140913 -0.01909,0.209923 -0.01356,0.071 -0.03516,0.140378 -0.06093,0.207915 -0.02668,0.06992 -0.05826,0.138518 -0.09642,0.202894 -0.03771,0.0636 -0.13024,0.179787 -0.13024,0.179791 l -1.600709,-0.613366 -1.600709,-0.613365 c 0,0 0.0087,-0.148119 0.0231,-0.220637 0.01462,-0.0734 0.03709,-0.145438 0.06395,-0.21528 0.02595,-0.06747 0.05605,-0.133647 0.09341,-0.195528 0.03633,-0.06013 0.12622,-0.168742 0.12622,-0.168742 z m 12.418635,2.353018 a 4.722774,4.722774 0 0 1 0.0037,0 4.722774,4.722774 0 0 1 0.07567,7.13e-4 4.722774,4.722774 0 0 1 0.07567,0.0017 4.722774,4.722774 0 0 1 0.07567,0.0034 4.722774,4.722774 0 0 1 0.07533,0.0043 4.722774,4.722774 0 0 1 0.07567,0.0054 4.722774,4.722774 0 0 1 0.07533,0.0067 4.722774,4.722774 0 0 1 0.07533,0.008 4.722774,4.722774 0 0 1 0.075,0.009 4.722774,4.722774 0 0 1 0.075,0.01004 4.722774,4.722774 0 0 1 0.07466,0.01173 4.722774,4.722774 0 0 1 0.07467,0.01239 4.722774,4.722774 0 0 1 0.07433,0.01406 4.722774,4.722774 0 0 1 0.07433,0.01507 4.722774,4.722774 0 0 1 0.07366,0.01606 4.722774,4.722774 0 0 1 0.07365,0.01741 4.722774,4.722774 0 0 1 0.07333,0.01875 4.722774,4.722774 0 0 1 0.07299,0.01975 4.722774,4.722774 0 0 1 0.07299,0.02076 4.722774,4.722774 0 0 1 0.07232,0.0221 4.722774,4.722774 0 0 1 0.07198,0.02343 4.722774,4.722774 0 0 1 0.07165,0.02444 4.722774,4.722774 0 0 1 0.07098,0.02544 4.722774,4.722774 0 0 1 0.07098,0.02678 4.722774,4.722774 0 0 1 0.07031,0.02746 4.722774,4.722774 0 0 1 0.06997,0.02879 4.722774,4.722774 0 0 1 0.0693,0.03013 4.722774,4.722774 0 0 1 0.06897,0.03114 4.722774,4.722774 0 0 1 0.0683,0.03281 4.722774,4.722774 0 0 1 0.06797,0.03315 4.722774,4.722774 0 0 1 0.06763,0.03449 4.722774,4.722774 0 0 1 0.06663,0.03549 4.722774,4.722774 0 0 1 0.06629,0.03683 4.722774,4.722774 0 0 1 0.06562,0.0375 4.722774,4.722774 0 0 1 0.06494,0.0385 4.722774,4.722774 0 0 1 0.0643,0.04017 4.722774,4.722774 0 0 1 0.0639,0.04085 4.722774,4.722774 0 0 1 0.0629,0.04152 4.722774,4.722774 0 0 1 0.0626,0.04286 4.722774,4.722774 0 0 1 0.0616,0.04386 4.722774,4.722774 0 0 1 0.0609,0.04487 4.722774,4.722774 0 0 1 0.0602,0.04553 4.722774,4.722774 0 0 1 0.0596,0.04687 4.722774,4.722774 0 0 1 0.059,0.04754 4.722774,4.722774 0 0 1 0.0579,0.04855 4.722774,4.722774 0 0 1 0.0573,0.04955 4.722774,4.722774 0 0 1 0.0566,0.05022 4.722774,4.722774 0 0 1 0.0556,0.05122 4.722774,4.722774 0 0 1 0.0545,0.05223 4.722774,4.722774 0 0 1 0.0542,0.05324 4.722774,4.722774 0 0 1 0.0529,0.0539 4.722774,4.722774 0 0 1 0.0522,0.05457 4.722774,4.722774 0 0 1 0.0512,0.05558 4.722774,4.722774 0 0 1 0.0505,0.05658 4.722774,4.722774 0 0 1 0.0496,0.05692 4.722774,4.722774 0 0 1 0.0485,0.05826 4.722774,4.722774 0 0 1 0.0479,0.05859 4.722774,4.722774 0 0 1 0.0465,0.05959 4.722774,4.722774 0 0 1 0.0459,0.06027 4.722774,4.722774 0 0 1 0.0449,0.06093 4.722774,4.722774 0 0 1 0.0435,0.06161 4.722774,4.722774 0 0 1 0.0429,0.06227 4.722774,4.722774 0 0 1 0.0418,0.06328 4.722774,4.722774 0 0 1 0.0408,0.06362 4.722774,4.722774 0 0 1 0.0398,0.06428 4.722774,4.722774 0 0 1 0.0388,0.06495 4.722774,4.722774 0 0 1 0.0375,0.06562 4.722774,4.722774 0 0 1 0.0368,0.06629 4.722774,4.722774 0 0 1 0.0355,0.06696 4.722774,4.722774 0 0 1 0.0345,0.0673 4.722774,4.722774 0 0 1 0.0335,0.06763 4.722774,4.722774 0 0 1 0.0321,0.06864 4.722774,4.722774 0 0 1 0.0312,0.06897 4.722774,4.722774 0 0 1 0.0301,0.06931 4.722774,4.722774 0 0 1 0.0292,0.06997 4.722774,4.722774 0 0 1 0.0278,0.07031 4.722774,4.722774 0 0 1 0.0268,0.07064 4.722774,4.722774 0 0 1 0.0258,0.07131 4.722774,4.722774 0 0 1 0.0244,0.07165 4.722774,4.722774 0 0 1 0.0231,0.07198 4.722774,4.722774 0 0 1 0.0221,0.07232 4.722774,4.722774 0 0 1 0.0211,0.07265 4.722774,4.722774 0 0 1 0.0198,0.07299 4.722774,4.722774 0 0 1 0.0187,0.07332 4.722774,4.722774 0 0 1 0.0174,0.07366 4.722774,4.722774 0 0 1 0.0164,0.07399 4.722774,4.722774 0 0 1 0.0151,0.07399 4.722774,4.722774 0 0 1 0.0141,0.07433 4.722774,4.722774 0 0 1 0.0127,0.07466 4.722774,4.722774 0 0 1 0.0114,0.07466 4.722774,4.722774 0 0 1 0.0104,0.075 4.722774,4.722774 0 0 1 0.009,0.075 4.722774,4.722774 0 0 1 0.008,0.07533 4.722774,4.722774 0 0 1 0.007,0.07533 4.722774,4.722774 0 0 1 0.005,0.07566 4.722774,4.722774 0 0 1 0.005,0.07533 4.722774,4.722774 0 0 1 0.004,0.07567 4.722774,4.722774 0 0 1 0.002,0.07567 4.722774,4.722774 0 0 1 3.5e-4,0.07567 4.722774,4.722774 0 0 1 0,0.0037 4.722774,4.722774 0 0 1 -3.5e-4,0.07567 4.722774,4.722774 0 0 1 -0.002,0.07567 4.722774,4.722774 0 0 1 -0.003,0.07567 4.722774,4.722774 0 0 1 -0.004,0.07533 4.722774,4.722774 0 0 1 -0.005,0.07567 4.722774,4.722774 0 0 1 -0.007,0.07533 4.722774,4.722774 0 0 1 -0.008,0.07533 4.722774,4.722774 0 0 1 -0.009,0.075 4.722774,4.722774 0 0 1 -0.01,0.075 4.722774,4.722774 0 0 1 -0.0117,0.07466 4.722774,4.722774 0 0 1 -0.0124,0.07466 4.722774,4.722774 0 0 1 -0.0141,0.07433 4.722774,4.722774 0 0 1 -0.0151,0.07433 4.722774,4.722774 0 0 1 -0.0161,0.07366 4.722774,4.722774 0 0 1 -0.0174,0.07366 4.722774,4.722774 0 0 1 -0.0187,0.07332 4.722774,4.722774 0 0 1 -0.0198,0.07299 4.722774,4.722774 0 0 1 -0.0207,0.07299 4.722774,4.722774 0 0 1 -0.0221,0.07232 4.722774,4.722774 0 0 1 -0.0234,0.07198 4.722774,4.722774 0 0 1 -0.0244,0.07165 4.722774,4.722774 0 0 1 -0.0255,0.07098 4.722774,4.722774 0 0 1 -0.0268,0.07098 4.722774,4.722774 0 0 1 -0.0278,0.07031 4.722774,4.722774 0 0 1 -0.0288,0.06997 4.722774,4.722774 0 0 1 -0.0301,0.06931 4.722774,4.722774 0 0 1 -0.0312,0.06897 4.722774,4.722774 0 0 1 -0.0325,0.0683 4.722774,4.722774 0 0 1 -0.0332,0.06797 4.722774,4.722774 0 0 1 -0.0345,0.06763 4.722774,4.722774 0 0 1 -0.0355,0.06663 4.722774,4.722774 0 0 1 -0.0365,0.06629 4.722774,4.722774 0 0 1 -0.0378,0.06562 4.722774,4.722774 0 0 1 -0.0385,0.06495 4.722774,4.722774 0 0 1 -0.0398,0.06428 4.722774,4.722774 0 0 1 -0.0409,0.06395 4.722774,4.722774 0 0 1 -0.0415,0.06294 4.722774,4.722774 0 0 1 -0.0428,0.06261 4.722774,4.722774 0 0 1 -0.0439,0.0616 4.722774,4.722774 0 0 1 -0.0448,0.06093 4.722774,4.722774 0 0 1 -0.0456,0.06027 4.722774,4.722774 0 0 1 -0.0468,0.05959 4.722774,4.722774 0 0 1 -0.0476,0.05893 4.722774,4.722774 0 0 1 -0.0485,0.05792 4.722774,4.722774 0 0 1 -0.0496,0.05725 4.722774,4.722774 0 0 1 -0.0502,0.05658 4.722774,4.722774 0 0 1 -0.0512,0.05558 4.722774,4.722774 0 0 1 -0.0522,0.05457 4.722774,4.722774 0 0 1 -0.0533,0.05424 4.722774,4.722774 0 0 1 -0.0539,0.0529 4.722774,4.722774 0 0 1 -0.0546,0.05223 4.722774,4.722774 0 0 1 -0.0556,0.05123 4.722774,4.722774 0 0 1 -0.0566,0.05056 4.722774,4.722774 0 0 1 -0.057,0.04955 4.722774,4.722774 0 0 1 -0.0583,0.04855 4.722774,4.722774 0 0 1 -0.0586,0.04788 4.722774,4.722774 0 0 1 -0.0596,0.04654 4.722774,4.722774 0 0 1 -0.0602,0.04587 4.722774,4.722774 0 0 1 -0.061,0.04487 4.722774,4.722774 0 0 1 -0.0616,0.04353 4.722774,4.722774 0 0 1 -0.0623,0.04286 4.722774,4.722774 0 0 1 -0.0633,0.04185 4.722774,4.722774 0 0 1 -0.0636,0.04084 4.722774,4.722774 0 0 1 -0.0643,0.03984 4.722774,4.722774 0 0 1 -0.06495,0.03883 4.722774,4.722774 0 0 1 -0.06562,0.0375 4.722774,4.722774 0 0 1 -0.06629,0.03683 4.722774,4.722774 0 0 1 -0.06697,0.03549 4.722774,4.722774 0 0 1 -0.06729,0.03449 4.722774,4.722774 0 0 1 -0.06763,0.03348 4.722774,4.722774 0 0 1 -0.06864,0.03214 4.722774,4.722774 0 0 1 -0.06897,0.03114 4.722774,4.722774 0 0 1 -0.0693,0.03013 4.722774,4.722774 0 0 1 -0.06997,0.02913 4.722774,4.722774 0 0 1 -0.07032,0.02779 4.722774,4.722774 0 0 1 -0.07064,0.02678 4.722774,4.722774 0 0 1 -0.07131,0.02578 4.722774,4.722774 0 0 1 -0.07165,0.02445 4.722774,4.722774 0 0 1 -0.07198,0.0231 4.722774,4.722774 0 0 1 -0.07232,0.0221 4.722774,4.722774 0 0 1 -0.07265,0.0211 4.722774,4.722774 0 0 1 -0.07299,0.01975 4.722774,4.722774 0 0 1 -0.07332,0.01875 4.722774,4.722774 0 0 1 -0.07366,0.01741 4.722774,4.722774 0 0 1 -0.07399,0.0164 4.722774,4.722774 0 0 1 -0.07399,0.01507 4.722774,4.722774 0 0 1 -0.07433,0.01406 4.722774,4.722774 0 0 1 -0.07466,0.01272 4.722774,4.722774 0 0 1 -0.07466,0.01138 4.722774,4.722774 0 0 1 -0.075,0.01037 4.722774,4.722774 0 0 1 -0.075,0.009 4.722774,4.722774 0 0 1 -0.07533,0.008 4.722774,4.722774 0 0 1 -0.07533,0.0067 4.722774,4.722774 0 0 1 -0.07567,0.0054 4.722774,4.722774 0 0 1 -0.07533,0.0043 4.722774,4.722774 0 0 1 -0.07567,0.003 4.722774,4.722774 0 0 1 -0.07567,0.002 4.722774,4.722774 0 0 1 -0.07567,7.13e-4 4.722774,4.722774 0 0 1 -0.0037,0 4.722774,4.722774 0 0 1 -0.07567,-7.13e-4 4.722774,4.722774 0 0 1 -0.07567,-0.0017 4.722774,4.722774 0 0 1 -0.07567,-0.003 4.722774,4.722774 0 0 1 -0.07533,-0.0043 4.722774,4.722774 0 0 1 -0.07567,-0.0054 4.722774,4.722774 0 0 1 -0.07533,-0.0067 4.722774,4.722774 0 0 1 -0.07533,-0.008 4.722774,4.722774 0 0 1 -0.075,-0.009 4.722774,4.722774 0 0 1 -0.075,-0.01004 4.722774,4.722774 0 0 1 -0.07466,-0.01173 4.722774,4.722774 0 0 1 -0.07466,-0.01239 4.722774,4.722774 0 0 1 -0.07433,-0.01406 4.722774,4.722774 0 0 1 -0.07433,-0.01507 4.722774,4.722774 0 0 1 -0.07366,-0.01606 4.722774,4.722774 0 0 1 -0.07366,-0.01741 4.722774,4.722774 0 0 1 -0.07332,-0.01875 4.722774,4.722774 0 0 1 -0.07299,-0.01975 4.722774,4.722774 0 0 1 -0.07297,-0.02075 4.722774,4.722774 0 0 1 -0.07232,-0.0221 4.722774,4.722774 0 0 1 -0.07198,-0.02343 4.722774,4.722774 0 0 1 -0.07165,-0.02444 4.722774,4.722774 0 0 1 -0.07098,-0.02544 4.722774,4.722774 0 0 1 -0.07098,-0.02678 4.722774,4.722774 0 0 1 -0.07031,-0.02779 4.722774,4.722774 0 0 1 -0.06997,-0.02879 4.722774,4.722774 0 0 1 -0.0693,-0.03013 4.722774,4.722774 0 0 1 -0.06897,-0.03114 4.722774,4.722774 0 0 1 -0.0683,-0.03247 4.722774,4.722774 0 0 1 -0.06797,-0.03315 4.722774,4.722774 0 0 1 -0.06763,-0.03449 4.722774,4.722774 0 0 1 -0.06663,-0.03549 4.722774,4.722774 0 0 1 -0.06629,-0.0365 4.722774,4.722774 0 0 1 -0.06562,-0.03783 4.722774,4.722774 0 0 1 -0.06495,-0.0385 4.722774,4.722774 0 0 1 -0.06428,-0.03984 4.722774,4.722774 0 0 1 -0.06395,-0.04084 4.722774,4.722774 0 0 1 -0.06294,-0.04152 4.722774,4.722774 0 0 1 -0.06261,-0.04286 4.722774,4.722774 0 0 1 -0.06161,-0.04386 4.722774,4.722774 0 0 1 -0.06093,-0.04487 4.722774,4.722774 0 0 1 -0.06027,-0.04553 4.722774,4.722774 0 0 1 -0.0596,-0.04687 4.722774,4.722774 0 0 1 -0.05893,-0.04754 4.722774,4.722774 0 0 1 -0.05792,-0.04855 4.722774,4.722774 0 0 1 -0.05725,-0.04955 4.722774,4.722774 0 0 1 -0.05658,-0.05022 4.722774,4.722774 0 0 1 -0.05558,-0.05122 4.722774,4.722774 0 0 1 -0.05457,-0.05223 4.722774,4.722774 0 0 1 -0.05424,-0.05324 4.722774,4.722774 0 0 1 -0.0529,-0.0539 4.722774,4.722774 0 0 1 -0.05223,-0.05457 4.722774,4.722774 0 0 1 -0.05122,-0.05558 4.722774,4.722774 0 0 1 -0.05056,-0.05658 4.722774,4.722774 0 0 1 -0.04955,-0.05692 4.722774,4.722774 0 0 1 -0.04855,-0.05826 4.722774,4.722774 0 0 1 -0.04788,-0.05859 4.722774,4.722774 0 0 1 -0.04654,-0.05959 4.722774,4.722774 0 0 1 -0.04587,-0.06027 4.722774,4.722774 0 0 1 -0.04487,-0.06093 4.722774,4.722774 0 0 1 -0.04353,-0.0616 4.722774,4.722774 0 0 1 -0.04285,-0.06227 4.722774,4.722774 0 0 1 -0.04185,-0.06328 4.722774,4.722774 0 0 1 -0.04084,-0.06361 4.722774,4.722774 0 0 1 -0.03984,-0.06428 4.722774,4.722774 0 0 1 -0.03883,-0.06495 4.722774,4.722774 0 0 1 -0.0375,-0.06562 4.722774,4.722774 0 0 1 -0.03683,-0.06629 4.722774,4.722774 0 0 1 -0.03549,-0.06696 4.722774,4.722774 0 0 1 -0.03449,-0.0673 4.722774,4.722774 0 0 1 -0.03348,-0.06763 4.722774,4.722774 0 0 1 -0.03214,-0.06864 4.722774,4.722774 0 0 1 -0.03147,-0.06897 4.722774,4.722774 0 0 1 -0.03013,-0.0693 4.722774,4.722774 0 0 1 -0.02913,-0.06998 4.722774,4.722774 0 0 1 -0.02779,-0.07031 4.722774,4.722774 0 0 1 -0.02678,-0.07064 4.722774,4.722774 0 0 1 -0.02578,-0.07131 4.722774,4.722774 0 0 1 -0.02411,-0.07165 4.722774,4.722774 0 0 1 -0.0231,-0.07198 4.722774,4.722774 0 0 1 -0.02243,-0.07232 4.722774,4.722774 0 0 1 -0.0211,-0.07265 4.722774,4.722774 0 0 1 -0.01975,-0.07299 4.722774,4.722774 0 0 1 -0.01875,-0.07332 4.722774,4.722774 0 0 1 -0.01741,-0.07366 4.722774,4.722774 0 0 1 -0.0164,-0.07399 4.722774,4.722774 0 0 1 -0.01507,-0.07399 4.722774,4.722774 0 0 1 -0.01373,-0.07433 4.722774,4.722774 0 0 1 -0.01306,-0.07466 4.722774,4.722774 0 0 1 -0.01138,-0.07466 4.722774,4.722774 0 0 1 -0.01037,-0.075 4.722774,4.722774 0 0 1 -0.0087,-0.075 4.722774,4.722774 0 0 1 -0.008,-0.07533 4.722774,4.722774 0 0 1 -0.0067,-0.07533 4.722774,4.722774 0 0 1 -0.0057,-0.07567 4.722774,4.722774 0 0 1 -0.0043,-0.07533 4.722774,4.722774 0 0 1 -0.0034,-0.07567 4.722774,4.722774 0 0 1 -0.002,-0.07567 4.722774,4.722774 0 0 1 -3.43e-4,-0.07567 4.722774,4.722774 0 0 1 0,-0.0037 4.722774,4.722774 0 0 1 3.43e-4,-0.07567 4.722774,4.722774 0 0 1 0.002,-0.07567 4.722774,4.722774 0 0 1 0.003,-0.07567 4.722774,4.722774 0 0 1 0.0043,-0.07533 4.722774,4.722774 0 0 1 0.0054,-0.07567 4.722774,4.722774 0 0 1 0.0067,-0.07533 4.722774,4.722774 0 0 1 0.008,-0.07533 4.722774,4.722774 0 0 1 0.009,-0.075 4.722774,4.722774 0 0 1 0.01004,-0.075 4.722774,4.722774 0 0 1 0.01173,-0.07466 4.722774,4.722774 0 0 1 0.01239,-0.07466 4.722774,4.722774 0 0 1 0.01406,-0.07433 4.722774,4.722774 0 0 1 0.01507,-0.07433 4.722774,4.722774 0 0 1 0.01606,-0.07366 4.722774,4.722774 0 0 1 0.01741,-0.07366 4.722774,4.722774 0 0 1 0.01875,-0.07332 4.722774,4.722774 0 0 1 0.01975,-0.07299 4.722774,4.722774 0 0 1 0.02076,-0.07299 4.722774,4.722774 0 0 1 0.0221,-0.07232 4.722774,4.722774 0 0 1 0.02343,-0.07198 4.722774,4.722774 0 0 1 0.02444,-0.07165 4.722774,4.722774 0 0 1 0.02544,-0.07098 4.722774,4.722774 0 0 1 0.02678,-0.07098 4.722774,4.722774 0 0 1 0.02779,-0.07031 4.722774,4.722774 0 0 1 0.02879,-0.06997 4.722774,4.722774 0 0 1 0.03013,-0.06931 4.722774,4.722774 0 0 1 0.03114,-0.06897 4.722774,4.722774 0 0 1 0.03247,-0.0683 4.722774,4.722774 0 0 1 0.03315,-0.06796 4.722774,4.722774 0 0 1 0.03449,-0.06763 4.722774,4.722774 0 0 1 0.03549,-0.06663 4.722774,4.722774 0 0 1 0.0365,-0.06629 4.722774,4.722774 0 0 1 0.03783,-0.06562 4.722774,4.722774 0 0 1 0.0385,-0.06495 4.722774,4.722774 0 0 1 0.03984,-0.06428 4.722774,4.722774 0 0 1 0.04084,-0.06395 4.722774,4.722774 0 0 1 0.04152,-0.06294 4.722774,4.722774 0 0 1 0.04286,-0.06261 4.722774,4.722774 0 0 1 0.04386,-0.06161 4.722774,4.722774 0 0 1 0.04487,-0.06093 4.722774,4.722774 0 0 1 0.04553,-0.06027 4.722774,4.722774 0 0 1 0.04687,-0.05959 4.722774,4.722774 0 0 1 0.04754,-0.05893 4.722774,4.722774 0 0 1 0.04855,-0.05792 4.722774,4.722774 0 0 1 0.04955,-0.05725 4.722774,4.722774 0 0 1 0.05022,-0.05658 4.722774,4.722774 0 0 1 0.05122,-0.05558 4.722774,4.722774 0 0 1 0.05223,-0.05457 4.722774,4.722774 0 0 1 0.05324,-0.05424 4.722774,4.722774 0 0 1 0.05391,-0.0529 4.722774,4.722774 0 0 1 0.05457,-0.05223 4.722774,4.722774 0 0 1 0.05558,-0.05123 4.722774,4.722774 0 0 1 0.05658,-0.05056 4.722774,4.722774 0 0 1 0.05692,-0.04955 4.722774,4.722774 0 0 1 0.05826,-0.04855 4.722774,4.722774 0 0 1 0.05859,-0.04788 4.722774,4.722774 0 0 1 0.0596,-0.04654 4.722774,4.722774 0 0 1 0.06027,-0.04587 4.722774,4.722774 0 0 1 0.06093,-0.04487 4.722774,4.722774 0 0 1 0.0616,-0.04352 4.722774,4.722774 0 0 1 0.06227,-0.04285 4.722774,4.722774 0 0 1 0.06328,-0.04185 4.722774,4.722774 0 0 1 0.06361,-0.04085 4.722774,4.722774 0 0 1 0.06428,-0.03984 4.722774,4.722774 0 0 1 0.06495,-0.03883 4.722774,4.722774 0 0 1 0.06562,-0.0375 4.722774,4.722774 0 0 1 0.06629,-0.03683 4.722774,4.722774 0 0 1 0.06696,-0.03549 4.722774,4.722774 0 0 1 0.0673,-0.03482 4.722774,4.722774 0 0 1 0.06763,-0.03348 4.722774,4.722774 0 0 1 0.06864,-0.03214 4.722774,4.722774 0 0 1 0.06897,-0.03114 4.722774,4.722774 0 0 1 0.0693,-0.03013 4.722774,4.722774 0 0 1 0.06998,-0.02913 4.722774,4.722774 0 0 1 0.07031,-0.02779 4.722774,4.722774 0 0 1 0.07064,-0.02678 4.722774,4.722774 0 0 1 0.07131,-0.02578 4.722774,4.722774 0 0 1 0.07165,-0.02444 4.722774,4.722774 0 0 1 0.07198,-0.0231 4.722774,4.722774 0 0 1 0.07232,-0.0221 4.722774,4.722774 0 0 1 0.07265,-0.02109 4.722774,4.722774 0 0 1 0.07299,-0.01975 4.722774,4.722774 0 0 1 0.07332,-0.01875 4.722774,4.722774 0 0 1 0.07366,-0.01741 4.722774,4.722774 0 0 1 0.07399,-0.0164 4.722774,4.722774 0 0 1 0.07399,-0.01507 4.722774,4.722774 0 0 1 0.07433,-0.01406 4.722774,4.722774 0 0 1 0.07466,-0.01272 4.722774,4.722774 0 0 1 0.07466,-0.01138 4.722774,4.722774 0 0 1 0.075,-0.01039 4.722774,4.722774 0 0 1 0.075,-0.009 4.722774,4.722774 0 0 1 0.07533,-0.008 4.722774,4.722774 0 0 1 0.07533,-0.0063 4.722774,4.722774 0 0 1 0.07567,-0.0057 4.722774,4.722774 0 0 1 0.07533,-0.0043 4.722774,4.722774 0 0 1 0.07567,-0.003 4.722774,4.722774 0 0 1 0.07567,-0.002 4.722774,4.722774 0 0 1 0.07567,-7.12e-4 z m -11.774802,1.446029 0.932437,1.438327 0.932435,1.438663 c 0,0 -0.09427,0.114288 -0.148655,0.164389 -0.05504,0.05071 -0.115935,0.09598 -0.178787,0.136602 -0.06071,0.03924 -0.12386,0.07478 -0.190503,0.102785 -0.06478,0.0272 -0.201555,0.06227 -0.201555,0.06227 l -0.932435,-1.438329 -0.932101,-1.438662 c 0,0 0.08767,-0.110336 0.138946,-0.158363 0.05278,-0.0494 0.111146,-0.09251 0.171754,-0.131914 0.06274,-0.04078 0.128782,-0.07759 0.197537,-0.107137 0.06793,-0.02919 0.210927,-0.06864 0.210927,-0.06864 z m 19.917952,0.832663 1.61846,0.564483 1.61879,0.564484 c 0,0 -0.002,0.140879 -0.0127,0.210258 -0.0114,0.07138 -0.0312,0.141633 -0.0549,0.209924 -0.0246,0.07069 -0.0539,0.14007 -0.0901,0.205571 -0.0358,0.06472 -0.12455,0.183473 -0.12455,0.183473 l -1.61879,-0.564483 -1.61845,-0.564484 c 0,0 0.004,-0.148383 0.0164,-0.221306 0.0124,-0.07381 0.0325,-0.146662 0.0573,-0.217289 0.0239,-0.06823 0.0523,-0.135219 0.0877,-0.198206 0.0345,-0.0612 0.12086,-0.172425 0.12086,-0.172425 z m 2.38885,4.575127 c 0,0 0.14819,0.0019 0.2213,0.01306 0.074,0.01121 0.14729,0.03028 0.2183,0.0539 0.0686,0.02283 0.13601,0.04989 0.19955,0.08437 0.0617,0.03353 0.17443,0.118188 0.17443,0.118188 l -0.53904,1.627157 -0.53904,1.627159 c 0,0 -0.14105,5.14e-4 -0.21059,-0.0094 -0.0716,-0.01027 -0.14161,-0.02859 -0.21026,-0.05122 -0.0711,-0.02344 -0.14119,-0.0519 -0.20724,-0.08705 -0.0653,-0.03475 -0.18549,-0.121868 -0.18549,-0.121868 l 0.53904,-1.627158 z m -19.966171,0.119527 1.665996,0.403106 1.66633,0.403442 c 0,0 0.01192,0.140464 0.0077,0.210592 -0.0043,0.07216 -0.0169,0.143656 -0.03382,0.213943 -0.01751,0.07276 -0.04004,0.144874 -0.06964,0.213605 -0.02925,0.06791 -0.105799,0.194857 -0.105799,0.194857 l -1.666327,-0.40344 -1.665996,-0.403108 c 0,0 -0.01039,-0.147869 -0.0054,-0.221642 0.0051,-0.07466 0.01813,-0.149265 0.03582,-0.221976 0.01711,-0.07024 0.03852,-0.139412 0.06763,-0.205571 0.02833,-0.06428 0.103456,-0.183808 0.103455,-0.183808 z m 0.778089,2.776883 c 0.04401,-1e-5 0.09669,10e-4 0.13158,0.0051 0.0718,0.0084 0.142368,0.02505 0.211598,0.04587 0.07166,0.02156 0.142286,0.04796 0.209253,0.08136 0.06617,0.03301 0.188831,0.116847 0.188831,0.116847 l -0.495849,1.640887 -0.496182,1.640884 c 0,0 -0.148267,0.0018 -0.221643,-0.0074 -0.07426,-0.0093 -0.147691,-0.02614 -0.219296,-0.04788 -0.06917,-0.021 -0.137128,-0.04656 -0.201553,-0.07935 -0.0626,-0.03188 -0.177783,-0.113499 -0.177783,-0.113499 l 0.495847,-1.640914 0.495848,-1.640885 c 0,0 0.03534,-10e-4 0.07935,-10e-4 z m 10.645164,0.853086 c 0.07391,-0.0023 0.221306,0.01339 0.221306,0.01339 l 0.340837,1.680057 0.34116,1.68006 c 0,0 -0.12958,0.07173 -0.19854,0.09843 -0.0698,0.02704 -0.14292,0.04715 -0.21628,0.06194 -0.07087,0.01428 -0.142679,0.0241 -0.214944,0.02578 -0.07024,0.0016 -0.21026,-0.01574 -0.21026,-0.01574 L 97.858056,62.801919 97.51689,61.12186 c 0,0 0.122199,-0.0705 0.187493,-0.09642 0.0672,-0.02664 0.137424,-0.04546 0.208251,-0.05993 0.07331,-0.01499 0.148179,-0.02512 0.222978,-0.02746 z m 3.809758,0.617383 1.22171,1.201954 1.22204,1.202289 c 0,0 -0.0672,0.132155 -0.10948,0.192848 -0.0428,0.06143 -0.0921,0.118816 -0.14464,0.172092 -0.0508,0.05146 -0.10473,0.09984 -0.16372,0.141622 -0.0573,0.04058 -0.18314,0.104459 -0.18314,0.104459 l -1.22204,-1.202289 -1.22204,-1.201954 c 0,0 0.0618,-0.126814 0.10145,-0.184813 0.0408,-0.05966 0.0886,-0.1148 0.13927,-0.166398 0.0524,-0.05341 0.10869,-0.103571 0.16941,-0.147316 0.06,-0.04322 0.19118,-0.112494 0.19118,-0.112494 z m -8.274398,0.616377 c 0,0 0.09346,0.105595 0.131914,0.164391 0.03954,0.06051 0.0721,0.12534 0.100442,0.191844 0.02934,0.06884 0.05442,0.140112 0.07165,0.212937 0.01702,0.07196 0.0308,0.219633 0.0308,0.219633 l -1.577608,0.669947 -1.577943,0.669947 c 0,0 -0.09664,-0.112545 -0.136599,-0.174769 -0.04044,-0.06297 -0.07429,-0.13029 -0.103457,-0.19921 -0.02816,-0.06658 -0.05223,-0.135091 -0.0683,-0.205571 -0.0156,-0.0685 -0.02678,-0.209253 -0.02678,-0.209253 l 1.577942,-0.669947 z m 0.771394,4.272129 h 1.714208 1.714206 c 0,0 0.04483,0.133745 0.05727,0.202892 0.01276,0.07116 0.0173,0.143659 0.01743,0.215951 9.7e-5,0.07483 -0.0045,0.150219 -0.01743,0.223985 -0.01244,0.07289 -0.05727,0.214276 -0.05727,0.214276 h -1.714206 -1.714208 c 0,0 -0.0448,-0.141389 -0.05725,-0.214276 -0.01261,-0.07377 -0.01751,-0.149152 -0.01741,-0.223985 9.8e-5,-0.07229 0.0047,-0.144796 0.01741,-0.215951 0.01241,-0.06915 0.05725,-0.202892 0.05725,-0.202892 z"
         style="fill:#000000;stroke-width:0;stroke-linejoin:round;stroke-miterlimit:4;stroke-dasharray:none"
         id="path1072-5" />
      <path
         style="fill:none;stroke:#000000;stroke-width:1.765;stroke-linecap:butt;stroke-linejoin:miter;stroke-miterlimit:4;stroke-dasharray:none;stroke-opacity:1"
         d="m 121.38768,62.724716 0.72155,-28.449762 -51.994647,7.403637 2.926534,38.432075 z"
         id="path1292"
         sodipodi:nodetypes="ccccc" />
      <path
         style="fill:none;stroke:#000000;stroke-width:0.264583px;stroke-linecap:butt;stroke-linejoin:miter;stroke-opacity:1"
         d="m 113.73823,58.379872 c 0,0 1.32159,-0.44097 1.32292,0 0.008,2.790979 0.002,2.689361 -0.0844,3.999866 -0.0271,0.412078 -1.04076,0.331424 -1.23851,-0.03112 -0.1754,-0.32155 0.22082,-0.671151 0.57149,-0.938524 1.54517,-1.178143 1.38183,-1.885254 2.59678,-3.044262 -0.53551,0.760962 -0.56387,0.762176 -0.90027,1.142501 -0.34451,0.389492 -0.42993,0.731016 0.20018,0.800061 0.42034,0.04606 0.73978,0.05953 0.94537,-0.187313 0.12556,-0.150754 0.0302,-0.393584 0.008,-0.588533 -0.041,-0.361584 -0.28247,-1.326356 -0.25888,-1.060555 0.074,0.833408 0.71262,1.848356 1.5365,1.970228 0.37768,0.05587 0.93567,-0.660582 0.93567,-0.660582"
         id="path1296"
         sodipodi:nodetypes="cssascssaacac" />
    </g>
  </g>
</svg>
